<?xml version="1.0" encoding="utf-8"?>
<!-- Generator: Adobe Illustrator 27.5.0, SVG Export Plug-In . SVG Version: 6.00 Build 0)  -->
<svg version="1.1" xmlns="http://www.w3.org/2000/svg" xmlns:xlink="http://www.w3.org/1999/xlink" x="0px" y="0px"
	 viewBox="-124 0 500 500" style="enable-background:new -124 0 500 500;" xml:space="preserve">
<g id="BACKGROUND">
	<rect x="-124" style="fill: none;" width="500" height="500"/>
</g>
<g id="OBJETCS">
	<g id="XMLID_129_">
		<path id="XMLID_73_" style="fill:#ecfeff;" d="M-99.334,145.42c-1.6-42,13.08-91.61,56.2-100.86
			c77.08-16.53,85.89,41.24,109.28,44.7c45.93,6.81,62.96,39.86,51.62,79.88c-10.41,36.74-69.02,80.84-147.84,64.93
			C-77.304,224.55-97.594,191.18-99.334,145.42z"/>
		<g id="XMLID_103_">
			<g id="XMLID_111_">
				<rect id="XMLID_105_" x="8.016" y="41.6" style="fill:#D79E81;" width="79.57" height="123.66"/>
				<rect id="XMLID_130_" x="10.506" y="44.18" style="fill:#FFFFFF;" width="74.59" height="118.42"/>
				<g id="XMLID_104_">
					<polygon id="XMLID_117_" style="fill:#F9F8F6;" points="43.646,44.18 10.506,68.77 10.506,44.18 					"/>
					<polygon id="XMLID_118_" style="fill:#F9F8F6;" points="85.096,68.4 85.096,71.48 10.506,126.82 10.506,123.74 					"/>
					<polygon id="XMLID_119_" style="fill:#F9F8F6;" points="85.096,128.94 85.096,132.01 43.856,162.61 39.716,162.61 					"/>
					<polygon id="XMLID_122_" style="fill:#F9F8F6;" points="85.096,138.55 85.096,162.61 52.676,162.61 					"/>
					<polygon id="XMLID_116_" style="fill:#F9F8F6;" points="58.066,44.18 10.506,79.48 10.506,74.97 52.006,44.18 					"/>
				</g>
				<rect id="XMLID_107_" x="46.696" y="44.18" style="fill:#D79E81;" width="2.22" height="118.42"/>
			</g>
			<g id="XMLID_110_">
				<rect id="XMLID_108_" x="8.935" y="131.177" style="fill:#D79E81;" width="77.87" height="2.39"/>
				<rect id="XMLID_109_" x="8.942" y="73.224" style="fill:#D79E81;" width="77.87" height="2.39"/>
			</g>
		</g>
		<g id="XMLID_128_">
			<g>
				<defs>
					<path id="SVGID_1_" d="M-99.334,145.42c-1.6-42,13.08-91.61,56.2-100.86c77.08-16.53,85.89,41.24,109.28,44.7
						c45.93,6.81,62.96,39.86,51.62,79.88c-10.41,36.74-69.02,80.84-147.84,64.93C-77.304,224.55-97.594,191.18-99.334,145.42z"/>
				</defs>
				<clipPath id="SVGID_00000178923327968828963740000014208371739872111268_">
					<use xlink:href="#SVGID_1_"  style="overflow:visible;"/>
				</clipPath>
				<g id="XMLID_126_" style="clip-path:url(#SVGID_00000178923327968828963740000014208371739872111268_);">
					<g id="XMLID_125_">
						<g id="XMLID_124_">
							<path id="XMLID_106_" style="fill:#76A287;" d="M-59.244,205.78c-0.92-3.29-2.45-8.66-4.19-11.59c-1.6-2.69-3.81-4.96-6-7.2
								c-2.2-2.25-4.41-4.51-7-6.3c-4.23-2.93-9.25-4.44-14.18-5.92c-2.7-0.81-6.28-1.32-7.78,1.07c-1.53,2.44,0.69,5.59,3.17,7.06
								s5.53,2.42,6.95,4.93c1.17,2.05,0.93,4.65,1.99,6.75c1.93,3.81,7.32,4.68,9.49,8.36c1.35,2.29,1.26,5.41,3.21,7.22
								c2.02,1.88,5.73,1.81,6.86,4.33c1.22,2.71-0.62,5.33,2.53,7.1c1.49,0.83,8.25,2.38,8.25,2.38S-56.534,215.53-59.244,205.78z"
								/>
							<path id="XMLID_112_" style="fill:none;stroke:#4D776D;stroke-miterlimit:10;" d="M-52.664,239.34c0,0-5.24-41.54-35.1-59.38
								"/>
						</g>
						<g id="XMLID_123_">
							<path id="XMLID_115_" style="fill:#76A287;" d="M-55.094,185.74c-2.89-12.59-5.78-25.21-9.86-37.47
								c-1.55-4.66-3.34-9.38-6.56-13.09c-1.45-1.67-3.15-3.1-4.53-4.83c-1.93-2.42-3.14-5.36-5.21-7.67
								c-2.45-2.73-5.87-4.34-9.2-5.88c-2.16-1-4.92-1.93-6.71-0.36c-1.84,1.62-1.17,4.59-0.31,6.89
								c2.41,6.43,5.08,12.75,8.02,18.95c2.27,4.8,4.71,9.54,7.49,14.06c2.04,3.32,4.26,6.52,6.34,9.81
								c1.96,3.09,3.79,6.25,5.43,9.52c3.19,6.34,5.62,13.01,8.06,19.68c1.13,3.11,2.27,6.21,3.4,9.32c0.84,2.3,1.68,4.6,2.85,6.75
								c0.69,1.28,2.92,5.93,4.69,3.95c1.23-1.37-0.05-7.95-0.22-9.72C-52.074,198.93-53.584,192.32-55.094,185.74z"/>
							<path id="XMLID_113_" style="fill:none;stroke:#4D776D;stroke-miterlimit:10;" d="M-49.074,234.92
								c0,0-8.38-66.83-40.86-110.6"/>
						</g>
						<g id="XMLID_121_">
							<path id="XMLID_120_" style="fill:#76A287;" d="M-45.354,201.28c-0.44-4.14,1.76-8.12,1.99-12.27
								c0.28-4.96-2.25-9.71-2.33-14.68c-0.09-6,3.39-11.79,2.53-17.73c-0.52-3.55-2.55-6.72-3.29-10.24
								c-1.7-8.09,3.6-16.95,0.22-24.49c-0.46-1.02-1.12-2.01-2.13-2.48c-1.85-0.85-4.02,0.41-5.31,1.99
								c-3.66,4.47-3.33,10.92-5.44,16.3c-1.75,4.47-5.3,9-3.71,13.53c0.47,1.33,1.34,2.47,1.86,3.78c2,5.13-2.06,10.99-0.59,16.3
								c0.87,3.15,3.58,5.56,4.41,8.73c1.13,4.31-1.43,9.11,0.26,13.24c0.95,2.32,3.93,3.88,3.91,6.38
								c-0.15,14.15,5.62,18.02,5.62,18.02s3.38-3.31,3.88-6.38C-42.904,207.79-44.994,204.67-45.354,201.28z"/>
							<path id="XMLID_114_" style="fill:none;stroke:#4D776D;stroke-miterlimit:10;" d="M-44.384,234.92c0,0-14.11-72-7.06-108.76"
								/>
						</g>
					</g>
					<g id="XMLID_102_">
						<g id="XMLID_55_">
							<rect id="XMLID_49_" x="31.226" y="159.46" style="fill:#6B5C5A;" width="3.94" height="106.12"/>
							<rect id="XMLID_50_" x="91.646" y="159.46" style="fill:#6B5C5A;" width="3.94" height="81.22"/>
						</g>
						<g id="XMLID_101_">
							<g id="XMLID_100_">
								<g id="XMLID_99_">
									<g id="XMLID_98_">
										<rect id="XMLID_87_" x="-10.974" y="205.78" style="fill:#494846;" width="10.53" height="58.28"/>
										<path id="XMLID_85_" style="fill:#2D2B29;" d="M-0.444,205.78v27.16c-3.58-0.92-7.31-2.61-10.53-4.33v-22.84h10.53V205.78
											z"/>
									</g>
									<g id="XMLID_97_">
										<path id="XMLID_86_" style="fill:#868583;" d="M50.986,192.34c0,0-26.92,22.65-28.46,23.93
											c-1.54,1.29-55.03-2.62-57.14-3.61c-2.11-0.99-2.31-6.88-2.31-6.88c-3.87,0-24.2-59.46-23.6-66.2
											c0.21-2.33,5.38-4.77,12.16-6.96c12.79-4.12,31.32-7.35,33.17-7.35c2.82,0,20.27,59.51,20.27,59.51s-1.72,0.94-4.45,2.43
											l40.65,4.13L50.986,192.34z"/>
										<path id="XMLID_83_" style="fill:#72716F;" d="M41.266,191.35c-9.43,10.55-18.21,19.84-20.06,20.09
											c-4.31,0.58-44.44-4.28-48.94-6.22c-4.49-1.94-25.1-66.71-24.93-68.48c0.07-0.76,2.06-2.45,4.3-4.13
											c12.79-4.12,31.32-7.35,33.17-7.35c2.82,0,20.27,59.51,20.27,59.51s-1.72,0.94-4.45,2.43L41.266,191.35z"/>
									</g>
								</g>
								<g id="XMLID_96_">
									<g id="XMLID_84_">
										<path id="XMLID_19_" style="fill:#FDA68A;" d="M-23.634,126.4c-0.62-0.08-1.21-0.27-1.76-0.54
											c-1.84-0.93-3.23-2.87-3.83-5.15c-0.31-1.16-0.07-2.79-0.98-3.59c-0.55-0.48-1.43-0.56-2.07-0.8
											c-1.38-0.52-2.73-1.15-4.04-1.89c-0.79-0.45-1.53-0.92-2.29-1.29c-0.77-0.38-1.57-0.67-2.45-0.73
											c-0.03-0.04-0.08-0.04-0.13-0.01c-0.03,0-0.06-0.01-0.08-0.01c-0.32-0.01-0.32,0.56,0,0.57c0.03,0,0.06,0.01,0.08,0.01
											c0.14,0.97,0.27,1.94,0.39,2.91c0.16,1.24,0.31,2.48,0.43,3.73c0.22,2.12,0.4,4.24,0.53,6.38
											c-0.33,1.26-0.81,2.43-1.36,3.8c-0.25,0.6-0.5,0.97-0.16,1.61c0.37,0.69,1.68,1.03,2.22,1.25
											c1.7,0.71,3.44,1.29,5.19,1.74c1.9,0.49,5.4,1.89,7.2,0.51c2.17-1.68,3.14-5.45,3.31-8.27
											C-23.424,126.5-23.534,126.41-23.634,126.4z"/>
										<path id="XMLID_64_" style="fill:#E57873;" d="M-25.394,125.86c-7.57,1.57-12.59-3.23-14.97-6.25
											c-0.12-1.25-0.27-2.49-0.43-3.73l2.19-2.74c0.77,0.37,1.51,0.85,2.29,1.29c1.31,0.74,2.65,1.37,4.04,1.89
											c0.64,0.24,1.52,0.32,2.07,0.8c0.91,0.8,0.68,2.43,0.98,3.59C-28.624,122.99-27.234,124.93-25.394,125.86z"/>
									</g>
									<g id="XMLID_95_">
										<path id="XMLID_52_" style="fill:#EAC1A4;" d="M1.376,166.85c0,0,54.19,10.2,55.59,14.67c1.4,4.47-9.75,57.82-9.75,57.82
											l-9.69-3.11c0,0,5.17-34.54,2.6-35.58c-2.57-1.04-44.78-10.11-44.78-10.11"/>
										<path id="XMLID_51_" style="fill:#FAD4B0;" d="M-26.964,183.96c0,0,6.44,21.84,14.26,23.03
											c7.82,1.19,33.43,3.26,35.22,5.03c1.8,1.78,18.93,46.46,18.93,46.46l14.51-5.21c0,0-16.64-57.43-18.44-59.61
											c-1.8-2.18-32.46-8.87-32.46-8.87s-0.22-12.46-3.7-17.93L-26.964,183.96z"/>
									</g>
									<g id="XMLID_94_">
										<path id="XMLID_60_" style="fill:#E57873;" d="M-1.504,142.25c0,0,7.92,10.05,10.64,13.39c3.26,4,14.42,11.7,14.42,11.7
											v6.59c0,0-18.25-6.12-22.04-8.15c-2.45-1.31-15.4-15.5-15.4-15.39C-13.894,150.49-1.504,142.25-1.504,142.25z"/>
										<g id="XMLID_90_">
											<g id="XMLID_88_">
												<path id="XMLID_61_" style="fill:#485A7E;" d="M-16.154,137.4l-0.9-12.67c0,0,7.88,0.87,11.6,6.33
													c3.72,5.47,9.02,12.54,8.71,13.84c-0.31,1.3-10.9,7.5-10.9,7.5L-16.154,137.4z"/>
												<path id="XMLID_23_" style="fill:#485A7E;" d="M1.376,166.85c-2.28-2.54-3.74-5.48-4.55-8.68
													c-0.35-7.03-1.47-14.04-3.31-20.84c-1.28-4.74-3.61-11-8.76-12.23c-3.74-0.89-8.12-0.87-11.96-0.62
													c-0.14,0.01,4.92,6,1.33,7.07c-4.37,1.3-14.37-4.81-14.87-4.75c-2.07,2.32-4.05,4.71-6.06,7.08
													c-1.14,1.34-3.27,3.15-3.4,5.06c-0.07,1.09,0.48,2.14,0.9,3.12c0.64,1.52,1.29,3.05,1.93,4.57
													c1.23,2.89,2.45,5.79,3.67,8.68c2.16,5.14,4,10.69,7.1,15.37c1.59,2.41,3.71,4.62,3.92,7.62
													c0.06,0.93-0.04,1.62,0.57,2.4c0.99,1.26,1.97,1.87,1.89,3.77c-0.01,0.21,0.21,0.36,0.41,0.31
													c11.61-3.28,24.2-7.09,31.23-17.55C1.496,167.1,1.466,166.95,1.376,166.85z"/>
											</g>
											<path id="XMLID_20_" style="fill:#374268;" d="M-5.074,168.55c-7.22,4.69-15.57,7.05-24.21,7.07
												c-0.24,0-0.24,0.36,0,0.37c8.74,0.27,17.21-2.22,24.5-6.96C-4.484,168.83-4.764,168.35-5.074,168.55z"/>
											<path id="XMLID_15_" style="fill:#374268;" d="M-24.684,125.41c-0.19-0.33-0.71-0.03-0.51,0.3
												c1.08,1.84,3.16,4.27,2.29,6.5c-1.05,2.7-4.5,1.53-6.7,1.03c-3.98-0.91-7.71-2.56-11.16-4.7
												c-0.16-0.1-0.29,0.14-0.14,0.24c4.45,3.08,10.5,5.83,16.07,5.79c1.87-0.01,2.46-1.14,2.72-2.96
												C-21.794,129.29-23.564,127.32-24.684,125.41z"/>
											<path id="XMLID_67_" style="fill:#374268;" d="M-4.214,136.53c-0.03-0.18-0.35-0.14-0.33,0.04
												c0.15,1.28,0.3,2.57,0.03,3.84c-0.16,0.75-0.39,1.5-0.63,2.23c-1.15-5.07-3.02-10-5.64-14.47
												c-0.07-0.12-0.25-0.01-0.19,0.11c2.47,4.95,4.34,10.06,5.51,15.38c-0.01,0.04-0.02,0.07-0.03,0.11
												c-0.04,0.12,0.02,0.2,0.11,0.25c0.35,1.66,0.64,3.35,0.86,5.06c0.03,0.28,0.49,0.29,0.45,0
												c-0.19-1.84-0.48-3.68-0.86-5.51c0.37-1.15,0.8-2.32,0.97-3.51C-3.804,138.88-4.014,137.7-4.214,136.53z"/>
										</g>
									</g>
									<g id="XMLID_93_">
										<g id="XMLID_92_">
											<g id="XMLID_91_">
												<path id="XMLID_77_" style="fill:#FDA68A;" d="M1.466,162.49c0,0-22.5,14.62-27.41,14.62c-2.15,0-6.96-4.98-10.56-9.1
													c-2.53-2.9-4.47-5.36-4.47-5.36l9.05-10.97c0,0,0.23,0.27,0.61,0.74c0.45,0.53,1.09,1.36,1.83,2.33
													c2.4,3.16,5.88,7.85,7.4,8.7c2.39,1.33,19.97-6.85,19.97-6.85L1.466,162.49z"/>
												<path id="XMLID_75_" style="fill:#E57873;" d="M-29.484,154.75c-0.77,3.04-2.86,9.65-7.02,13.27
													c-2.53-2.9-4.47-5.36-4.47-5.36l9.05-10.97c0,0,0.23,0.27,0.61,0.74C-30.864,152.94-30.224,153.77-29.484,154.75z"/>
											</g>
											<g id="XMLID_59_">
												<path id="XMLID_56_" style="fill:#FDA68A;" d="M-4.654,161.7l2.54-5.1c0,0,2.66-6.9,4.68-7.53
													c2.02-0.63,6.38-1.37,8.3-0.01c1.91,1.36,4.33,2.59,4.04,3.01c-0.96,1.33-4.24-0.4-5.9-0.76
													c-1.22-0.27-2.68-0.02-2.68-0.02s4.87,1.41,5.09,3.27c0.15,1.2-1.53,1.89-1.53,1.89s0.41,0.96-0.14,1.8
													c-0.54,0.82-1.51,0.94-1.51,0.94s0.5,1.04-0.35,1.79c-1.09,0.95-3.33,0.5-3.33,0.5s-2.27,1.98-4.19,1.74
													C-1.684,162.95-4.654,161.7-4.654,161.7z"/>
												
													<path id="XMLID_2_" style="fill:none;stroke:#D85B5B;stroke-linecap:round;stroke-linejoin:round;stroke-miterlimit:10;" d="
													M5.126,154.13c1.61,0.56,3.16,1.29,4.62,2.17"/>
												
													<path id="XMLID_8_" style="fill:none;stroke:#D85B5B;stroke-linecap:round;stroke-linejoin:round;stroke-miterlimit:10;" d="
													M4.186,157.14c1.35,0.5,2.66,1.14,3.88,1.9"/>
												
													<path id="XMLID_17_" style="fill:none;stroke:#D85B5B;stroke-linecap:round;stroke-linejoin:round;stroke-miterlimit:10;" d="
													M5.476,160.27c-0.21,0.61-0.69,1.13-1.29,1.4"/>
											</g>
										</g>
										<g id="XMLID_89_">
											<path id="XMLID_25_" style="fill:#485A7E;" d="M-28.994,150.38c-0.65-1.39-2.04-2.67-3.03-3.84
												c-0.73-2.74-2.73-5.17-4.29-7.5c-2.09-3.12-4.74-4.99-7.94-7c-0.1-0.06-0.21-0.01-0.28,0.07c-0.04,0-0.07,0.01-0.1,0.04
												c-2.34,2.01-4.62,3.98-5.8,6.89c-1.04,2.57-1.23,5.41-0.81,8.12c0.5,3.25,1.88,6.3,3.61,9.09
												c1.97,3.18,4.61,5.94,5.64,9.61c0.04,0.16,0.18,0.24,0.34,0.26c2.74,0.22,4.8-3.76,6.09-5.65
												c1.12-1.64,2.08-3.35,3.06-5.07c0.99-1.75,2.34-3.05,3.51-4.63C-28.904,150.65-28.934,150.5-28.994,150.38z"/>
											<path id="XMLID_16_" style="fill:#374268;" d="M-29.974,148.85c-0.16-0.19-0.33-0.37-0.5-0.55
												c0.02-0.03,0.02-0.07,0.02-0.12c-0.17-4.03-1.71-7.12-3.56-10.63c-0.06-0.11-0.21-0.01-0.16,0.09
												c0.72,1.61,1.51,3.23,2.14,4.87c0.66,1.72,0.85,3.43,1.02,5.23c-0.89-0.88-1.82-1.71-2.61-2.72
												c-0.81-1.04-1.64-2.04-2.6-2.95c-3.17-3.01-8.45-6.41-12.75-3.62c-0.21,0.14-0.01,0.47,0.2,0.34
												c4.01-2.57,8.9,0.7,11.86,3.42c1.26,1.15,2.25,2.46,3.31,3.78c1.05,1.31,5.3,4.23,3.55,6.19
												c-0.12,0.13,0.06,0.32,0.2,0.2C-28.714,151.34-29.014,149.96-29.974,148.85z"/>
										</g>
									</g>
									<g id="XMLID_82_">
										<path id="XMLID_13_" style="fill:#E57873;" d="M-19.184,107.26c0.78,1.49-0.34,3.58-2.49,4.67
											c-2.15,1.1-4.53,0.78-5.31-0.71s0.34-3.58,2.49-4.67C-22.334,105.45-19.954,105.77-19.184,107.26z"/>
										<g id="XMLID_76_">
											<path id="XMLID_69_" style="fill:#FDA68A;" d="M-29.144,121.93c-8.69,1.38-15.85-6.45-16.88-14.73
												c-0.23-1.88-0.09-3.67,0.35-5.29c1.41-5.22,5.89-8.84,10.93-8.94c0.28-0.01,0.57-0.01,0.85,0.01
												c3.27,0.19,5.9,0.61,7.84,2.45l0.01,0.01c1.54,1.45,2.65,3.79,3.3,7.61c0.28,1.63,0.48,3.53,0.59,5.74
												C-21.814,115.57-23.294,121-29.144,121.93z"/>
											<path id="XMLID_63_" style="fill:#E57873;" d="M-22.744,103.05c-2.33,0.94-4.64,0.04-6.01,0.07
												c-1.5,0.04-3.04,0.79-3.79,0.74c-0.74-0.04-3.15-0.91-4.27-0.71c-1.13,0.2-3.23,0-3.23,0s-3.81,7-4.08,7.09l-1.89-5.65
												l0.35-2.68c1.41-5.22,5.89-8.84,10.93-8.94l8.69,2.46l0.01,0.01C-24.494,96.88-23.394,99.22-22.744,103.05z"/>
										</g>
										<g id="XMLID_74_">
											<path id="XMLID_4_" style="fill:#474E54;" d="M-32.544,110.24c0,0.55-0.27,1-0.61,1s-0.61-0.45-0.61-1
												c0-0.55,0.27-1,0.61-1S-32.544,109.69-32.544,110.24z"/>
											<ellipse id="XMLID_6_" style="fill:#474E54;" cx="-24.304" cy="109.24" rx="0.61" ry="1"/>
											
												<path id="XMLID_5_" style="fill:none;stroke:#6B393A;stroke-linecap:round;stroke-linejoin:round;stroke-miterlimit:10;" d="
												M-25.984,104.83c0.85-0.53,1.95-0.64,2.9-0.29"/>
											
												<path id="XMLID_7_" style="fill:none;stroke:#6B393A;stroke-linecap:round;stroke-linejoin:round;stroke-miterlimit:10;" d="
												M-36.814,106.31c1.3-0.83,2.94-1.1,4.44-0.74"/>
											
												<path id="XMLID_9_" style="fill:none;stroke:#D85B5B;stroke-linecap:round;stroke-linejoin:round;stroke-miterlimit:10;" d="
												M-26.594,105.54c-0.84,1.43-0.85,3.29-0.03,4.73c0.32,0.56,0.78,1.13,0.71,1.78c-0.08,0.65-0.67,1.11-1.21,1.49"/>
											
												<path id="XMLID_11_" style="fill:none;stroke:#D85B5B;stroke-linecap:round;stroke-linejoin:round;stroke-miterlimit:10;" d="
												M-26.264,115.81c-1.88,0.51-3.91,0.43-5.75-0.21"/>
										</g>
										<g id="XMLID_81_">
											<path id="XMLID_10_" style="fill:#6B393A;" d="M-18.734,95.23c-0.51-1.5,0.89-2.48,0.57-4.07
												c-0.21-1.07-0.88-1.63-1.71-2.23c-1.07-0.77-1.55-1.12-2.01-2.36c-0.21-0.57-0.24-0.96-0.73-1.36
												c-0.89-0.72-2.1-0.58-3.08-0.18c-1.16,0.46-1.54,1.17-2.9,1.02c-0.92-0.1-1.77-0.5-2.7-0.46
												c-1.33,0.07-2.44,0.81-3.35,1.72c-1.03,1.02-1.35,1.92-2.88,2.25c-1.12,0.24-1.92-0.11-3.03,0.09
												c-1.35,0.25-2.45,0.94-3.44,1.78c-0.41,0.35-0.8,0.74-1.18,1.13c-1.35,1.4-2.62,1.99-3.21,3.92
												c-1.39,4.45-0.17,9.35,1.23,13.71c-0.03,0.06-0.05,0.13-0.04,0.2c0.08,0.4,0.22,0.76,0.45,1.05
												c0.01,0.02,0.01,0.04,0.02,0.05c0.01,0.03,0.04,0.05,0.07,0.05c0.26,0.3,0.61,0.52,1.07,0.62
												c1.46,0.32,1.58-0.76,2.03-1.85c0.96-2.31,1.46-4.84,2.45-7.12c0.55-1.28,0.18-0.79,1.34-0.76
												c0.88,0.03,1.57-0.08,2.42-0.14c2.07-0.16,3.87,0.99,5.9,0.55c1.53-0.33,2.52-0.83,4.14-0.56
												c0.99,0.17,1.82,0.41,2.83,0.21c1.56-0.29,2.5-1.48,3.94-1.99c1.06-0.38,1.94-0.63,2.46-1.73
												c0.07-0.14,0.11-0.27,0.16-0.39C-17.504,97.12-18.314,96.47-18.734,95.23z"/>
											<path id="XMLID_66_" style="fill:#7F4C56;" d="M-17.924,98.4c-0.03-0.05-0.05-0.1-0.08-0.16
												c-0.46-0.83-1.2-1.46-1.85-2.15c-0.65-0.69-1.23-1.52-1.28-2.46c-0.04-0.74,0.23-1.61-0.3-2.15
												c-0.47-0.48-1.32-0.36-1.82-0.8c-0.89-0.76-0.13-2.47-1.04-3.19c-0.53-0.41-1.32-0.21-1.92,0.11s-1.19,0.76-1.87,0.76
												c-0.85,0.01-1.56-0.67-2.4-0.81c-0.99-0.17-1.95,0.42-2.66,1.11c-0.71,0.69-1.31,1.52-2.16,2.03
												c-1.54,0.93-3.49,0.64-5.28,0.48c-1.13-0.1-2.36-0.1-3.4,0.27c0.98-0.85,2.09-1.53,3.44-1.78
												c1.1-0.2,1.91,0.15,3.03-0.09c1.53-0.33,1.85-1.23,2.88-2.25c0.91-0.91,2.02-1.65,3.35-1.72
												c0.93-0.05,1.77,0.35,2.7,0.46c1.35,0.15,1.73-0.56,2.9-1.02c0.98-0.4,2.2-0.54,3.08,0.18c0.49,0.4,0.53,0.79,0.73,1.36
												c0.45,1.24,0.94,1.6,2.01,2.36c0.84,0.59,1.5,1.16,1.71,2.23c0.32,1.6-1.07,2.58-0.57,4.07
												C-18.314,96.47-17.504,97.12-17.924,98.4z"/>
										</g>
										<path id="XMLID_3_" style="fill:#FDA68A;" d="M-41.734,112.17c-0.36,1.63-2.58,2.54-4.95,2.03
											c-2.37-0.51-3.99-2.25-3.63-3.89c0.36-1.63,2.58-2.54,4.95-2.03C-42.994,108.8-41.364,110.54-41.734,112.17z"/>
									</g>
								</g>
							</g>
							<g id="XMLID_58_">
								<g id="XMLID_57_">
									<g id="XMLID_29_">
										<rect id="XMLID_54_" x="-63.374" y="202.65" style="fill:#6B5C5A;" width="3.94" height="80.71"/>
										<rect id="XMLID_53_" x="25.526" y="202.65" style="fill:#6B5C5A;" width="3.94" height="80.71"/>
									</g>
									<g id="XMLID_48_">
										<polyline id="XMLID_47_" style="fill:#B7A6A1;" points="-66.894,200.66 -66.894,203.86 32.416,203.86 97.126,159.04 
											97.126,156.06 										"/>
										<path id="XMLID_18_" style="fill:#ECDFD9;" d="M33.166,156.06c-1.02,0-100.05,44.59-100.05,44.59h99.06l64.96-44.59
											H33.166z"/>
									</g>
								</g>
								<g id="XMLID_46_">
									<g id="XMLID_44_">
										<polygon id="XMLID_21_" style="fill:#606060;" points="0.016,173.43 0.556,175.34 33.556,175.34 54.976,163.41 
											54.976,161.7 										"/>
										<g id="XMLID_43_">
											<polygon id="XMLID_14_" style="fill:#C6C4C2;" points="54.976,161.7 25.336,161.7 0.016,173.43 33.446,173.43 
																							"/>
											<g id="XMLID_42_">
												<polygon id="XMLID_27_" style="fill:#EFEFEF;" points="20.396,164.7 26.556,164.7 19.406,168.09 12.666,168.09 
																									"/>
												<g id="XMLID_34_">
													<polygon id="XMLID_26_" style="fill:#EFEFEF;" points="31.676,162.55 50.996,162.55 34.616,172.56 12.366,172.56 
																											"/>
													
														<line id="XMLID_30_" style="fill:none;stroke:#C6C4C2;stroke-width:0.5;stroke-miterlimit:10;" x1="14.036" y1="172.89" x2="34.296" y2="162.65"/>
													
														<line id="XMLID_31_" style="fill:none;stroke:#C6C4C2;stroke-width:0.5;stroke-miterlimit:10;" x1="17.466" y1="172.89" x2="37.366" y2="162.56"/>
													
														<line id="XMLID_32_" style="fill:none;stroke:#C6C4C2;stroke-width:0.5;stroke-miterlimit:10;" x1="21.206" y1="172.89" x2="40.356" y2="162.49"/>
													
														<line id="XMLID_33_" style="fill:none;stroke:#C6C4C2;stroke-width:0.5;stroke-miterlimit:10;" x1="24.196" y1="172.94" x2="43.006" y2="163.2"/>
													
														<line id="XMLID_36_" style="fill:none;stroke:#C6C4C2;stroke-width:0.5;stroke-miterlimit:10;" x1="14.036" y1="171.14" x2="32.966" y2="171.14"/>
													
														<line id="XMLID_35_" style="fill:none;stroke:#C6C4C2;stroke-width:0.5;stroke-miterlimit:10;" x1="27.606" y1="172.94" x2="45.796" y2="163.73"/>
													
														<line id="XMLID_38_" style="fill:none;stroke:#C6C4C2;stroke-width:0.5;stroke-miterlimit:10;" x1="17.086" y1="169.55" x2="36.026" y2="169.55"/>
													
														<line id="XMLID_39_" style="fill:none;stroke:#C6C4C2;stroke-width:0.5;stroke-miterlimit:10;" x1="25.146" y1="167.27" x2="40.696" y2="167.27"/>
													
														<line id="XMLID_40_" style="fill:none;stroke:#C6C4C2;stroke-width:0.5;stroke-miterlimit:10;" x1="26.386" y1="164.7" x2="45.316" y2="164.7"/>
													
														<line id="XMLID_41_" style="fill:none;stroke:#C6C4C2;stroke-width:0.5;stroke-miterlimit:10;" x1="27.996" y1="163.44" x2="46.926" y2="163.44"/>
												</g>
											</g>
										</g>
									</g>
									<g id="XMLID_45_">
										<polygon id="XMLID_24_" style="fill:#5E5E5D;" points="62.446,130.26 60.176,129.48 39.846,134.66 31.416,173.01 
											32.966,173.87 										"/>
										<polygon id="XMLID_12_" style="fill:#494846;" points="32.966,173.87 41.246,136 62.446,130.26 55.246,162.09 										
											"/>
									</g>
								</g>
								<g id="XMLID_72_">
									<ellipse id="XMLID_62_" style="fill:#DBCBC6;" cx="-6.574" cy="187.27" rx="9.49" ry="2.49"/>
									<g id="XMLID_71_">
										<path id="XMLID_80_" style="fill:#FFFFFF;" d="M-0.294,171.94c-3.72-0.92-7.92-0.89-11.64,0.42
											c-0.71,0.25-1.17,0.79-1.04,1.53l0.22,1.24c-2.78-1.45-5.6,0.17-5.17,3.67c0.45,3.67,3.44,6.02,6.92,6.29l0.35,1.97
											c0.05,0.31,0.26,0.59,0.56,0.71c2.12,0.9,4.63,1.11,7.8,0.16c0.69-0.21,1.19-0.79,1.3-1.49l1.96-12.27
											C1.126,172.99,0.876,172.22-0.294,171.94z M-16.124,180.37c-0.54-1.17-0.85-2.56,0.04-3.6c0.98-1.14,2.28-0.53,3.57-0.31
											l1.26,7.19C-13.334,183.56-15.214,182.35-16.124,180.37z"/>
										<ellipse id="XMLID_65_" style="fill:#BFACAC;" cx="-5.784" cy="173.36" rx="6.15" ry="1.43"/>
									</g>
								</g>
							</g>
						</g>
					</g>
				</g>
			</g>
		</g>
	</g>
	<g>
		<path style="fill:#ecfeff;" d="M201.196,78.45c-27.52,17.51-39.58,15.85-52.94,32.37c-13.36,16.51-19.92,38.85-15.66,59.66
			c5.46,26.69,27.86,47.73,53.4,57.24c25.53,9.51,53.77,8.96,80.7,4.78c18.82-2.92,38.09-7.9,52.69-20.12
			c21.94-18.38,28.78-49.03,31.15-77.55c1.27-15.26,1.63-30.77-1.68-45.72s-10.58-29.41-22.44-39.09
			c-18.02-14.71-44.18-16.2-66.28-8.95C238.026,48.32,224.526,63.61,201.196,78.45z"/>
		<g>
			<g>
				<defs>
					<path id="SVGID_00000041978713964807323440000012200468380634765714_" d="M201.196,78.45c-27.52,17.51-45.73-1.64-59.09,14.87
						s-29.03,65.76-16.14,84.25c15.59,22.35,34.48,40.64,60.02,50.14c25.53,9.51,53.77,8.96,80.7,4.78
						c18.82-2.92,38.09-7.9,52.69-20.12c21.94-18.38,28.78-49.03,31.15-77.55c1.27-15.26,1.63-30.77-1.68-45.72
						s-1.6-48.32-13.46-58.01c-18.02-14.71-53.16,2.71-75.26,9.97S224.526,63.61,201.196,78.45z"/>
				</defs>
				<clipPath id="SVGID_00000076601153116989547940000004159778103112343487_">
					<use xlink:href="#SVGID_00000041978713964807323440000012200468380634765714_"  style="overflow:visible;"/>
				</clipPath>
				<g style="clip-path:url(#SVGID_00000076601153116989547940000004159778103112343487_);">
					<g>
						<rect x="311.576" y="72.82" style="fill:#7291BA;" width="3.53" height="127.64"/>
						<g>
							<g>
								<path style="fill:#A9CBE6;" d="M346.496,82.52c-1.22,0.21-2.45,0.41-3.69,0.6c-7.11,1.08-14.42,1.72-21.92,1.97
									c-8.58,0.29-17.4,0.08-26.44-0.57c-3.9-0.28-7.84-0.64-11.82-1.08c-0.82-0.09-1.63-0.18-2.45-0.28l12.88-52.11
									c0.83-0.19,1.66-0.37,2.49-0.54l1.73-0.33c9.06-1.66,17.63-1.91,26.44-0.82c2.1,0.25,4.2,0.59,6.34,1
									c1.1,0.21,2.21,0.44,3.32,0.69L346.496,82.52z"/>
								<path style="fill:#95B9DB;" d="M342.816,83.12c-7.11,1.08-14.42,1.72-21.92,1.97c4.16-2.47,8.24-7.2,7.37-16.18
									c-0.93-9.58-3.53-31.27-4.53-39.54c2.1,0.25,4.2,0.59,6.34,1L342.816,83.12z"/>
							</g>
							<path style="fill:none;" d="M314.746,91.16c-0.01,0-0.02,0-0.03,0.01"/>
						</g>
					</g>
					<g>
						<g>
							<path style="fill:#76A287;" d="M212.586,122.57c-2.26-2.78-4.67-6.15-3.79-9.63c0.35-1.4,1.22-2.65,1.49-4.07
								c0.73-3.83-3.04-7.58-1.97-11.33c0.87-3.04,4.42-4.37,6.35-6.88c1.26-1.64,1.78-3.73,2.8-5.54c1.53-2.72,4.15-4.71,7.04-5.87
								s6.04-1.56,9.54-1.21c-2.16,1.87-3.52,4.63-3.69,7.48c-0.16,2.67,0.65,5.54-0.59,7.91c-0.78,1.49-2.27,2.51-3.13,3.96
								c-1.57,2.65-0.73,6.02-1.15,9.08c-0.69,5.03-4.73,8.85-8.53,12.23C215.506,119.99,214.056,121.27,212.586,122.57z"/>
							<path style="fill:#76A287;" d="M210.286,138.9c0.4-3.86,0.74-8.03-1.28-11.35c-0.95-1.57-2.37-2.82-3.23-4.44
								c-2.4-4.55,0.11-10.91-3.21-14.84c-2.43-2.87-6.98-3.08-9.52-5.85c-1.75-1.91-2.22-4.68-3.74-6.78
								c-1.67-2.3-4.62-3.61-7.45-3.28c2.51,3.44,3.71,7.81,3.31,12.05c-0.35,3.72-1.79,7.85,0.35,10.91
								c1.7,2.43,5.14,3.2,6.74,5.69c1.78,2.76,0.63,6.45,1.42,9.64c0.82,3.33,3.73,5.83,6.93,7.07
								C203.806,138.96,207.296,139.15,210.286,138.9z"/>
							<path style="fill:#76A287;" d="M184.506,130.21c0.24-4.57,0.36-9.55-2.35-13.24c-0.96-1.31-2.24-2.39-2.95-3.86
								c-0.98-2.04-0.68-4.42-0.73-6.69c-0.05-2.26-0.71-4.84-2.74-5.83c-1.7-0.83-3.74-0.25-5.59-0.63
								c-2.94-0.59-4.85-3.4-7.43-4.95c-4.65-2.79-10.58-1.09-16.07,1.73c2.81-0.36,4.98,2.45,5.96,5.1
								c0.98,2.66,1.56,5.71,3.78,7.46c1.32,1.04,3.08,1.47,4.22,2.7c1.98,2.12,1.33,5.62,2.75,8.15c1.55,2.74,5,3.58,8.02,4.45
								C175.436,125.77,179.346,127.43,184.506,130.21z"/>
							<path style="fill:#76A287;" d="M192.726,145.56c-0.49-0.84-0.97-1.68-1.78-2.74c-1.46-2.24-3.56-4.06-5.99-5.19
								c-1.08-0.5-2.24-0.87-3.43-0.88c-1.48-0.01-2.9,0.55-4.34,0.91s-3.07,0.47-4.68-0.62c-2.69-1.78-5.79-3.64-8.92-2.88
								c-2.22,0.54-4.15,2.36-6.42,2.15c-0.66-0.06-1.29-0.29-1.93-0.47c-2.66-0.71-5.6-0.3-8.22,1.53
								c5.73,0.01,8.71,7.9,14.38,8.65c1.65,0.22,3.34-0.22,5-0.01c3.53,0.46,6.03,3.68,9.32,5.01c2.78,1.13,5.98,0.82,8.8-0.2
								C187.346,149.79,189.866,148.09,192.726,145.56z"/>
							<path style="fill:#76A287;" d="M169.106,164.92c-0.11-3.14-0.22-6.34-1.19-9.33c-0.97-2.99-2.91-5.82-5.78-7.12
								c-2.75-1.25-6.19-1.05-8.45-3.07c-1.48-1.32-2.12-3.34-3.35-4.9c-2.66-3.39-7.71-4.07-11.81-2.77s-7.49,4.18-11.1,8.13
								c3.27,0.09,6.45,1.88,8.24,4.62c1.97,3.03,2.6,7.36,5.91,8.82c3.39,1.49,7.77-1.07,10.89,0.94c1.4,0.9,2.15,2.51,3.34,3.67
								C158.916,166.94,163.946,166.2,169.106,164.92z"/>
							<path style="fill:#76A287;" d="M178.496,175.35c-3.23-2.1-7.05-4.29-10.72-3.12c-2.43,0.78-4.22,2.9-6.6,3.8
								c-2.58,0.98-5.45,0.41-8.21,0.3c-6.73-0.27-14.12,3.11-15.98,9.9c1.6-1.77,4.41-1.91,6.65-1.09
								c2.24,0.82,4.09,2.41,6.05,3.77c1.96,1.36,4.21,2.56,6.59,2.41c5.54-0.35,9.21-7.67,14.71-6.89c0.79,0.11,1.56,0.4,2.36,0.38
								c1.85-0.05,3.28-1.73,3.91-3.48C177.886,179.58,177.956,177.68,178.496,175.35z"/>
						</g>
						<g>
							<g>
								<g>
									<path style="fill:none;stroke:#47705C;stroke-width:0.5;stroke-linecap:round;stroke-miterlimit:10;" d="M204.126,205.48
										c1.5-38.16-14.09-76.68-41.78-102.9c-3.06-2.78-6.8-4.81-10.8-5.85"/>
									<path style="fill:none;stroke:#47705C;stroke-width:0.5;stroke-linecap:round;stroke-miterlimit:10;" d="M162.066,95.69
										c0.41,2.33,0.65,4.68,0.71,7.05"/>
									<path style="fill:none;stroke:#47705C;stroke-width:0.5;stroke-linecap:round;stroke-miterlimit:10;" d="M175.546,102.18
										c-0.48,3.66-1.42,7.26-2.78,10.69"/>
									<path style="fill:none;stroke:#47705C;stroke-width:0.5;stroke-linecap:round;stroke-miterlimit:10;" d="M182.386,119.1
										c-0.65,1.45-1.39,2.85-2.22,4.2"/>
									<path style="fill:none;stroke:#47705C;stroke-width:0.5;stroke-linecap:round;stroke-miterlimit:10;" d="M154.396,102.3
										c1.69-0.8,3.51-1.33,5.37-1.56"/>
									<path style="fill:none;stroke:#47705C;stroke-width:0.5;stroke-linecap:round;stroke-miterlimit:10;" d="M161.496,110.31
										c2.21-0.91,4.6-1.39,6.99-1.4"/>
									<path style="fill:none;stroke:#47705C;stroke-width:0.5;stroke-linecap:round;stroke-miterlimit:10;" d="M167.216,121.82
										c2.42-1.08,5.08-1.47,7.71-1.86c0.84-0.12,1.68-0.24,2.51-0.37"/>
								</g>
								<g>
									<path style="fill:none;stroke:#47705C;stroke-width:0.5;stroke-linecap:round;stroke-miterlimit:10;" d="M186.516,143.53
										c-0.64-2.34-2.36-4.19-4.02-5.95"/>
									<path style="fill:none;stroke:#47705C;stroke-width:0.5;stroke-linecap:round;stroke-miterlimit:10;" d="M181.086,144.18
										c-0.88,2.2-2.15,4.23-3.74,5.98"/>
									<path style="fill:none;stroke:#47705C;stroke-width:0.5;stroke-linecap:round;stroke-miterlimit:10;" d="M172.166,143.12
										c-1.12-2.84-2.94-5.39-5.27-7.37"/>
									<path style="fill:none;stroke:#47705C;stroke-width:0.5;stroke-linecap:round;stroke-miterlimit:10;" d="M166.166,141.23
										c-1.49,1.41-3.26,2.54-5.17,3.3"/>
									<path style="fill:none;stroke:#47705C;stroke-width:0.5;stroke-linecap:round;stroke-miterlimit:10;" d="M193.066,145.78
										c-1.9-1.81-4.73-2.26-7.35-2.15s-5.22,0.7-7.84,0.59c-6.72-0.27-12.9-5.03-19.57-4.17"/>
								</g>
							</g>
							<g>
								<g>
									<path style="fill:none;stroke:#47705C;stroke-width:0.5;stroke-linecap:round;stroke-miterlimit:10;" d="M139.546,144.25
										c27.39,12.36,48.52,37.82,55.63,67.02"/>
									<path style="fill:none;stroke:#47705C;stroke-width:0.5;stroke-linecap:round;stroke-miterlimit:10;" d="M148.506,148.86
										c-0.09-3.47-1.34-6.91-3.51-9.63"/>
									<path style="fill:none;stroke:#47705C;stroke-width:0.5;stroke-linecap:round;stroke-miterlimit:10;" d="M144.116,146.67
										c-2.22,1.01-4.51,1.9-6.83,2.64"/>
									<path style="fill:none;stroke:#47705C;stroke-width:0.5;stroke-linecap:round;stroke-miterlimit:10;" d="M159.696,156.47
										c0.27-2.53,0.09-5.11-0.53-7.57"/>
									<path style="fill:none;stroke:#47705C;stroke-width:0.5;stroke-linecap:round;stroke-miterlimit:10;" d="M155.146,153.2
										c-3.22,1.43-6.49,2.74-9.81,3.92"/>
									<path style="fill:none;stroke:#47705C;stroke-width:0.5;stroke-linecap:round;stroke-miterlimit:10;" d="M165.656,161.65
										c-2.16,1-4.43,1.74-6.76,2.21"/>
								</g>
								<g>
									<path style="fill:none;stroke:#47705C;stroke-width:0.5;stroke-linecap:round;stroke-miterlimit:10;" d="M174.096,175.56
										c0.37,2.69,0.26,5.45-0.33,8.1"/>
									<path style="fill:none;stroke:#47705C;stroke-width:0.5;stroke-linecap:round;stroke-miterlimit:10;" d="M170.536,176.58
										c-1.37-1.1-3.01-1.85-4.74-2.16"/>
									<path style="fill:none;stroke:#47705C;stroke-width:0.5;stroke-linecap:round;stroke-miterlimit:10;" d="M164.946,178.88
										c-0.37,2.85-1.12,5.65-2.23,8.3"/>
									<path style="fill:none;stroke:#47705C;stroke-width:0.5;stroke-linecap:round;stroke-miterlimit:10;" d="M157.866,180.5
										c-1.8-1.38-3.86-2.42-6.04-3.06"/>
									<path style="fill:none;stroke:#47705C;stroke-width:0.5;stroke-linecap:round;stroke-miterlimit:10;" d="M152.276,181.04
										c-1.13,1.88-2.66,3.52-4.46,4.77"/>
									<path style="fill:none;stroke:#47705C;stroke-width:0.5;stroke-linecap:round;stroke-miterlimit:10;" d="M178.666,175.46
										c-4.23-0.98-8.44,1.3-12.5,2.85c-4.35,1.66-9,2.52-13.66,2.53c-2.04,0-4.14-0.15-6.08,0.47"/>
								</g>
							</g>
							<g>
								<g>
									<path style="fill:none;stroke:#47705C;stroke-width:0.5;stroke-linecap:round;stroke-miterlimit:10;" d="M212.976,93.51
										c1.81,3.29,3.26,6.78,4.31,10.39"/>
									<path style="fill:none;stroke:#47705C;stroke-width:0.5;stroke-linecap:round;stroke-miterlimit:10;" d="M219.706,83.85
										c0.75,2.92,1.34,5.88,1.75,8.86"/>
									<path style="fill:none;stroke:#47705C;stroke-width:0.5;stroke-linecap:round;stroke-miterlimit:10;" d="M210.376,112.12
										c1.44,0.98,2.68,2.25,3.63,3.71"/>
									<path style="fill:none;stroke:#47705C;stroke-width:0.5;stroke-linecap:round;stroke-miterlimit:10;" d="M215.216,112.14
										c2.52-1.7,5.39-2.88,8.37-3.44"/>
									<path style="fill:none;stroke:#47705C;stroke-width:0.5;stroke-linecap:round;stroke-miterlimit:10;" d="M219.396,98.25
										c2.69-1.69,5.64-2.95,8.72-3.71"/>
									<path style="fill:none;stroke:#47705C;stroke-width:0.5;stroke-linecap:round;stroke-miterlimit:10;" d="M213.406,195.11
										c-7.96-35.27-5.72-80.48,14.71-114.66"/>
								</g>
								<g>
									<path style="fill:none;stroke:#47705C;stroke-width:0.5;stroke-linecap:round;stroke-miterlimit:10;" d="M189.506,103.97
										c4.17,7.6,8.34,15.21,12.51,22.81c2.47,4.5,4.95,9.02,8.18,13.01"/>
									<path style="fill:none;stroke:#47705C;stroke-width:0.5;stroke-linecap:round;stroke-miterlimit:10;" d="M185.516,110.96
										c3.23,0.21,6.41,1.09,9.28,2.58"/>
									<path style="fill:none;stroke:#47705C;stroke-width:0.5;stroke-linecap:round;stroke-miterlimit:10;" d="M201.926,109.88
										c-1.58,3.07-2.86,6.28-3.82,9.59"/>
									<path style="fill:none;stroke:#47705C;stroke-width:0.5;stroke-linecap:round;stroke-miterlimit:10;" d="M194.786,130.23
										c1.63-0.83,3.35-1.49,5.12-1.98c0.89-0.25,1.82-0.45,2.73-0.28"/>
								</g>
							</g>
						</g>
					</g>
					<g>
						<g>
							<path style="fill:#D4B9B0;" d="M167.996,161.25c1.09-2.13,1-3.32,3.21-6.23c15.5-4.71,34.72-3.83,52.43-3.65
								c19.75,0.19,17.99,65.47,14.54,88.02c-17.76,3.25-36.17,2.87-52.6-0.28C179.156,215.42,174.286,191.31,167.996,161.25z"/>
							<path style="fill:#EDE0DA;" d="M164.896,237.39c-4.17-18.92-8.37-38.12-7.34-57.46c0.31-5.8,1.14-11.74,4.04-16.78
								c2.89-5.03,8.24-9,14.04-8.81c6.34,0.2,11.69,5.28,14.17,11.11c2.48,5.83,2.67,12.35,2.81,18.68
								c0.43,18.32,0.86,36.63,2.32,55.41C185.676,238.81,176.346,239.05,164.896,237.39z"/>
						</g>
						<g>
							<path style="fill:#DEC3BA;" d="M334.256,225.65c-2.99,0.44-6,0.85-9,1.22c-28.05,3.47-56.41,3.81-83.55,1.26
								c-4.13-16.58-14.03-75.3-15.03-87.7c-1.01-12.4,0.8-26.13,9.79-34.72c6.15-5.87,14.72-8.43,23.09-9.91
								c21.62-3.83,50.41-3.02,70.68,10.31c1.5,0.99,2.82,2.01,3.99,3.12C347.786,122.11,339.416,145.01,334.256,225.65z"/>
							<path style="fill:#C9ADA3;" d="M334.256,225.65c-2.99,0.44-6,0.85-9,1.22c-1.31-35.13-2.5-70.34,0.26-105.38
								c0.39-4.97,1.85-11.13,6.73-12.18c0.65-0.14,1.32-0.17,1.97-0.09C347.786,122.11,339.416,145.01,334.256,225.65z"/>
						</g>
						<path style="fill:#E8D6CF;" d="M301.006,233.41c3.97-14.13,5.79-28.95,5.38-43.68c-18.87-7.82-37.06-14.1-55.87-15.45
							s-38.43,2.56-54.15,14.04c-2.14,16.36-2.19,32.64,2.17,47.82C230.386,239.84,262.606,239.9,301.006,233.41z"/>
						<g>
							<g id="XMLID_176_">
								<path id="XMLID_178_" style="fill:#FDA68A;" d="M265.466,113.62c0.71-0.21,1.37-0.56,1.97-1.01
									c1.98-1.53,3.26-4.3,3.51-7.38c0.13-1.57-0.45-3.65,0.46-4.85c0.55-0.72,1.58-0.98,2.28-1.4c1.53-0.92,2.99-1.98,4.39-3.17
									c0.84-0.72,1.62-1.46,2.45-2.08c0.84-0.64,1.72-1.14,2.75-1.38c0.03-0.06,0.09-0.07,0.15-0.04c0.03,0,0.07-0.02,0.1-0.02
									c0.39-0.07,0.49,0.78,0.03,0.74c-0.01,0.01-0.01,0.01-0.02,0.02c0.02,1.29,0.06,2.58,0.1,3.86
									c0.05,1.65,0.12,3.29,0.21,4.94c0.08,1.41,0.16,2.81,0.26,4.22c0.22,3.01,1.07,5.93,2.52,8.58c0.05,0.1,0.11,0.2,0.17,0.3
									c0.41,0.74,0.78,1.17,0.5,2.07c-0.3,0.96-1.78,1.64-2.38,2.02c-1.86,1.22-3.8,2.28-5.78,3.18
									c-2.15,0.97-5.99,3.41-8.38,1.92c-2.88-1.81-4.75-6.55-5.5-10.19C265.236,113.79,265.356,113.65,265.466,113.62z"/>
								<path id="XMLID_177_" style="fill:#E57873;" d="M267.436,112.6c9.23,0.71,14.21-6.41,16.44-10.76
									c-0.09-1.65-0.16-3.29-0.21-4.94l-3.11-3.19c-0.83,0.62-1.61,1.37-2.45,2.08c-1.4,1.19-2.86,2.25-4.39,3.17
									c-0.71,0.42-1.73,0.68-2.28,1.4c-0.92,1.2-0.33,3.28-0.46,4.85C270.696,108.3,269.426,111.07,267.436,112.6z"/>
							</g>
							<g>
								<path style="fill:#CC5E47;" d="M258.086,148.8c-6.44-1.85-12.68-4.39-18.59-7.54c2.74-8.94,9.38-22.93,16.29-24.16
									c2.32-0.41,0.87,4.03,2.36,6.72C259.096,132.14,258.926,140.59,258.086,148.8z"/>
								<polygon style="fill:#E57873;" points="242.386,137.61 235.116,150.73 244.876,162.55 258.556,146.5 								"/>
							</g>
							<g>
								<path id="XMLID_149_" style="fill:#E57873;" d="M254.986,93.75c-0.55,2,1.35,4.24,4.24,5.01c2.9,0.76,5.69-0.25,6.24-2.25
									c0.55-2-1.35-4.24-4.24-5.01C258.336,90.73,255.536,91.74,254.986,93.75z"/>
								<path id="XMLID_148_" style="fill:#FDA68A;" d="M270.896,108.9c8.65-0.89,17.5-11.96,16.57-22.26
									c-0.21-2.34-0.85-4.46-1.81-6.32c-3.07-5.95-9.45-9.15-15.57-7.96c-0.35,0.06-0.69,0.14-1.03,0.24
									c-3.91,1.09-6.98,2.29-8.85,5.02l-0.01,0.01c-1.49,2.16-2.21,5.29-2,10.08c0.08,2.05,0.35,4.4,0.8,7.11
									C260.356,103.12,264.756,109.53,270.896,108.9z"/>
								<g>
									<path id="XMLID_145_" style="fill:#474E54;" d="M272.136,95.12c0,0.68,0.34,1.24,0.76,1.24c0.42,0,0.76-0.55,0.76-1.24
										c0-0.68-0.34-1.24-0.76-1.24C272.476,93.88,272.136,94.44,272.136,95.12z"/>
									<path id="XMLID_144_" style="fill:#474E54;" d="M261.637,93.56c0.419-0.026,0.793,0.507,0.835,1.191
										c0.042,0.684-0.263,1.259-0.682,1.285c-0.419,0.026-0.793-0.507-0.835-1.191C260.912,94.161,261.218,93.586,261.637,93.56z
										"/>
									
										<path id="XMLID_143_" style="fill:none;stroke:#322723;stroke-linecap:round;stroke-linejoin:round;stroke-miterlimit:10;" d="
										M262.586,89.14c-1.14-0.49-2.51-0.43-3.6,0.17"/>
									
										<path id="XMLID_142_" style="fill:none;stroke:#322723;stroke-linecap:round;stroke-linejoin:round;stroke-miterlimit:10;" d="
										M276.446,89.5c-1.7-0.87-3.76-1.01-5.57-0.39"/>
									
										<path id="XMLID_141_" style="fill:none;stroke:#D85B5B;stroke-linecap:round;stroke-linejoin:round;stroke-miterlimit:10;" d="
										M265.096,93.57c-0.12,0.8-1.29,3.94-1.15,4.73c0.15,0.8,0.92,1.32,1.62,1.74"/>
									
										<path id="XMLID_140_" style="fill:none;stroke:#D85B5B;stroke-linecap:round;stroke-linejoin:round;stroke-miterlimit:10;" d="
										M267.106,102.61c2.72,0.56,5.08-0.15,6.91-2.57"/>
								</g>
								<g>
									<path style="fill:#322723;" d="M288.716,83.5c0.62,2.96,0.06,5.13-0.86,7.82c-0.68,0.87-1.37,1.74-2.11,2.4
										c-2.66-2.43-5.37-6.38-5.99-10.23c-7.23-0.48-13.7-0.47-20.91,0.03c0.03,0,0.04,0,0.06,0.03c-0.5,2.64-0.48,7.09-0.24,9.77
										c-1.09-1.61-2.06-6.02-2.44-10.23c-0.57-0.29-1.29-1-1.64-2.14c-0.21-0.66-0.3-1.45-0.17-2.38
										c0.22-1.57,2.14-3.16,3.45-2.94c-0.52-1.77,0.06-3.82,1.45-5.04c1.38-1.22,3.49-1.55,5.18-0.81c0.9-1.77,2.64-3.1,4.59-3.5
										c1.95-0.4,4.07,0.14,5.59,1.42c1.21-1.46,3.32-2.1,5.13-1.55c1.13,0.35,2.1,1.15,2.71,2.16c0.37,0.61,0.6,1.29,0.66,2
										c1.68-0.11,3.38,0.78,4.26,2.2c0.88,1.43,0.89,3.35,0.04,4.8c1.34,0.26,2.45,1.43,2.65,2.78
										C290.326,81.43,289.596,82.87,288.716,83.5z"/>
									<path style="fill:#453934;" d="M282.516,68.31c-0.98-0.49-2.11-0.66-3.18-0.45c-1.75,0.35-3.26,1.7-3.89,3.42
										c-1.48-1.39-3.65-2.01-5.63-1.6c-1.99,0.4-3.74,1.82-4.25,3.68c-1.05-0.39-2.22-0.55-3.31-0.32
										c-1.1,0.24-2.13,0.91-2.66,1.91c-0.52,0.99-0.47,2.31,0.42,2.95c-2.11,0.2-4.12,1.31-5.4,3c-0.01,0.01-0.03,0.03-0.03,0.04
										c-0.21-0.66-0.3-1.45-0.17-2.38c0.22-1.57,2.14-3.16,3.45-2.94c-0.52-1.77,0.06-3.82,1.45-5.04
										c1.38-1.22,3.49-1.55,5.18-0.81c0.9-1.77,2.64-3.1,4.59-3.5c1.95-0.4,4.07,0.14,5.59,1.42c1.21-1.46,3.32-2.1,5.13-1.55
										C280.936,66.49,281.906,67.3,282.516,68.31z"/>
								</g>
								<path id="XMLID_134_" style="fill:#FDA68A;" d="M281.616,95.97c0.87,1.88,3.79,2.4,6.52,1.16c2.73-1.24,4.24-3.77,3.37-5.66
									c-0.87-1.88-3.79-2.4-6.52-1.16C282.256,91.55,280.746,94.08,281.616,95.97z"/>
							</g>
							<path style="fill:#DE684E;" d="M300.846,124.62c-4.83-5.45-8.79-7.61-13.43-10.65c-5.39,2.88-10.14,9.96-15.38,9.57
								c-3.47-0.26-6.41-5.28-6.23-10.65c-5.17,1.85-7.37,2.69-12.63,5.25c-1.32,10.71-1.86,20.97-1.35,30.81
								c-3.22,5.36-8.36,11.72-12.37,16.96c7.45,1.04,14.8,2.8,21.91,5.24c4.03,1.39,8.04,3.02,11.42,5.63
								c3.37,2.61,6.77,6.23,7.39,10.44C295.906,171.49,300.846,147.52,300.846,124.62z"/>
							<g>
								<g>
									<g>
										<path style="fill:#FDA68A;" d="M261.926,148.56c-1.84-3.22-10.19-12.31-11.86-12.61c-1.6-0.29-6.9,0.63-8.19,1.72
											c-1.01,0.86-2.97,3.48-2.97,5.24c0,0.7,0.94,1.09,1.65,0.6c0.94-0.64,1.07-2.39,2.73-3.31c1.11-0.62,1.78-0.62,3.13-0.73
											c-1,0.63-2.06,1.29-2.74,2.26c-1.37,1.94-3.06,4.55-1.85,5.21c1.44,0.79,2.21-2.01,3.41-3.11
											c1.77-1.61,2.49-1.68,2.49-1.68s-1.66,2.94-2.68,4.91c-0.37,0.71-0.85,1.66-0.15,2.48c0.32,0.37,1.56-0.09,2.03-0.7
											c-0.13,0.52,0.28,1.1,0.81,1.16c0.43,0.04,0.87-0.15,1.17-0.46c1.62-1.74,1.95-2.21,2.83-0.65
											c0.71,2.89,2.14,4.18,2.14,4.18c1.25,1.39,2.35,2.04,4.77,2.26C259.546,153.12,261.086,150.66,261.926,148.56z"/>
									</g>
									<path style="fill:#FDA68A;" d="M303.656,138.41c-1.25,3.72-2.32,7.02-3.33,9.97c-1.62,4.76-3.06,8.65-4.7,12.12
										c-1.61,3.43-3.43,6.44-5.81,9.45c-3.71,4.67-4.95,4.61-11,1.31c-8.51-4.63-14.96-9.1-21.62-16.35
										c0.92-3.4,0.83-5.62,2.81-8.96c6.55,4.45,15.27,8.43,22.53,11.11c0.81-2.42,1.42-4.25,1.96-5.88
										c1.25-3.74,2.14-6.43,4.27-12.78c0.87,0.29,1.67,0.43,2.43,0.47C295.986,139.08,298.946,135.02,303.656,138.41z"/>
									<path style="fill:#E57873;" d="M300.326,148.38c-1.62,4.76-3.06,8.65-4.7,12.12c-3.13-3.71-6.91-6.9-11.14-9.31
										c1.25-3.74,2.14-6.43,4.27-12.78c0.87,0.29,1.67,0.43,2.43,0.47c0.35,0.26,0.67,0.56,0.98,0.85
										C294.996,142.5,297.726,145.38,300.326,148.38z"/>
								</g>
								<g>
									<path style="fill:#DE684E;" d="M288.216,128.33c1.8-3.08,4.69-5.4,7.43-8.01c1.1,0.76,2.03,1.35,2.93,1.96
										c2.85,1.96,4.67,5.12,4.92,8.56c0.62,8.6-0.63,16.49-2.64,25.65c-5.98-2.01-11.35-4-18.25-6.57
										C283.436,142.69,285.876,132.32,288.216,128.33z"/>
									<g>
										<path style="fill:none;stroke:#B34539;stroke-linecap:round;stroke-miterlimit:10;" d="M293.936,125.96
											c-2.89,2.2-5.23,5.72-6.96,10.69c-1.9,5.49-2.3,8.38-3.14,13.58"/>
										<path style="fill:none;stroke:#B34539;stroke-linecap:round;stroke-miterlimit:10;" d="M282.216,131.96
											c-0.51,5.51,0.11,11.13,1.81,16.4"/>
									</g>
								</g>
							</g>
							<g>
								<g>
									<polygon style="fill:#545352;" points="259.376,161.74 259.996,160.03 239.286,146.03 238.656,150.57 									"/>
									<polygon style="fill:#333231;" points="240.776,148.96 259.376,161.74 212.826,152.06 202.896,144.1 									"/>
								</g>
								<g>
									<g>
										<polygon style="fill:#6E6C69;" points="191.896,110.28 193.526,109.1 233.536,109.82 241.966,147.21 240.526,148.98 
																					"/>
										<polygon style="fill:#494846;" points="191.896,110.28 231.916,111.27 240.526,148.98 201.106,145.28 										"/>
									</g>
									<path style="fill:#6E6C69;" d="M208.928,129.652c0.161-1.987,2.974-3.38,6.282-3.112c3.308,0.269,5.859,2.097,5.698,4.084
										c-0.161,1.987-2.974,3.38-6.282,3.112C211.318,133.467,208.766,131.639,208.928,129.652z"/>
								</g>
							</g>
							<g>
								<path style="fill:#FDA68A;" d="M186.196,197.76c-0.08,1.93-0.39,4.1-1.58,6.92c-3.66,4.1-7.32,8.2-10.99,12.3
									c-0.68,0.76-1.36,1.53-1.76,2.47c-0.4,0.94-0.43,2.08,0.15,2.91c0.9,1.29,2.78,1.31,4.33,1.06
									c6.24-0.99,12.12-4.16,16.24-8.57c1.33-0.96,2.99-1.28,4.55-1.79c1.55-0.51,3.16-1.35,3.82-2.85
									c0.51-1.17,0.34-2.56-0.26-3.69c-0.6-1.13-1.56-2.02-2.63-2.71c-0.81-2.42,0.71-5.93,0.85-8.32
									C194.966,196.14,190.526,196.79,186.196,197.76z"/>
								<g>
									<path style="fill:#D89F82;" d="M245.056,159.11c-12.51-10.03-42.62-25.49-49.49-19.11
										c-12.04,11.17-11.63,61.88-12.31,61.57c7.18,1.4,11.36,0.3,16.8-2.18c1.11-9.8,3.48-26.29,5.9-34.67
										c13.42,5.1,20,9.38,28.01,15.73c-21.67,9.82-46.5,29.4-67.9,45.71c2.86,3.32,5.06,7.7,5.64,12.5
										c26.92-13.77,52.61-25.38,81.54-35.23c9.45-3.22,22.1-8.12,27.94-17.01c0.39-5.52-8.95-16.14-14.4-19.3
										C262.116,164.41,257.886,161.28,245.056,159.11z"/>
									<g>
										<path style="fill:none;stroke:#B37664;stroke-linecap:round;stroke-miterlimit:10;" d="M206.396,163.69
											c1-3.39,1.18-7.03,0.52-10.51"/>
										<path style="fill:none;stroke:#B37664;stroke-linecap:round;stroke-miterlimit:10;" d="M207.696,163.13
											c2.26-2.39,3.56-5.67,3.43-8.78c1.51,1.36,1.65,3.79,0.83,5.65c-0.82,1.86-2.39,3.28-3.97,4.56"/>
										<path style="fill:none;stroke:#B37664;stroke-linecap:round;stroke-miterlimit:10;" d="M260.086,163.99
											c-6.58,0.84-12.84,4.01-17.4,8.83"/>
										<path style="fill:none;stroke:#B37664;stroke-linecap:round;stroke-miterlimit:10;" d="M263.516,165.75
											c-2.84,0.16-5.63,1.06-8.02,2.58c-0.89,0.57-1.81,1.24-2.87,1.27c-1.34,0.03-2.45-0.99-3.4-1.94"/>
										<path style="fill:none;stroke:#B37664;stroke-linecap:round;stroke-miterlimit:10;" d="M280.526,183.7
											c-13.28,12.71-31.71,18.1-49.02,24.29c-19.97,7.14-39.73,16.1-58.32,26.31"/>
										<path style="fill:none;stroke:#B37664;stroke-linecap:round;stroke-miterlimit:10;" d="M278.276,179.62
											c-1.68,0.92-3.29,2.1-4.25,3.75c-0.96,1.65-1.16,3.86-0.09,5.44"/>
										<path style="fill:none;stroke:#B37664;stroke-linecap:round;stroke-miterlimit:10;" d="M277.156,178.65
											c-2.02,1.13-3.92,2.64-4.92,4.72s-0.87,4.83,0.78,6.44"/>
										<path style="fill:none;stroke:#B37664;stroke-linecap:round;stroke-miterlimit:10;" d="M168.456,225.18
											c3.07,3.19,4.94,7.51,5.16,11.93"/>
										<path style="fill:none;stroke:#B37664;stroke-linecap:round;stroke-miterlimit:10;" d="M184.146,199.31
											c5.4,1.15,11.21,0.23,15.98-2.55"/>
									</g>
								</g>
							</g>
						</g>
						<g>
							<path style="fill:#E8D6CF;" d="M290.456,167.44c1.47-4.15,2.44-7.1,7.21-10.08c7.89-1.7,17.64-2.98,25.42-2.24
								c3.2,0.83,5.7,3.72,7.06,7c1.36,3.27,1.73,6.92,1.98,10.5c1.29,18.64,0.95,36.99-3.07,54.33
								c-5.98,3.05-13.83,6.64-19.82,4.89C303.526,210.5,297.826,189.16,290.456,167.44z"/>
							<path style="fill:#EDE0DA;" d="M283.946,230.54c-1.54-18.83-3.04-38.05,1.5-56.39c1.16-4.69,2.81-9.44,6.13-12.96
								c3.32-3.51,8.68-5.48,13.14-3.62c5.51,2.3,7.46,9,8.41,14.9c3.26,20.06,2.85,40.71-0.88,60.21
								C302.856,231.46,293.466,230.24,283.946,230.54z"/>
						</g>
					</g>
				</g>
			</g>
		</g>
	</g>
	<g>
		<path style="fill:#ecfeff;" d="M18.133,248.27c-35.9,9.46-68.62,34.15-89.69,66.74s-26.13,79.3-4.43,111.41
			c15.37,22.75,40.99,34.73,66.18,42.48c70.52,21.7,145.74,18.03,218.34,6.63c25.21-3.96,50.55-8.91,73.96-19.68
			c23.41-10.78,44.98-27.92,57.62-51.64c12.65-23.74,15.39-53.3,7.35-79.25c-6.33-20.41-19.68-38.89-38.02-47.62
			c-27.76-13.23-59.75-2.44-90.13-2.05c-33.94,0.43-66.61-12.41-99.17-22.69C87.573,242.31,63.613,236.28,18.133,248.27z"/>
		<g>
			<g>
				<ellipse style="fill:#D6BFB7;" cx="204.693" cy="445.61" rx="117" ry="16.97"/>
				<ellipse style="fill:#E7D6CF;" cx="204.693" cy="444.44" rx="41.83" ry="4.85"/>
				
					<ellipse style="fill:none;stroke:#E7D6CF;stroke-width:3;stroke-miterlimit:10;" cx="204.693" cy="444.44" rx="87.9" ry="10.19"/>
			</g>
			<g>
				<g>
					<g>
						<g>
							<path style="fill:#F37B62;" d="M195.833,303.68L195.833,303.68c0-3.04,2.46-5.5,5.5-5.5h52.5v11h-52.5
								C198.293,309.18,195.833,306.72,195.833,303.68z"/>
							<path style="fill:#E0CEB6;" d="M253.833,299.43v8.5h-38c-0.97,0-1.88-0.33-2.6-0.89c-1-0.77-1.65-1.99-1.65-3.36
								c0-2.34,1.9-4.25,4.25-4.25H253.833z"/>
							<path style="fill:#EDE1CA;" d="M253.833,300.18v7.75h-38c-0.97,0-1.88-0.33-2.6-0.89c-0.56-0.72-0.9-1.62-0.9-2.61
								c0-2.34,1.9-4.25,4.25-4.25H253.833z"/>
						</g>
						<g>
							<path style="fill:#95B9DB;" d="M189.833,293.56L189.833,293.56c0-3.04,2.46-5.5,5.5-5.5h52.5v11h-52.5
								C192.293,299.06,189.833,296.6,189.833,293.56z"/>
							<path style="fill:#E0CEB6;" d="M247.833,289.3v8.5h-38c-0.97,0-1.88-0.33-2.6-0.89c-1-0.77-1.65-1.99-1.65-3.36
								c0-2.34,1.9-4.25,4.25-4.25H247.833z"/>
							<path style="fill:#EDE1CA;" d="M247.833,290.05v7.75h-38c-0.97,0-1.88-0.33-2.6-0.89c-0.56-0.72-0.9-1.62-0.9-2.61
								c0-2.34,1.9-4.25,4.25-4.25H247.833z"/>
						</g>
						<g>
							<path style="fill:#D89F82;" d="M192.333,282.56L192.333,282.56c0-3.04,2.46-5.5,5.5-5.5h52.5v11h-52.5
								C194.793,288.06,192.333,285.6,192.333,282.56z"/>
							<path style="fill:#E0CEB6;" d="M250.333,278.3v8.5h-38c-0.97,0-1.88-0.33-2.6-0.89c-1-0.77-1.65-1.99-1.65-3.36
								c0-2.34,1.9-4.25,4.25-4.25H250.333z"/>
							<path style="fill:#EDE1CA;" d="M250.333,279.05v7.75h-38c-0.97,0-1.88-0.33-2.6-0.89c-0.56-0.72-0.9-1.62-0.9-2.61
								c0-2.34,1.9-4.25,4.25-4.25H250.333z"/>
						</g>
					</g>
					<g>
						<g>
							<g>
								<path style="fill:#548567;" d="M158.543,297.21c-1.84-6.73-2.63-13.67-2.34-20.58c0.18-4.31,1.02-9.03,4.82-11.88
									c2.24-1.68,5.38-2.47,8.31-2.03c2.94,0.44,5.59,2.14,6.83,4.45c1.25,2.33,1.04,5.02,0.77,7.57
									c-0.83,7.98-1.94,15.93-3.32,23.86"/>
								<path style="fill:none;stroke:#385E4C;stroke-width:0.5;stroke-linecap:round;stroke-miterlimit:10;" d="M167.123,263.56
									c-7.09,3.59-6.91,19.29-4.23,33.12"/>
								<path style="fill:none;stroke:#385E4C;stroke-width:0.5;stroke-linecap:round;stroke-miterlimit:10;" d="M169.133,263.56
									c5.16,6.14,1.37,18.25-0.71,35.74"/>
							</g>
							<g>
								<path style="fill:#649E72;" d="M171.553,297.43c-0.35-4.93,0.03-9.91,1.13-14.72c0.4-1.77,0.99-3.65,2.45-4.72
									c1.69-1.23,4.18-0.95,5.83,0.33c1.65,1.29,2.51,3.38,2.7,5.46c0.19,2.08-0.23,4.17-0.76,6.19
									c-0.9,3.46-2.11,6.83-3.62,10.06"/>
								<g>
									<path style="fill:none;stroke:#477D5D;stroke-width:0.5;stroke-linecap:round;stroke-miterlimit:10;" d="M177.893,277.81
										c-3.95,1.3-4.76,12.3-4.76,20"/>
									<path style="fill:none;stroke:#477D5D;stroke-width:0.5;stroke-linecap:round;stroke-miterlimit:10;" d="M179.503,278.14
										c3.19,2.67,0.37,13.94-2.49,21.09"/>
								</g>
							</g>
							<g>
								<path style="fill:#649E72;" d="M159.473,296.39c-0.93-6.2-2.03-12.38-3.31-18.52c-0.15-0.7-0.3-1.42-0.72-2
									c-0.71-0.99-2.05-1.35-3.27-1.28c-2.69,0.15-5.16,2.2-5.81,4.81c-0.46,1.84-0.07,3.78,0.39,5.62
									c1.13,4.55,2.66,9.01,4.58,13.29"/>
								<g>
									<path style="fill:none;stroke:#477D5D;stroke-width:0.5;stroke-linecap:round;stroke-miterlimit:10;" d="M150.003,275.49
										c-3.51,3.93,0.2,14.51,3.16,22.17"/>
									<path style="fill:none;stroke:#477D5D;stroke-width:0.5;stroke-linecap:round;stroke-miterlimit:10;" d="M151.133,274.99
										c4.61,1.98,4.22,15.17,6.42,21.66"/>
								</g>
							</g>
						</g>
						<g>
							<path style="fill:#F5C47F;" d="M186.983,293.51c0,0-0.2,4.99-2.95,9.99c0,0,0,0-0.01,0.01c-2.78,5.04-8.16,10.08-18.54,10
								c-21.73,0-21.5-20-21.5-20H186.983z"/>
							<path style="fill:#FFD791;" d="M186.983,293.51c0,0-0.2,4.99-2.95,9.99c0,0,0,0-0.01,0.01c-3.15,2-7.91,3.41-15.04,3.35
								c-15.65,0-20.17-8.56-21.47-13.35H186.983z"/>
						</g>
					</g>
				</g>
				<g>
					<g>
						<polygon style="fill:#2C3147;" points="269.363,406.57 269.363,393.13 278.203,393.13 275.913,406.57 						"/>
						<polygon style="fill:#2C3147;" points="140.013,406.57 140.013,393.13 131.183,393.13 133.473,406.57 						"/>
					</g>
					<polygon style="fill:#5B6D93;" points="128.473,399.61 123.233,316.15 282.843,316.15 280.233,398.54 					"/>
					<polygon style="fill:#6F85A8;" points="119.713,316.15 117.693,308.75 291.693,308.31 290.003,316.15 					"/>
					<g>
						<polygon style="fill:#6F85A8;" points="139.523,353.34 137.553,324.78 272.963,325.65 271.003,353.1 						"/>
						<path style="fill:#2C3147;" d="M195.293,330.33V330c0-0.76,0.62-1.38,1.38-1.38h21.45c0.76,0,1.38,0.62,1.38,1.38v0.33
							c0,0.76-0.62,1.38-1.38,1.38h-21.45C195.903,331.71,195.293,331.09,195.293,330.33z"/>
					</g>
					<g>
						<polygon style="fill:#6F85A8;" points="143.523,389.52 139.843,363.32 270.673,362.49 268.463,390.5 						"/>
						<path style="fill:#2C3147;" d="M196.323,367.29v-0.33c0-0.76,0.62-1.38,1.38-1.38h20.47c0.76,0,1.38,0.62,1.38,1.38v0.33
							c0,0.76-0.62,1.38-1.38,1.38h-20.47C196.933,368.66,196.323,368.05,196.323,367.29z"/>
					</g>
				</g>
			</g>
			<g>
				<g>
					<g>
						<path style="fill:none;stroke:#365E47;stroke-miterlimit:10;" d="M-43.367,266.4c12.99,32.86,18.59,68.78,16.25,104.16"/>
						<path style="fill:none;stroke:#365E47;stroke-miterlimit:10;" d="M-22.667,376.96c-4.2-33.05-1.41-67.03,8.13-98.88"/>
						<path style="fill:none;stroke:#365E47;stroke-miterlimit:10;" d="M-29.477,378.21c1.29-18.48-2.2-37.29-10.03-53.98"/>
						<path style="fill:none;stroke:#365E47;stroke-miterlimit:10;" d="M-18.647,383.01c-2.26-16.6-0.31-33.79,5.62-49.4"/>
					</g>
					<g>
						<g>
							<path style="fill:#649E72;" d="M-9.077,329.64c-2.78-3.27-7.87-3.88-11.51-1.71c-3.64,2.17-5.7,6.72-5.43,11.07
								c0.27,4.36,2.68,8.42,6.05,11.02c4.04,3.13,9.16,4.22,13.91,5.98s9.62,4.71,11.28,9.67c2.33-4.78,5.66-8.96,8.31-13.56
								c2.64-4.6,4.63-9.95,3.84-15.25c-0.82-5.52-4.86-10.38-9.99-12.02C2.253,323.2-3.707,324.87-9.077,329.64z"/>
							<path style="fill:none;stroke:#477D5D;stroke-width:0.5;stroke-linecap:round;stroke-miterlimit:10;" d="M-8.017,330.37
								c9.01,7.27,13.43,19.7,13.43,32.41"/>
							<path style="fill:none;stroke:#477D5D;stroke-width:0.5;stroke-linecap:round;stroke-miterlimit:10;" d="M-21.367,346.93
								c0.36-3.86,2.11-7.56,4.83-10.25c2.72-2.68,6.39-4.33,10.16-4.54"/>
							<path style="fill:none;stroke:#477D5D;stroke-width:0.5;stroke-linecap:round;stroke-miterlimit:10;" d="M-5.677,354.83
								c0.48-5.01,2.65-9.82,6.06-13.43"/>
							<path style="fill:none;stroke:#477D5D;stroke-width:0.5;stroke-linecap:round;stroke-miterlimit:10;" d="M16.503,341.46
								c-1.7-3.48-4.82-6.21-8.44-7.36s-7.69-0.72-11.01,1.16"/>
							<path style="fill:none;stroke:#477D5D;stroke-width:0.5;stroke-linecap:round;stroke-miterlimit:10;" d="M10.093,355.74
								c-1.49-1.62-3.51-2.72-5.65-3.08"/>
						</g>
						<g>
							<path style="fill:#649E72;" d="M-37.547,317.23c-3.39-5.09-9.9-7.22-15.19-4.98c-5.84,2.48-9.42,9.42-10.32,16.37
								c-0.9,6.95,0.41,13.99,1.72,20.85c5.69-3.54,11.73-6.37,17.96-8.43c3.58-1.18,7.24-2.12,10.64-3.86
								c3.39-1.74,6.57-4.4,8.24-8.14c1.67-3.74,1.55-8.69-0.98-11.77C-28.007,314.19-33.047,313.94-37.547,317.23z"/>
							<path style="fill:none;stroke:#477D5D;stroke-width:0.5;stroke-linecap:round;stroke-miterlimit:10;" d="M-60.797,348.21
								c1.93-6.28,4.42-12.44,8.07-17.86c3.65-5.42,8.53-10.07,14.41-12.7"/>
							<path style="fill:none;stroke:#477D5D;stroke-width:0.5;stroke-linecap:round;stroke-miterlimit:10;" d="M-24.287,326.71
								c-0.62-2.59-2.58-4.71-4.91-5.87c-2.34-1.16-5.01-1.44-7.6-1.23c-2.59,0.21-5.11,1.09-7.62,1.76"/>
							<path style="fill:none;stroke:#477D5D;stroke-width:0.5;stroke-linecap:round;stroke-miterlimit:10;" d="M-42.427,319.84
								c-1.42-2.13-3.49-3.78-5.85-4.67c-2.36-0.88-4.98-0.99-7.4-0.31"/>
							<path style="fill:none;stroke:#477D5D;stroke-width:0.5;stroke-linecap:round;stroke-miterlimit:10;" d="M-38.487,337.99
								c-0.42-2.89-1.79-5.62-3.84-7.64c-2.05-2.02-4.76-3.31-7.59-3.62"/>
							<path style="fill:none;stroke:#477D5D;stroke-width:0.5;stroke-linecap:round;stroke-miterlimit:10;" d="M-62.537,334.98
								c0.28-2.4,1.76-4.63,3.84-5.77c2.08-1.14,4.7-1.17,6.8-0.08"/>
							<path style="fill:none;stroke:#477D5D;stroke-width:0.5;stroke-linecap:round;stroke-miterlimit:10;" d="M-52.597,343.5
								c-0.16-2.61-1.72-5.09-3.98-6.29"/>
							<path style="fill:none;stroke:#477D5D;stroke-width:0.5;stroke-linecap:round;stroke-miterlimit:10;" d="M-61.647,342.63
								c1.01-1.01,2.27-1.76,3.62-2.17"/>
						</g>
						<g>
							<path style="fill:#649E72;" d="M-15.807,274.72c-4.51-0.7-9.39,1.73-11.43,5.93c-2.04,4.2-0.9,9.83,2.75,12.66
								c3.18,2.46,7.45,2.62,11.43,2.66c4.7,0.05,9.44,0.07,14.03,1.1s9.09,3.14,12.2,6.76c0.88-12.31-6.03-24.83-16.75-30.39
								c-1.98-1.03-4.16-1.84-6.37-1.7C-12.177,271.88-14.437,273.19-15.807,274.72z"/>
							<path style="fill:none;stroke:#477D5D;stroke-width:0.5;stroke-linecap:round;stroke-miterlimit:10;" d="M12.873,302.65
								c-1.67-6.82-5.27-13.14-10.24-17.97c-4.97-4.84-11.31-8.18-18.03-9.51"/>
							<path style="fill:none;stroke:#477D5D;stroke-width:0.5;stroke-linecap:round;stroke-miterlimit:10;" d="M-24.527,291.41
								c1.51-6.73,6.33-12.58,12.53-15.22"/>
							<path style="fill:none;stroke:#477D5D;stroke-width:0.5;stroke-linecap:round;stroke-miterlimit:10;" d="M-7.547,295.16
								c-0.92-5.28,1.25-11,5.41-14.24"/>
							<path style="fill:none;stroke:#477D5D;stroke-width:0.5;stroke-linecap:round;stroke-miterlimit:10;" d="M7.123,297.91
								c-0.94-2.18-0.62-4.87,0.81-6.75"/>
							<path style="fill:none;stroke:#477D5D;stroke-width:0.5;stroke-linecap:round;stroke-miterlimit:10;" d="M9.343,287.47
								c-1.17-0.8-2.76-0.88-4-0.22"/>
							<path style="fill:none;stroke:#477D5D;stroke-width:0.5;stroke-linecap:round;stroke-miterlimit:10;" d="M-3.367,274.43
								c-1.64,0.36-3.06,1.64-3.6,3.27"/>
						</g>
						<g>
							<path style="fill:#649E72;" d="M-40.757,263.81c3.5-0.9,7.21,2.13,7.83,5.78c0.62,3.65-1.36,7.41-4.27,9.6
								s-6.6,3.02-10.2,3.21c-3.6,0.19-7.21-0.19-10.82-0.18c-7.7,0.04-15.39,1.95-22.25,5.54c2.47-7.99,7.63-15.08,14.39-19.78
								C-59.297,263.3-50.977,261.03-40.757,263.81z"/>
							<path style="fill:none;stroke:#477D5D;stroke-width:0.5;stroke-linecap:round;stroke-miterlimit:10;" d="M-46.537,263.13
								c4.1,4.54,6.05,11.04,5.14,17.16"/>
							<path style="fill:none;stroke:#477D5D;stroke-width:0.5;stroke-linecap:round;stroke-miterlimit:10;" d="M-55.137,281.89
								c0.15-5.93-2.71-11.85-7.39-15.31"/>
							<path style="fill:none;stroke:#477D5D;stroke-width:0.5;stroke-linecap:round;stroke-miterlimit:10;" d="M-69.877,283.11
								c0.19-2.96-1.08-5.98-3.3-7.88"/>
						</g>
					</g>
				</g>
				<g>
					<polygon style="fill:#F5C47F;" points="12.283,365.7 1.233,416.51 -0.227,423.2 -50.027,423.2 -60.577,365.7 					"/>
					<path style="fill:#FFD791;" d="M12.283,365.7l-11.05,50.81h-36.29c-5.26,0-9.82-4.48-10.97-10.79l-7.34-40.02H12.283z"/>
				</g>
			</g>
			<g>
				<g>
					<path style="fill:#D89F82;" d="M146.913,423.99c-5.2,7.16-11.73,12.37-18.83,16.27c-5.58,3.05-11.49,5.29-17.41,7
						c-7.99,2.31-17.94,3.93-28.63,4.59c-28.95,1.8-63.38-3.43-79.36-21.13c-17.29-19.12-23.09-44.19-7.74-80.91
						c4.98-11.91,12.19-25.04,21.95-39.61c15.3-22.81,47.79-37.96,74.47-22.45c15.23,8.85,20.59,20.67,20.18,34.51
						c-0.42,13.84,6.48,24.52,15.51,31.3c0.5,0.37,1,0.74,1.51,1.1c8.66,6.27,18.31,11.49,23.74,21.88
						C159.813,390.97,156.173,411.24,146.913,423.99z"/>
					<g>
						<path style="fill:#C98B73;" d="M152.293,376.57c-5.43-10.39-15.08-15.61-23.74-21.88c-8.27-3.08-15.98-7.74-19.74-15.49
							c-3.83-7.91-2.67-17.38-5.6-25.67c-4.35-12.33-19.98-24.51-31.97-18.21c-29.12,15.29-48.03,48.21-46.55,81.07
							c0.45,10.36,3.31,21.48,11.53,27.78c6.66,5.1,15.52,6.07,23.89,6.53c17.08,0.95,34.24,0.61,51.27-1.01
							c4.91-0.48,9.96-1.03,14.66,0.44c4.7,1.48,8.95,5.61,8.86,10.54c-0.09,4.63-3.8,8.32-7.47,11.13
							c-7.06,5.44-15.5,9.11-24.03,11.33c-21.6,5.62-43.76,2.73-65.27-3.26c-13.05-3.63-26.12-9.14-35.2-19.19
							c-11.59-12.8-15.01-31.36-13.04-48.5c0.88-7.62,2.7-15.05,5.05-22.35c-15.36,36.72-9.56,61.78,7.74,80.91
							c15.98,17.7,50.41,22.93,79.36,21.13c10.69-0.66,20.64-2.28,28.63-4.59c0.77-0.22,1.54-0.46,2.3-0.7
							c0.43-0.14,0.86-0.28,1.3-0.42c0.34-0.11,0.68-0.22,1.01-0.34c0.48-0.16,0.95-0.33,1.42-0.5c0.3-0.11,0.59-0.21,0.89-0.32
							c0.49-0.18,0.97-0.37,1.46-0.56c0.28-0.11,0.56-0.22,0.84-0.33c0.49-0.2,0.98-0.4,1.46-0.6c0.28-0.12,0.56-0.24,0.84-0.37
							c0.48-0.21,0.95-0.42,1.43-0.64c0.3-0.14,0.61-0.29,0.91-0.43c0.44-0.21,0.89-0.42,1.32-0.64c0.48-0.24,0.95-0.49,1.43-0.74
							c0.26-0.14,0.52-0.27,0.77-0.41c0.01,0,0.01-0.01,0.02-0.01l0,0c7.11-3.9,13.65-9.12,18.84-16.27
							C156.173,411.24,159.813,390.97,152.293,376.57z"/>
					</g>
				</g>
				<g>
					<g>
						<path style="fill:#E57873;" d="M182.663,425.38c1.36,0.9,4.16,6.02,8.58,8.21c3.14,1.55,10.72,1.05,20.52,2.48
							c0.76,0.11,1.57,0.24,2.18,0.71c1.14,0.89,1.15,2.71,0.37,3.93c-0.77,1.22-2.12,1.94-3.42,2.55
							c-8.97,4.25-18.39,4.16-20.31,4.85c-2.6,0.95-4.19,3.13-6.95,2.94c-2.4-0.16-3.95-2.57-4.49-4.91
							c-0.59-2.57-0.65-3.51-1.32-5.67c-4.47-4.67-6.36-8.12-6.05-12.58C175.603,426.17,177.563,427.44,182.663,425.38z"/>
						<path style="fill:#3B3A38;" d="M88.583,360.6c18.45,1.04,54.37,4.65,59.92,7.04c7.95,3.41,29.75,37.71,42.97,59.83
							c-5,4.48-10.51,8.39-15.91,11.44c-10.62-14.85-22.01-29.14-33.23-41.67c-20.51-4.22-41.4-6.58-62.34-7.03
							C78.943,380.65,79.703,368.78,88.583,360.6z"/>
					</g>
					<g>
						<path style="fill:#6B393A;" d="M69.493,257.21c-4.63,4.63-5.5,15.67-5.21,21.53c0.29,5.86,0.38,12.29-3.23,16.91
							c-2.33,2.99-5.89,4.75-8.6,7.4c-5.46,5.36-6.79,14.18-3.94,21.28c2.84,7.1,9.38,12.38,16.7,14.6
							c7.32,2.21,15.31,1.56,22.56-0.88c7.21-2.43,14.45-7.49,15.69-14.99c1.34-8.09-4.71-15.74-4.62-23.94
							c0.06-4.87,2.27-9.41,4.05-13.94c1.78-4.53,4.1-18.93,2.09-20.56c-4.68-3.8-8.63-2.61-14.54-3.8
							C84.543,259.64,80.523,255.41,69.493,257.21z"/>
						<g>
							<path style="fill:#FDA68A;" d="M191.313,425.38c2.69,2.09,5.38,4.18,8.12,6.08c9.49-2.83,8.83-2.15,18.32-4.99
								c0.74-0.22,1.52-0.44,2.27-0.27c1.41,0.32,2.18,1.97,1.99,3.41c-0.19,1.44-1.1,2.65-2.02,3.76
								c-6.34,7.64-14.93,11.53-16.37,12.97c-1.96,1.96-2.48,4.6-5.06,5.6c-2.24,0.87-4.85-0.54-6.14-2.56
								c-1.29-2.03-1.59-4.51-1.71-6.2c-2.91-2.76-6.13-5.2-8.67-7.4C184.803,432.58,187.553,429.39,191.313,425.38z"/>
							<path style="fill:#494846;" d="M51.153,353.99c-2.7,6.93-6.84,11.68-7.65,25.42c-0.82,13.8,8.58,24.3,24.64,26.28
								c18.54,2.29,38.47-1.82,56.63-2.06c3.06-0.04,6.04,0.9,8.56,2.64c19.31,13.36,32.41,24.84,52.03,36.86
								c1.92-5.41,3.46-10.43,9.63-16.22c-19.12-19.97-33.46-30.4-54.39-47.51c-2.78-2.27-6.18-3.7-9.77-3.99
								c-13.71-1.14-28.16,0.13-41.04-2.67c0.93-4.24,2.65-13.86,2.17-17.4C77.943,353.48,64.473,350.14,51.153,353.99z"/>
						</g>
						<g>
							<path style="fill:#FDA68A;" d="M81.303,312.61c0.48,0.55,1.04,1.15,1.82,1.21c0.83,0.06,1.51-0.53,2.04-1.09
								c2.74-2.9,4.55-6.46,5.28-10.12c-0.68-0.39-1.33-0.76-1.93-1.1c-0.55-0.33-0.96-0.79-1.2-1.32
								c-0.16-0.39-0.22-0.81-0.18-1.24c0.39-3.63,0.73-5.64,2-9.32c-6.05-1.36-11.75-2.99-15.03-5.72
								c-0.4,1.69-0.87,4.99-1.88,8.26c-1.07,3.47-2.75,6.9-5.59,8.37C72.223,303.82,77.203,307.92,81.303,312.61z"/>
							<path style="fill:#FFFFFF;" d="M53.593,307.49c-3.67,4.81-5.79,40.83-4,50.69c12.11,5.64,29.65,4.91,43.03,2.1
								c-0.34-6.93,1.9-18.81,3.76-23.81c2.82-9.27,4.71-13.44,7.01-26.09c-4.14-2.81-9.12-5.6-12.95-7.78
								c-0.73,3.67-2.54,7.23-5.28,10.12c-0.53,0.56-1.22,1.15-2.04,1.09c-0.78-0.05-1.34-0.66-1.82-1.21
								c-4.11-4.7-9.08-8.79-14.66-12.09c-0.22,0.11-0.43,0.24-0.66,0.33C57.763,304.01,55.563,304.91,53.593,307.49z"/>
							<path style="fill:#E57873;" d="M87.143,298.94c-0.04,0.43,0.01,0.85,0.18,1.24c-3.58,4.34-11.58-1.33-15.08-8.03
								c1.01-3.27,1.48-6.57,1.88-8.26c3.27,2.74,8.98,4.36,15.03,5.72C87.873,293.29,87.523,295.31,87.143,298.94z"/>
						</g>
						<g>
							<path style="fill:#FFD791;" d="M103.393,310.42c3.11,2.77,3.85,38.26,6.25,40.4c1.28,1.14,16.31,8.8,24.64,12.88
								c-2.87,1.82-5.44,4.12-7.58,6.8c-9.59-1.58-23.97-5.59-27.44-8.18c-4.33-3.23-4.41-23.26-5.6-35.19
								C96.413,321.79,97.473,315.81,103.393,310.42z"/>
							<path style="fill:#FFD791;" d="M102.183,368.5c-3.21,1.31-3.42,1.44-6.36-0.41c-2.64-1.66-4.7-3.46-4.7-8.91
								c0-18.25,3.01-40.04-2.34-57.52c4.85,2.7,9.4,4.64,13.65,7.78c1.28,0.95,1.62,2.54,1.62,4.14
								C104.063,344.21,103.253,349.36,102.183,368.5z"/>
							<g>
								<path style="fill:none;stroke:#E8AC74;stroke-linecap:round;stroke-miterlimit:10;" d="M102.983,314.17
									c-0.98,14.85-0.75,29.49-1.78,45.01"/>
								<path style="fill:none;stroke:#E8AC74;stroke-linecap:round;stroke-miterlimit:10;" d="M102.353,334.36
									c1.46-1.47,2.55-3.31,3.12-5.3"/>
							</g>
						</g>
						<g>
							<g>
								<polygon style="fill:#D6CDC3;" points="84.583,372.99 84.543,375.33 116.473,376.04 159.133,371.87 159.283,368.62 								
									"/>
								<polygon style="fill:#FFFFFF;" points="84.543,372.98 144.953,365.79 151.533,369.53 116.273,373.28 								"/>
							</g>
							<g>
								<polygon style="fill:#F5F2ED;" points="187.463,331.71 186.013,329.93 138.893,331.71 114.983,373.29 116.233,374.5 
																	"/>
								<polygon style="fill:#EBE7E1;" points="139.813,333.24 116.233,374.5 161.263,370.19 187.463,331.71 								"/>
							</g>
						</g>
						<g>
							<path style="fill:#E57873;" d="M98.481,277.58c3.011-1.524,6.426-0.833,7.628,1.542c1.202,2.375-0.265,5.536-3.276,7.06
								c-3.011,1.523-6.426,0.833-7.628-1.542C94.003,282.264,95.47,279.104,98.481,277.58z"/>
							<path style="fill:#6B393A;" d="M105.543,270.62c-0.56,3.96-2.33,8.33-4.91,13.16c-0.9-3.95-1.48-8.77-2.29-13.58
								c-0.81-4.83-1.85-9.65-3.65-13.59c-0.41-0.87-0.84-1.71-1.32-2.48c1.07-0.1,2.14,0,3.17,0.28c1.61,0.43,3.11,1.26,4.34,2.37
								c2.04,1.82,3.41,4.3,4.23,6.91C105.793,265.84,105.913,268.15,105.543,270.62z"/>
							<g>
								<path style="fill:#FDA68A;" d="M102.513,274.71c-0.03,0.78-0.08,1.57-0.15,2.37c-1.1,12.82-6.48,21.62-14.72,21.62
									c-11.63,0-19.17-13.04-19.17-25.83c0-12.61,7.72-21.73,16.76-20.67c5.21,0.6,9.02,2.33,11.72,4.87
									c1.79,1.69,3.08,3.73,3.96,6.04c1.01,2.6,1.49,5.54,1.59,8.71c0,0.01,0.01,0.02,0.01,0.03
									C102.563,272.78,102.553,273.74,102.513,274.71z"/>
								<path style="fill:#E57873;" d="M102.513,274.71c-0.35-1.24-0.86-2.45-1.56-3.54c-6.86,3.59-15.04,4.97-22.79,3.66
									c-1.47,1.23-2.92,2.44-4.37,3.65c0.03-5.83,0.11-9.78,2.39-12.61c2.13-2.65,5.7-3.65,9.07-4.08
									c3.8-0.5,7.66-0.48,11.45,0.07c1.45,0.2,2.96,0.52,4.22,1.25c1.01,2.6,1.49,5.54,1.59,8.71c0,0.01,0.01,0.02,0.01,0.03
									C102.563,272.78,102.553,273.74,102.513,274.71z"/>
							</g>
							<path style="fill:#6B393A;" d="M104.193,266.82c-1.6,1.35-3.6,2.47-5.84,3.37c-6.39,2.58-14.7,3.43-21.17,3.12
								c-3.18,6.99-4.47,9.5-5.28,15.59c-3.11-2.92-5.64-8.26-6.39-12.46c-0.74-4.19-0.67-8.57,0.5-12.69
								c1.84-6.48,6.47-9.96,9.68-11.64c0.8-0.44,1.52-0.74,2.08-0.97c4.1-1.58,8.73-1.44,12.93-0.15c2.3,0.71,4.23,1.92,5.85,3.4
								c3.28,2.97,5.31,6.98,6.62,9.99C103.583,265.32,103.923,266.15,104.193,266.82z"/>
							<path style="fill:#FDA68A;" d="M65.483,280.961c1.232-2.36,4.656-3.007,7.647-1.445c2.991,1.562,4.418,4.741,3.186,7.101
								c-1.232,2.36-4.656,3.007-7.647,1.445C65.678,286.5,64.251,283.321,65.483,280.961z"/>
							<g>
								<path style="fill:none;stroke:#6B393A;stroke-linecap:round;stroke-miterlimit:10;" d="M80.883,278.48
									c2.15-1.23,3.99-2.04,6.51-0.57"/>
								<path style="fill:none;stroke:#6B393A;stroke-linecap:round;stroke-miterlimit:10;" d="M95.363,278.11
									c1.84-1.37,4.2-1.14,5.62,0.37"/>
								<path style="fill:none;stroke:#CF5F66;stroke-linecap:round;stroke-miterlimit:10;" d="M92.923,283.7
									c0.19,1.94,0.06,3.9-0.38,5.8"/>
								<path style="fill:none;stroke:#CF5F66;stroke-linecap:round;stroke-miterlimit:10;" d="M91.203,292.27
									c-3,0.44-5.04-0.48-6.65-2.68"/>
								<ellipse style="fill:#494D54;" cx="85.003" cy="284.01" rx="0.89" ry="1.4"/>
								<ellipse style="fill:#494D54;" cx="96.943" cy="284.01" rx="0.89" ry="1.4"/>
							</g>
							<path style="fill:#945C57;" d="M105.543,270.62c-0.26-1.4-0.66-2.76-1.22-4.07c-0.31-0.74-0.7-1.46-1.15-2.15
								c-1.46-2.3-3.59-4.19-6.16-5.02c-0.73-1.03-1.5-1.95-2.32-2.77c-2.92-2.97-6.34-4.66-9.97-5.25
								c-3.02-0.49-6.16-0.21-9.05,0.77c0.8-0.44,1.52-0.74,2.08-0.97c4.1-1.58,8.73-1.44,12.93-0.15c2.3,0.71,4.23,1.92,5.85,3.4
								c1.61,0.43,3.11,1.26,4.34,2.37c2.04,1.82,3.41,4.3,4.23,6.91C105.793,265.84,105.913,268.15,105.543,270.62z"/>
						</g>
						<g>
							<path style="fill:#FFD791;" d="M68.263,299.39c4.5,3.24,5.65,9.36,6.23,14.87c1.66,15.8,1.52,31.78-0.41,47.55
								c-0.39,3.18-0.9,6.49-2.78,9.08c-2.41,3.33-6.6,4.83-10.62,5.72c-6.07,1.34-12.36,1.71-19.2,0.52
								c4.93-13.61,7.03-26.47,6.44-40.93c-0.27-6.47-0.08-12.34,0.51-18.86C49.303,307.59,56.653,303.49,68.263,299.39z"/>
							<g>
								<g>
									<path style="fill:#FDA68A;" d="M95.013,361.95c3.61-1.14,7.23-2.29,11-3.46c3.59-0.54,7.4,0.64,10.05,3.39
										c0.89,1.64,1.42,3.48,1.53,5.34c0.02,0.4,0.03,0.81-0.11,1.18c-0.13,0.37-0.43,0.71-0.83,0.79
										c-0.45,0.09-0.91-0.19-1.18-0.56c-0.27-0.37-0.39-0.83-0.53-1.27c-0.53-1.67-1.36-3.24-2.58-4.74
										c0.84,2.05,0.81,4.34,0.72,6.55c-0.02,0.49-0.05,1-0.3,1.42c-0.25,0.42-0.78,0.72-1.23,0.54
										c-0.47-0.19-0.63-0.75-0.73-1.24c-0.36-1.71-0.73-3.41-0.87-5.35c0.04,1.9-0.01,3.8-0.13,5.7
										c-0.04,0.61-0.12,1.28-0.56,1.7c-0.31,0.29-0.77,0.4-1.18,0.29c-0.41-0.11-0.75-0.45-0.92-0.93
										c-0.12,0.41-0.25,0.84-0.53,1.16c-0.28,0.33-0.75,0.53-1.15,0.38c-0.43-0.17-0.62-0.67-0.73-1.13
										c-0.25-1.06-0.36-2.15-0.05-2.95c-1.7,1.03-3.74,1.49-5.72,1.31c-1.98-0.18-3.89-1.02-5.09-2.33
										C94.023,365.69,94.473,363.65,95.013,361.95z"/>
									<path style="fill:#FFD791;" d="M54.923,306.14c-2.9,1.49-4.88,4.4-5.89,7.51c-1,3.1-1.14,6.42-1.12,9.68
										c0.08,14.56,2.03,37.3,8.23,40.88c7.54,4.36,25.71,6.66,39.56,6.28c-0.31-2.94-0.89-6.22,1.06-9.06
										c-11.5-1.64-25.87-6.79-28.3-9.22c-2.85-2.85-0.79-22.5-3.45-36C64.243,312.26,60.993,307.22,54.923,306.14z"/>
								</g>
								<g>
									<path style="fill:none;stroke:#E8AC74;stroke-linecap:round;stroke-miterlimit:10;" d="M63.633,311.85
										c3.08,13.39,3.26,37.01,4.76,40.64c0.64,1.56,3.93,2.71,5.92,2.89"/>
									<path style="fill:none;stroke:#E8AC74;stroke-linecap:round;stroke-miterlimit:10;" d="M66.463,331.16
										c2.11-3.93,2.67-6.21,3.28-10.8"/>
									<path style="fill:none;stroke:#E8AC74;stroke-linecap:round;stroke-miterlimit:10;" d="M48.943,333.36
										c1.07,8.42,1.84,13.84,2.76,18.78c1.35,7.22,1.48,10.9,4.07,13.48c1.89,1.89,9.76,2.25,15.78,2.89"/>
								</g>
							</g>
						</g>
					</g>
				</g>
				<g>
					<path style="fill:#D89F82;" d="M99.253,420.46c-23.87-18.01-55.9-24.73-84.99-17.83"/>
					<path style="fill:#D89F82;" d="M63.483,410.22c-11.38-16.49-32.02-26.1-51.14-23.14c-0.67,10.07,6.05,19.67,14.94,24.43
						C36.173,416.27,46.823,416.81,63.483,410.22z"/>
					<path style="fill:#D89F82;" d="M56.143,413.03c8.47-6.11,19.24-8.94,29.62-7.79c10.38,1.16,20.26,6.3,27.25,14.51
						C94.913,424.6,75.363,423.88,56.143,413.03z"/>
				</g>
			</g>
		</g>
	</g>
</g>
</svg>
