<?xml version="1.0" encoding="utf-8"?>
<!-- Generator: Adobe Illustrator 27.5.0, SVG Export Plug-In . SVG Version: 6.00 Build 0)  -->
<svg version="1.1" xmlns="http://www.w3.org/2000/svg" xmlns:xlink="http://www.w3.org/1999/xlink" x="0px" y="0px"
	 viewBox="0 0 750 500" style="enable-background:new 0 0 750 500;" xml:space="preserve">
<g id="BACKGROUND">
	<rect style="fill:#FFFFFF;" width="750" height="500"/>
</g>
<g id="OBJECTS">
	<g>
		<g>
			<path style="fill:#D4EDE9;" d="M645.714,441.325c0,0,28.69-130.436-27.87-215.604c-56.559-85.167-157.285-100.935-265.124-28.705
				l-15.623,6.245c0,0-115.168-4.508-160.661,44.879c-45.493,49.387-62.706,91.328-65.985,192.152L645.714,441.325z"/>
		</g>
		<g>
			<g>
				<g>
					<path style="fill:#F7CF4D;" d="M224.209,441.325c0,0-3.714-8.138-6.583-17.769c-2.869-9.632-15.779-26.435-34.018-14.55
						c-2.049,0.615-4.099-0.68-6.762-2.492c-2.664-1.811-14.14-5.226-24.796,1.502c-6.558,3.654-15.164,3.654-16.599,12.261
						c0,0-7.582-3.362-10.861-5.779c-3.279-2.418-24.796-3.647-38.936,0.451c-14.14,4.099-28.075,6.849-25.411,26.376H224.209z"/>
				</g>
				<g>
					<path style="fill:#188991;" d="M136.35,417.339c0,0-0.384-16.87,5.711-37.5c1.791-6.285,2.816-16.941,8.554-24.933
						s10.861-14.14,11.476-16.599c0,0,0.41,26.978-0.82,38.182C160.042,387.694,153.439,412.351,136.35,417.339z"/>
				</g>
				<g>
					<path style="fill:#FFFFFF;" d="M134.351,419.727c0,0,0.249-0.456,0.685-1.253c0.435-0.797,1.061-1.935,1.785-3.307
						c0.73-1.371,1.581-2.971,2.494-4.685c0.929-1.707,1.838-3.568,2.784-5.413c0.938-1.849,1.876-3.698,2.757-5.432
						c0.431-0.871,0.804-1.731,1.181-2.538c0.371-0.809,0.723-1.574,1.047-2.281c1.3-2.831,2.166-4.717,2.166-4.717
						s-0.724,1.945-1.81,4.863c-0.272,0.73-0.567,1.522-0.879,2.359c-0.317,0.835-0.627,1.728-0.994,2.63
						c-0.751,1.798-1.551,3.715-2.352,5.633c-0.81,1.914-1.582,3.848-2.385,5.624c-0.787,1.784-1.521,3.451-2.15,4.878
						c-0.624,1.433-1.165,2.611-1.539,3.438c-0.375,0.828-0.589,1.3-0.589,1.3c-0.281,0.619-1.01,0.893-1.629,0.612
						c-0.619-0.28-0.893-1.009-0.612-1.628C134.321,419.784,134.337,419.753,134.351,419.727z"/>
				</g>
				<g>
					<path style="fill:#0B4169;" d="M135.451,420.277c0,0-30.97-23.538-40.302-49.023c-8.47-23.132-4.099-31.853-4.099-31.853
						s10.656,13.319,20.22,19.399C120.833,364.879,144.33,395.618,135.451,420.277z"/>
				</g>
				<g>
					<path style="fill:#FFFFFF;" d="M134.236,420.092c0,0,0.008-0.054,0.024-0.157c0.014-0.114,0.034-0.285,0.062-0.508
						c0.047-0.455,0.098-1.137,0.106-2.014c0.018-1.75-0.143-4.292-0.879-7.244c-0.727-2.949-2.074-6.292-4.198-9.485
						c-1.053-1.619-2.301-3.108-3.693-4.66c-1.361-1.547-2.767-3.081-4.187-4.624c-2.843-3.075-5.722-6.132-8.329-9.083
						c-1.306-1.474-2.536-2.929-3.681-4.326c-0.56-0.708-1.105-1.397-1.633-2.063c-0.507-0.681-0.998-1.339-1.47-1.971
						c-0.912-1.285-1.737-2.47-2.412-3.558c-0.708-1.065-1.234-2.052-1.707-2.838c-0.451-0.799-0.768-1.448-1.001-1.88
						c-0.228-0.435-0.35-0.667-0.35-0.667s0.13,0.227,0.374,0.654c0.25,0.423,0.588,1.059,1.068,1.84
						c0.5,0.768,1.06,1.731,1.805,2.767c0.711,1.058,1.575,2.208,2.529,3.453c0.492,0.611,1.004,1.247,1.533,1.906
						c0.549,0.643,1.116,1.308,1.699,1.992c1.189,1.347,2.464,2.749,3.817,4.168c2.702,2.842,5.682,5.784,8.642,8.759
						c1.474,1.488,2.957,2.992,4.377,4.492c1.418,1.466,2.848,3.047,3.998,4.686c2.359,3.276,3.927,6.776,4.819,9.897
						c0.904,3.125,1.18,5.852,1.231,7.762c0.027,0.957,0,1.715-0.035,2.239c-0.022,0.267-0.04,0.47-0.051,0.608
						c-0.018,0.149-0.027,0.225-0.027,0.225c-0.08,0.675-0.692,1.157-1.366,1.076c-0.674-0.08-1.156-0.692-1.076-1.366
						c0.002-0.013,0.003-0.026,0.006-0.039L134.236,420.092z"/>
				</g>
			</g>
			<g>
				<g>
					<path style="fill:#188991;" d="M450.42,441.325c0,0,23.264-8.343,28.846-10.597c5.582-2.254,7.221-3.484,7.221-3.484
						s11.408,1.846,17.829-1.707c6.421-3.553,3.551-6.831,14.071-8.334c10.52-1.503,26.64-5.191,31.149-7.65
						c4.508-2.459,6.012-8.471,3.143-13.252c-2.869-4.781-19.537-1.23-22.269-0.957c-2.732,0.274-9.29,1.502-13.115-0.82
						c-3.826-2.322-12.022-1.229-16.667,1.503c-4.645,2.732-7.651,2.869-9.154,2.322c-1.503-0.547-5.737-2.049-17.487,3.279
						c-11.75,5.328-40.849,35.383-40.849,35.383v3.825L450.42,441.325z"/>
				</g>
				<g>
					<path style="fill:#0B4169;" d="M430.111,427.727c0,0,0.226-27.327,6.784-32.45c6.558-5.123,12.5-4.918,17.009-11.476
						c4.508-6.558,12.705-22.542,26.845-24.591c4.918-1.434,16.804-13.32,31.149-13.935c14.345-0.615,21.927-3.484,19.878,6.967
						c-2.049,10.451-14.14,15.369-25.411,21.107c-11.271,5.738-19.058,6.967-18.033,14.14c1.025,7.172-8.402,12.705-16.394,17.009
						c-7.992,4.303-3.689,9.569-10.451,13.494c-6.763,3.925-22.747,17.996-25.001,22.846
						C436.486,440.838,419.024,445.217,430.111,427.727z"/>
				</g>
				<g>
					<path style="fill:#FFFFFF;" d="M431.253,440.081c2.289-7.207,5.654-13.849,9.46-20.245c3.84-6.366,8.201-12.406,13.018-18.052
						c1.197-1.417,2.486-2.754,3.724-4.135l1.874-2.055l1.983-1.95l3.971-3.892l4.182-3.661l2.09-1.83
						c0.706-0.598,1.456-1.145,2.181-1.719l4.386-3.407c0.367-0.282,0.727-0.573,1.1-0.846l1.146-0.784l2.291-1.568l4.579-3.135
						l-4.52,3.219l-2.259,1.609l-1.129,0.804c-0.367,0.28-0.722,0.578-1.083,0.866l-4.316,3.482
						c-0.713,0.587-1.451,1.145-2.144,1.755l-2.051,1.864l-4.101,3.726l-3.884,3.95l-1.938,1.977l-1.828,2.079
						c-1.206,1.396-2.463,2.749-3.626,4.179c-4.685,5.7-8.901,11.775-12.586,18.147c-3.643,6.368-6.87,13.095-8.936,20.044
						l-0.018,0.06c-0.129,0.434-0.585,0.681-1.019,0.552c-0.434-0.129-0.681-0.585-0.552-1.019
						C431.25,440.092,431.252,440.084,431.253,440.081z"/>
				</g>
				<g>
					<path style="fill:#FFFFFF;" d="M435.883,439.67c5.318-4.258,10.967-7.905,16.782-11.314c5.826-3.374,11.796-6.496,17.949-9.214
						c6.154-2.706,12.394-5.229,18.797-7.267c3.169-1.115,6.418-1.977,9.642-2.911c1.605-0.494,3.25-0.837,4.879-1.241l4.894-1.175
						l-4.869,1.274c-1.619,0.436-3.255,0.812-4.848,1.339c-3.201,0.999-6.425,1.925-9.565,3.102
						c-6.346,2.163-12.515,4.805-18.586,7.623c-6.07,2.83-11.945,6.058-17.661,9.525c-5.689,3.488-11.267,7.265-16.344,11.502
						l-0.031,0.026c-0.348,0.29-0.865,0.243-1.155-0.104c-0.29-0.347-0.244-0.864,0.104-1.154
						C435.873,439.678,435.88,439.673,435.883,439.67z"/>
				</g>
			</g>
			<g>
				<g>
					<path style="fill:#074066;" d="M262.094,442.145c-0.367,0-0.702-0.248-0.795-0.62c-0.045-0.18-4.64-18.225-17.009-40.871
						c-11.403-20.878-31.937-50.051-65.007-70.476c-0.385-0.238-0.505-0.743-0.266-1.128c0.237-0.386,0.743-0.506,1.128-0.267
						c33.392,20.623,54.109,50.063,65.609,71.13c12.458,22.821,17.09,41.031,17.136,41.213c0.11,0.439-0.157,0.884-0.596,0.993
						C262.226,442.137,262.16,442.145,262.094,442.145z"/>
				</g>
				<g>
					<path style="fill:#074066;" d="M266.194,442.145c-0.034,0-0.068-0.002-0.103-0.007c-0.449-0.056-0.768-0.466-0.711-0.915
						c0.073-0.586,7.036-59.232-19.196-116.831c-0.188-0.411-0.006-0.898,0.406-1.086c0.41-0.19,0.897-0.006,1.086,0.407
						c26.431,58.035,19.404,117.123,19.33,117.713C266.954,441.842,266.601,442.145,266.194,442.145z"/>
				</g>
				<g>
					<path style="fill:#074066;" d="M261.726,439.969c0,0-15.205-4.869-16.709-9.104
						C243.514,426.631,254.39,420.793,261.726,439.969z"/>
				</g>
				<g>
					<path style="fill:#074066;" d="M262.641,439.969c0,0-0.956-15.661,3.689-17.437
						C270.974,420.756,273.571,434.318,262.641,439.969z"/>
				</g>
				<g>
					<path style="fill:#074066;" d="M257.03,426.136c0,0,5.885-2.92,6.704-12.893s-1.64-10.383-1.64-10.383
						S250.874,407.335,257.03,426.136z"/>
				</g>
				<g>
					<path style="fill:#074066;" d="M252.957,416.332c0,0-8.76,2.513-15.454-0.63C230.809,412.559,234.804,399.748,252.957,416.332z
						"/>
				</g>
				<g>
					<path style="fill:#074066;" d="M248.296,406.514c0,0,3.006-6.797,2.459-14.721c-0.547-7.924-8.083-10.03-7.048,6.119
						L248.296,406.514z"/>
				</g>
				<g>
					<path style="fill:#074066;" d="M240.79,392.881c0,0-4.38,2.737-11.348,1.234c-6.967-1.503-5.602-7.418-3.689-8.354
						c1.913-0.936,12.915,3.646,12.915,3.646L240.79,392.881z"/>
				</g>
				<g>
					<path style="fill:#074066;" d="M236.259,385.636c0,0,3.157-2.586,3.43-12.013c0.273-9.427-1.992-10.245-5.231-10.929
						c-3.24-0.684-2.318,8.404-1.959,17.385L236.259,385.636z"/>
				</g>
				<g>
					<path style="fill:#074066;" d="M229.641,376.101c0,0-7.575,1.346-14.27-0.976c-6.695-2.322-7.65-5.737-5.191-8.333
						C212.639,364.197,219.319,368.333,229.641,376.101z"/>
				</g>
				<g>
					<path style="fill:#074066;" d="M223.692,368.425c0,0,0.766-7.372,0.629-12.631c-0.137-5.259-2.12-7.377-3.417-8.607
						c-1.297-1.23-7.188-0.902-2.808,14.679L223.692,368.425z"/>
				</g>
				<g>
					<path style="fill:#074066;" d="M208.944,352.322c0,0,0.553-10.395-0.744-15.586c-1.298-5.191-7.036-6.217-7.104-1.435
						c-0.068,4.782,3.376,11.423,5.001,14.318L208.944,352.322z"/>
				</g>
				<g>
					<path style="fill:#074066;" d="M211.313,354.663c0,0-3.797,6.255-12.472,4.752c-8.675-1.503-9.016-9.017-6.694-10.861
						c2.322-1.844,12.76,2.756,16.797,3.769L211.313,354.663z"/>
				</g>
				<g>
					<path style="fill:#074066;" d="M195.07,340.2c0,0,0.287-6.539-1.147-11.252c-1.434-4.713-3.688-8.402-4.439-8.88
						c-0.752-0.478-6.558-0.547-5.123,7.992c0.888,3.894,3.541,6.817,3.541,6.817L195.07,340.2z"/>
				</g>
				<g>
					<path style="fill:#074066;" d="M194.675,340.2c0,0-2.39,4.595-7.24,4.937c-4.85,0.342-8.197-2.526-8.334-6.079
						c-0.137-3.553,3.688-3.416,5.806-3.006c2.118,0.41,6.562,1.473,6.562,1.473L194.675,340.2z"/>
				</g>
				<g>
					<path style="fill:#074066;" d="M267.717,422.464c0,0,9.133-0.699,11.318-7.966c2.185-7.268,0.478-10.512,0.478-10.512
						s-6.911-0.661-12.421,13.297L267.717,422.464z"/>
				</g>
				<g>
					<path style="fill:#074066;" d="M266.201,400.046c0,0,4.189,1.174,7.419-3.13c3.23-4.303,4.596-5.916,3.366-11.155
						c-1.23-5.239-10.943,6.181-11.312,8.805c-0.369,2.623,0,0.369,0,0.369L266.201,400.046z"/>
				</g>
				<g>
					<path style="fill:#074066;" d="M265.392,392.048c0,0-4.117-2.987-6.166-4.422c-2.049-1.435-6.694-2.602-7.172-2.223
						c-0.479,0.379-3.211,6.404,6.011,10.735c4.098,1.599,7.773,0,7.773,0L265.392,392.048z"/>
				</g>
				<g>
					<path style="fill:#074066;" d="M263.734,381.342c0,0-4.03-0.279-9.768-4.853c-4.986-4.369-5.807-13.932,5.738-5.531
						C267.696,377.517,263.734,381.342,263.734,381.342z"/>
				</g>
				<g>
					<path style="fill:#074066;" d="M258.679,360.986c0,0-5.533,0-9.426-4.576c-3.894-4.576-3.279-8.877-2.049-9.664
						c1.23-0.787,8.769,2.083,10.259,4.268C258.953,353.199,260.114,359.961,258.679,360.986z"/>
				</g>
				<g>
					<path style="fill:#074066;" d="M252.304,337.026c0,0,0.979-8.692,0.774-13.815c-0.205-5.123-1.024-10.724-1.912-11.681
						c-0.889-0.956-4.849-0.956-3.894,10.519c0,0-2.528-6.353-4.167-8.88c-1.639-2.527-6.762-6.489-8.06-6.831
						s-4.304,1.707-1.913,7.036c2.391,5.328,7.836,8.371,11.681,11.476c0,0-5.601-2.254-6.011,2.664
						c-0.41,4.918,6.071,10.929,13.999,11.886L252.304,337.026z"/>
				</g>
			</g>
		</g>
		<g>
			<g>
				<path style="fill:#F7CF4D;" d="M199.653,271.262H98.183c0,0,5.177-14.496,18.637-12.425
					c19.673-43.487,54.877-23.814,55.912-5.177C195.511,246.412,199.653,271.262,199.653,271.262z"/>
			</g>
			<g>
				<path style="fill:#F7CF4D;" d="M571.364,192.57h77.656c-2.071-11.907-15.014-11.907-15.014-11.907
					c-4.142-31.062-44.005-22.261-50.217-0.518C571.364,181.181,571.364,192.57,571.364,192.57z"/>
			</g>
			<g>
				<path style="fill:#F7CF4D;" d="M590.002,397.581h113.895l-18.637-7.248c-13.46-49.7-45.558-41.416-50.735-11.389
					C612.781,359.271,590.002,377.909,590.002,397.581z"/>
			</g>
		</g>
	</g>
	<g>
		<g>
			<g>
				<path style="fill:#074066;" d="M534.781,322.528c0,0-1.571-32.583,9.085-38.731c10.656-6.148,40.37,9.836,40.37,9.836
					s-22.269-14.413-23.498-17.282c-1.229-2.869-2.869-10.382,8.744-10.109c11.613,0.273,14.755-0.007,14.755-0.007
					s-28.963-5.868-32.515-8.327c-3.552-2.459-4.644-8.334,9.291-13.935c0,0-15.849,2.596-18.034-5.055
					c-2.185-7.65,1.64-32.378,1.64-32.378s-15.028,28.962-31.695,34.018c-16.667,5.055-31.831-5.601-38.389-12.432
					c0,0,19.399,19.399,16.53,29.919c-2.869,10.52-21.995,7.651-21.995,7.651s18.99,4.098,19.673,11.476
					c0.683,7.377-11.75,9.29-14.482,9.973c0,0,25.957-6.831,29.372,5.328c3.416,12.159-0.136,19.946-0.136,19.946
					s10.382-15.984,14.208-15.984C521.529,296.434,531.094,312.008,534.781,322.528z"/>
			</g>
			<g>
				<g>
					<polygon style="fill:#F8A706;" points="516.065,288.1 527.131,288.1 527.678,280.723 515.518,282.09 					"/>
				</g>
				<g>
					<path style="fill:#F8A706;" d="M514.836,275.258c0,0-4.234-7.445,0-10.929c4.235-3.484,8.128-1.742,8.743-5.021
						s-4.542-6.148-8.06-3.689c-3.518,2.459-5.055,3.689-5.055,3.689s-6.66-0.824-7.582-4.613c0,0,1.639-10.039,16.906-11.474
						c15.267-1.434,18.956,10.964,18.648,15.369c-0.307,4.406-1.025,6.763-8.197,9.222c-0.717,0.307-3.654,1.093-3.108,4.235
						C527.678,275.19,520.983,276.693,514.836,275.258z"/>
				</g>
			</g>
			<g>
				<g>
					<path style="fill:#074066;" d="M600.221,254.904c-0.149,0-0.301-0.021-0.451-0.064l-10.041-2.869
						c-0.87-0.249-1.374-1.156-1.125-2.027c0.249-0.87,1.156-1.376,2.027-1.126l10.041,2.869c0.87,0.249,1.374,1.156,1.125,2.027
						C601.591,254.434,600.934,254.904,600.221,254.904z"/>
				</g>
				<g>
					<path style="fill:#074066;" d="M584.236,245.681c-0.66,0-1.281-0.401-1.531-1.053c-0.323-0.846,0.099-1.794,0.945-2.117
						l19.263-7.377c0.841-0.324,1.792,0.098,2.117,0.945c0.323,0.846-0.099,1.794-0.945,2.117l-19.263,7.377
						C584.63,245.646,584.431,245.681,584.236,245.681z"/>
				</g>
				<g>
					<path style="fill:#074066;" d="M583.212,239.328c-0.473,0-0.942-0.204-1.266-0.597c-0.576-0.699-0.476-1.732,0.223-2.308
						l6.967-5.738c0.698-0.575,1.732-0.475,2.308,0.223c0.576,0.699,0.476,1.732-0.223,2.308l-6.967,5.738
						C583.949,239.206,583.579,239.328,583.212,239.328z"/>
				</g>
				<g>
					<path style="fill:#074066;" d="M511.59,218.46c-0.408,0-0.816-0.151-1.134-0.456c-0.654-0.626-0.676-1.664-0.05-2.318
						l7.855-8.197c0.628-0.654,1.665-0.675,2.318-0.049c0.654,0.626,0.676,1.664,0.05,2.318l-7.855,8.197
						C512.451,218.29,512.021,218.46,511.59,218.46z"/>
				</g>
				<g>
					<path style="fill:#074066;" d="M504.928,220.065c-0.82,0-1.527-0.614-1.626-1.448l-2.049-17.419
						c-0.106-0.899,0.537-1.714,1.437-1.82c0.894-0.105,1.713,0.537,1.82,1.436l2.049,17.419c0.106,0.899-0.537,1.714-1.437,1.82
						C505.057,220.062,504.992,220.065,504.928,220.065z"/>
				</g>
				<g>
					<path style="fill:#074066;" d="M496.667,219.382c-0.535,0-1.059-0.261-1.374-0.742l-4.645-7.104
						c-0.496-0.758-0.283-1.774,0.475-2.269c0.758-0.496,1.774-0.283,2.269,0.475l4.645,7.104c0.496,0.758,0.283,1.774-0.475,2.269
						C497.285,219.296,496.974,219.382,496.667,219.382z"/>
				</g>
				<g>
					<path style="fill:#074066;" d="M460.872,300.397c-0.647,0-1.259-0.385-1.519-1.021c-0.343-0.838,0.06-1.796,0.898-2.137
						l10.041-4.099c0.838-0.346,1.796,0.06,2.137,0.898c0.343,0.838-0.06,1.796-0.898,2.137l-10.041,4.098
						C461.288,300.358,461.078,300.397,460.872,300.397z"/>
				</g>
				<g>
					<path style="fill:#074066;" d="M463.741,311.257c-0.493,0-0.981-0.222-1.303-0.644c-0.55-0.72-0.412-1.748,0.307-2.298
						l14.209-10.861c0.719-0.549,1.749-0.412,2.298,0.307c0.55,0.72,0.412,1.748-0.307,2.298l-14.209,10.861
						C464.439,311.148,464.088,311.257,463.741,311.257z"/>
				</g>
				<g>
					<path style="fill:#074066;" d="M481.978,315.971c-0.905,0-1.639-0.734-1.639-1.639v-7.377c0-0.905,0.734-1.639,1.639-1.639
						c0.905,0,1.639,0.734,1.639,1.639v7.377C483.618,315.237,482.884,315.971,481.978,315.971z"/>
				</g>
			</g>
		</g>
		<g>
			<g>
				<path style="fill:#F8A706;" d="M423.985,143.833l12.023-9.017c0,0-5.055-23.771-0.957-33.198
					c4.099-9.426,21.313-7.104,50.003-7.514c15.574,0.273,36.856,0.361,41.941,0.989c5.534,0.683,11.338-1.808,11.612,19.367
					s4.1,30.998-13.387,31.817c-16.458,0.771-67.216,3.02-80.331-3.538C444.887,142.74,432.865,144.107,423.985,143.833z"/>
			</g>
			<g>
				<path style="fill:#FFFFFF;" d="M449.259,110.635c0,2.037,1.651,3.689,3.689,3.689h66.67c2.037,0,3.689-1.651,3.689-3.689l0,0
					c0-2.037-1.651-3.689-3.689-3.689h-66.67C450.91,106.947,449.259,108.598,449.259,110.635L449.259,110.635z"/>
			</g>
			<g>
				<path style="fill:#FFFFFF;" d="M470.709,130.572c0,2.037,1.173,3.689,2.62,3.689h47.357c1.447,0,2.62-1.651,2.62-3.689l0,0
					c0-2.037-1.173-3.689-2.62-3.689h-47.357C471.882,126.884,470.709,128.535,470.709,130.572L470.709,130.572z"/>
			</g>
		</g>
	</g>
	<g>
		<g>
			<g>
				<path style="fill:#074066;" d="M375.828,216.172c0,0,23.156,12.91,43.444-8.812c6.558-7.172,10.451-11.886,3.484-17.624
					c-6.967-5.738-11.066-8.607-12.705-28.894s-11.271-52.256-44.879-60.658c-16.189-3.279-33.198,5.328-35.247,12.5
					c0,0,0.137-2.391-1.571-3.005c-1.707-0.615-4.371,1.298-4.098,4.986c0,0-0.82-2.186-2.801-2.869
					c-1.98-0.683-6.217,3.279,0,7.446c0,0-15.233-2.186-22.2,22.132c-6.967,24.318-10.383,41.395-13.662,47.679
					c-3.279,6.285-11.613,36.067,43.171,32.105C360.732,219.929,375.828,216.172,375.828,216.172z"/>
			</g>
			<g>
				<g>
					<path style="fill:#1A8B91;" d="M333.613,208.317c0,0-4.303-0.274-4.303,6.831c0,7.104,0,13.935,0,13.935
						s-37.979-1.093-45.083,9.563s-21.858,77.598-24.044,96.178c-2.186,18.58-12.568,54.921,29.509,52.188
						c0,0-2.733,45.629-1.913,53.826h141.535c0,0,2.732-2.731,0-18.579c-2.732-15.848-3.279-51.915-3.279-51.915
						s20.697-28.758,21.516-34.086c0.82-5.328-0.205-15.779-2.049-23.156c-1.844-7.377-6.763-27.05-9.836-37.706
						c-3.074-10.656-12.364-42.351-25.479-45.493c-13.115-3.142-31.559-1.229-31.559-1.229s0.547-17.351-3.962-19.468
						C370.159,207.087,333.613,208.317,333.613,208.317z"/>
				</g>
				<g>
					<path style="fill:#074066;" d="M368.801,238.372c-0.016,0-0.033,0-0.05-0.002c-0.452-0.027-0.796-0.415-0.769-0.867
						c0.008-0.135,0.813-13.564,0.947-18.009c0.123-4.087-1.68-6.21-1.698-6.231c-0.295-0.34-0.263-0.857,0.076-1.155
						c0.339-0.297,0.853-0.268,1.152,0.068c0.092,0.103,2.253,2.588,2.109,7.367c-0.135,4.469-0.941,17.922-0.949,18.058
						C369.592,238.037,369.231,238.372,368.801,238.372z"/>
				</g>
				<g>
					<path style="fill:#074066;" d="M361.415,237.552c-0.453,0-0.82-0.367-0.82-0.82v-13.798c0-1.366-1.261-6.242-1.747-8.006
						c-0.121-0.436,0.136-0.888,0.572-1.008c0.437-0.122,0.888,0.136,1.008,0.572c0.185,0.671,1.806,6.607,1.806,8.441v13.798
						C362.235,237.185,361.868,237.552,361.415,237.552z"/>
				</g>
				<g>
					<path style="fill:#074066;" d="M349.939,237.552c-0.441,0-0.805-0.351-0.819-0.794l-0.685-22.394
						c-0.014-0.453,0.342-0.831,0.794-0.845c0.459-0.037,0.831,0.341,0.845,0.794l0.685,22.394c0.014,0.453-0.342,0.83-0.794,0.844
						C349.956,237.552,349.947,237.552,349.939,237.552z"/>
				</g>
				<g>
					<path style="fill:#074066;" d="M338.038,234.41c-0.43,0-0.791-0.335-0.817-0.77c-0.039-0.634-0.943-15.538-0.664-17.906
						c0.283-2.41,1.351-4.965,1.397-5.073c0.175-0.417,0.654-0.616,1.073-0.437c0.417,0.175,0.613,0.656,0.438,1.073
						c-0.01,0.024-1.023,2.453-1.279,4.628c-0.217,1.846,0.412,13.341,0.672,17.614c0.028,0.452-0.316,0.84-0.768,0.868
						C338.071,234.41,338.054,234.41,338.038,234.41z"/>
				</g>
				<g>
					<path style="fill:#F48F8F;" d="M319.063,347.666c0,0-10.63,4.74-24.441-2.48c0,0-9.85-7.493-9.303-14.597
						c0.547-7.104,27.706,3.894,30.603,5.601C318.818,337.897,319.063,347.666,319.063,347.666z"/>
				</g>
				<g>
					<path style="fill:#074066;" d="M353.73,247.932c-4.907,0-8.963-1.067-12.062-2.347c-6.976-2.881-10.655-7.326-10.807-7.515
						c-0.286-0.351-0.233-0.866,0.117-1.152c0.349-0.286,0.866-0.234,1.153,0.116c0.576,0.703,14.403,17.089,39.44,4.702
						c0.405-0.201,0.897-0.035,1.098,0.371c0.201,0.406,0.034,0.897-0.371,1.098C365.22,246.707,358.987,247.932,353.73,247.932z"/>
				</g>
				<g>
					<path style="fill:#F48F8F;" d="M404.346,381.036c0,0-5.498,13.353-7.137,17.178c-1.639,3.826-2.186,6.694-2.869,10.519
						c0,0-4.235,3.826-11.749,5.465c0,0-3.826,3.006-6.831,3.689c-3.005,0.683-9.563-2.186-9.563-2.186s-3.417-0.273-4.782-1.093
						s-1.912-5.055-1.912-5.055s-3.006,0.411-3.006-1.366s1.503-7.514,1.503-7.514s-1.639-1.64-0.82-5.055
						c0.82-3.415,3.553-15.574,4.098-18.443c0.546-2.869,18.34-12.381,23.856-14.387
						C385.135,362.788,400.124,372.42,404.346,381.036z"/>
				</g>
				<g>
					<path style="fill:#074066;" d="M408.362,391.59l-0.32-0.976c-0.077-0.234-7.915-23.425-28.946-29.179l-1.245-0.341l0.837-0.981
						c0.199-0.234,19.898-23.378,26.868-33.956c0.186-3.428,2.435-45.27,2.241-58.126c-0.006-0.453,0.355-0.825,0.807-0.833
						c0.005,0,0.009,0,0.013,0c0.448,0,0.813,0.359,0.82,0.807c0.203,13.399-2.231,58.012-2.256,58.461l-0.012,0.219l-0.12,0.184
						c-6.114,9.351-22.449,28.794-26.294,33.342c18.459,5.747,26.712,24.351,28.477,28.889c6.056-4.416,16.022-19.063,16.127-19.217
						c0.255-0.375,0.765-0.471,1.139-0.219c0.375,0.255,0.472,0.764,0.219,1.139c-0.456,0.672-11.24,16.518-17.471,20.257
						L408.362,391.59z"/>
				</g>
				<g>
					<path style="fill:#074066;" d="M422.345,327.241c-0.121,0-0.244-0.026-0.36-0.084c-10.205-5.005-14.985-0.216-15.032-0.167
						c-0.314,0.326-0.832,0.337-1.159,0.022c-0.326-0.314-0.336-0.832-0.022-1.159c0.226-0.235,5.669-5.697,16.936-0.167
						c0.407,0.199,0.574,0.69,0.375,1.097C422.938,327.073,422.648,327.241,422.345,327.241z"/>
				</g>
				<g>
					<path style="fill:#074066;" d="M300.826,258.182c-0.282,0-0.556-0.145-0.708-0.406c-6.216-10.627-14.122-18.188-14.201-18.263
						c-0.328-0.312-0.342-0.831-0.03-1.159c0.312-0.328,0.83-0.342,1.159-0.03c0.08,0.077,8.15,7.788,14.488,18.625
						c0.229,0.391,0.097,0.893-0.294,1.121C301.109,258.146,300.966,258.182,300.826,258.182z"/>
				</g>
				<g>
					<path style="fill:#074066;" d="M289.693,387.831c-0.273,0-0.539-0.136-0.695-0.384c-0.241-0.384-0.124-0.889,0.259-1.13
						c0.215-0.135,21.415-13.603,34.032-35.617l-4.698-1.516c-2.589,0.447-27.468,4.204-33.271-14.739l-5.503-2.695
						c-0.453,1.409-1.467,4.216-3.225,7.351c-3.286,5.861-7.624,10.029-12.545,12.055c-0.419,0.17-0.898-0.028-1.07-0.446
						c-0.172-0.419,0.027-0.898,0.446-1.07c11.091-4.567,15.055-19.115,15.094-19.26l0.256-0.966l7.917,3.878l0.101,0.348
						c5.466,18.87,31.435,13.948,31.698,13.898l0.208-0.042l7.002,2.26l-0.486,0.872c-12.76,22.907-34.863,36.939-35.085,37.079
						C289.992,387.791,289.842,387.831,289.693,387.831z"/>
				</g>
				<g>
					<path style="fill:#F48F8F;" d="M322.957,327.651c0,0-4.303-4.098-8.607-7.582c-4.303-3.484-14.14-7.65-23.839-0.82
						c-5.191,3.689-9.017,5.874-10.246,6.421c-1.23,0.547-8.333,3.689-5.601,7.787c2.732,4.099,10.247,1.64,11.613,1.094
						c1.366-0.547,6.558-1.094,8.88,9.29c2.322,10.383,2.322,21.175,6.831,21.175c4.508,0,5.056-4.782,4.782-9.836
						c-0.274-5.054-1.23-12.022-1.23-12.022s15.847,6.831,21.585,7.65c5.738,0.82,7.378-0.547,7.924-6.285l-2.459-0.546
						c0,0,1.639-12.296,2.459-15.574c0.82-3.279,1.366-7.513,1.093-10.246c-0.273-2.733-4.508-2.869-5.738-1.23
						C330.403,316.927,323.845,313.101,322.957,327.651z"/>
				</g>
				<g>
					<path style="fill:#CE6161;" d="M361.003,402.874c-1.504,0-2.874-0.903-3.586-1.625c-0.318-0.322-0.315-0.841,0.007-1.159
						c0.321-0.318,0.84-0.314,1.158,0.006c0.219,0.219,2.176,2.077,3.886,0.519c1.051-0.96,2.781-4.984,4.308-8.534
						c2.089-4.857,3.442-7.879,4.623-8.9c0.342-0.296,0.861-0.259,1.156,0.085c0.296,0.343,0.258,0.86-0.085,1.156
						c-0.982,0.848-2.686,4.81-4.189,8.307c-1.747,4.063-3.397,7.899-4.708,9.097C362.736,402.588,361.848,402.874,361.003,402.874z
						"/>
				</g>
				<g>
					<path style="fill:#CE6161;" d="M362.605,410.903c-1.958,0-3.391-0.582-3.419-0.594c-0.418-0.174-0.614-0.655-0.44-1.073
						c0.175-0.417,0.655-0.613,1.072-0.439c0.203,0.082,4.603,1.828,8.038-1.789c3.823-4.024,11.654-13.982,11.733-14.082
						c0.279-0.355,0.793-0.419,1.151-0.138c0.355,0.279,0.418,0.795,0.138,1.151c-0.323,0.411-7.957,10.118-11.833,14.198
						C366.948,410.343,364.525,410.903,362.605,410.903z"/>
				</g>
				<g>
					<path style="fill:#CE6161;" d="M366.228,416.521c-0.029,0-0.047,0-0.054,0c-0.453-0.014-0.809-0.391-0.796-0.844
						c0.013-0.452,0.393-0.78,0.839-0.796c0.036,0.004,2.153,0.018,4.534-1.631c1.114-0.771,3.177-2.572,5.172-4.313
						c3.462-3.022,5.634-4.891,6.613-5.217c0.434-0.145,0.893,0.089,1.037,0.518c0.143,0.43-0.089,0.894-0.518,1.037
						c-0.716,0.239-3.802,2.931-6.053,4.897c-2.123,1.852-4.128,3.602-5.317,4.426C369.024,416.441,366.626,416.521,366.228,416.521
						z"/>
				</g>
				<g>
					<path style="fill:#CE6161;" d="M382.591,415.018c-0.242,0-0.482-0.107-0.644-0.311c-0.281-0.355-0.22-0.871,0.134-1.151
						c0.052-0.042,5.201-4.152,5.952-8.084c0.085-0.445,0.516-0.734,0.959-0.652c0.445,0.085,0.736,0.515,0.652,0.959
						c-0.867,4.535-6.315,8.88-6.546,9.063C382.948,414.961,382.769,415.018,382.591,415.018z"/>
				</g>
				<g>
					<path style="fill:#CE6161;" d="M335.049,345.343c-0.058,0-0.118-0.006-0.177-0.019c-0.682-0.15-16.77-3.744-23.082-10.057
						c-0.32-0.32-0.32-0.839,0-1.159c0.32-0.32,0.839-0.32,1.159,0c5.977,5.977,22.113,9.579,22.275,9.615
						c0.442,0.097,0.722,0.535,0.624,0.977C335.765,345.082,335.426,345.343,335.049,345.343z"/>
				</g>
				<g>
					<path style="fill:#CE6161;" d="M326.984,342.854c-0.095,0-0.192-0.017-0.287-0.052c-0.424-0.158-0.64-0.63-0.481-1.054
						c0.044-0.116,4.351-11.692,5.013-16.731c0.13-0.855,0.271-1.578,0.395-2.214c0.538-2.757,0.666-3.412-1.717-5.223
						c-0.361-0.274-0.431-0.788-0.157-1.148c0.274-0.361,0.788-0.431,1.149-0.157c3.196,2.428,2.89,3.996,2.335,6.842
						c-0.121,0.617-0.257,1.318-0.381,2.13c-0.685,5.208-4.921,16.592-5.101,17.074
						C327.629,342.651,327.317,342.854,326.984,342.854z"/>
				</g>
				<g>
					<path style="fill:#CE6161;" d="M317.799,339.286c-0.327,0-0.635-0.196-0.763-0.518c-0.167-0.421,0.039-0.897,0.46-1.064
						c3.326-1.317,4.479-7.744,4.642-10.109c0.031-0.452,0.431-0.797,0.874-0.761c0.452,0.03,0.793,0.422,0.762,0.873
						c-0.026,0.389-0.707,9.556-5.674,11.522C318.001,339.268,317.899,339.286,317.799,339.286z"/>
				</g>
				<g>
					<path style="fill:#CE6161;" d="M295.549,346.531c-0.415,0-0.772-0.315-0.815-0.737c-0.004-0.038-0.41-3.806-2.545-7.559
						c-2.756-4.455-5.761-2.895-5.888-2.826c-0.398,0.215-0.895,0.069-1.111-0.33c-0.216-0.398-0.068-0.896,0.33-1.111
						c0.044-0.026,4.501-2.353,8.078,3.431c2.329,4.093,2.75,8.064,2.767,8.232c0.045,0.45-0.283,0.851-0.733,0.896
						C295.604,346.529,295.577,346.531,295.549,346.531z"/>
				</g>
				<g>
					<path style="fill:#CE6161;" d="M306.153,348.828c-0.403,0-0.754-0.298-0.811-0.708l-0.684-4.986
						c-0.041-0.296,0.083-0.592,0.323-0.769c0.241-0.179,0.559-0.211,0.831-0.087c0.09,0.042,9.031,4.135,11.508,4.656
						c0.443,0.093,0.727,0.527,0.634,0.971c-0.093,0.443-0.528,0.728-0.971,0.633c-2.062-0.433-7.842-2.966-10.499-4.157
						l0.482,3.517c0.062,0.448-0.252,0.862-0.701,0.924C306.228,348.825,306.19,348.828,306.153,348.828z"/>
				</g>
			</g>
			<g>
				<g>
					<path style="fill:#F48F8F;" d="M318.107,185.638c0,0,9.564,31.149,39.346,28.963c29.782-2.186,31.422-25.138,33.061-34.974
						c0,0,8.334,4.099,11.203-3.962c2.869-8.061-1.503-12.432-7.65-12.569c-6.148-0.137-15.164-2.869-24.181-13.115
						c-9.017-10.246-21.723-26.231-34.154-16.258c0,0-5.6-1.775-5.874,5.875c-0.274,7.65,3.686,30.739-11.75,28.689
						c0,0-8.265-4.167-10.622,1.571C305.128,175.597,305.674,188.302,318.107,185.638z"/>
				</g>
				<g>
					<path style="fill:#074066;" d="M379.311,172.728c0,2.037-1.651,3.689-3.689,3.689l0,0c-2.037,0-3.689-1.651-3.689-3.689v-2.869
						c0-2.037,1.651-3.689,3.689-3.689l0,0c2.037,0,3.689,1.651,3.689,3.689V172.728z"/>
				</g>
				<g>
					<path style="fill:#074066;" d="M340.581,177.031c0,1.924-1.559,3.484-3.484,3.484l0,0c-1.924,0-3.484-1.56-3.484-3.484v-3.894
						c0-1.924,1.559-3.484,3.484-3.484l0,0c1.924,0,3.484,1.56,3.484,3.484V177.031z"/>
				</g>
				<g>
					<path style="fill:#074066;" d="M366.744,162.957c-0.434,0-0.868-0.171-1.19-0.511c-0.621-0.656-0.596-1.69,0.058-2.313
						c0.096-0.091,9.655-9.003,20.315-2.247c0.765,0.485,0.992,1.498,0.508,2.263c-0.485,0.764-1.498,0.991-2.262,0.507
						c-8.474-5.372-15.986,1.557-16.302,1.855C367.553,162.809,367.148,162.957,366.744,162.957z"/>
				</g>
				<g>
					<path style="fill:#074066;" d="M327.124,165.965c-0.472,0-0.941-0.203-1.265-0.595c-0.577-0.698-0.478-1.731,0.22-2.308
						c6.935-5.73,19.008-1.283,19.519-1.09c0.847,0.319,1.274,1.263,0.957,2.11c-0.318,0.847-1.262,1.276-2.111,0.959
						c-0.107-0.04-10.807-3.971-16.277,0.549C327.862,165.842,327.492,165.965,327.124,165.965z"/>
				</g>
				<g>
					<path style="fill:#074066;" d="M315.512,177.236c-0.331,0-0.642-0.202-0.766-0.528c-0.049-0.114-0.957-2.072-5.595-1.729
						c-0.46,0.029-0.845-0.305-0.879-0.756c-0.034-0.452,0.305-0.845,0.756-0.879c6.019-0.449,7.206,2.661,7.254,2.794
						c0.153,0.426-0.068,0.896-0.494,1.049C315.697,177.221,315.604,177.236,315.512,177.236z"/>
				</g>
				<g>
					<path style="fill:#074066;" d="M311.698,178.739c-0.281,0-0.555-0.145-0.708-0.405c-1.31-2.232-0.056-4.438-0.002-4.53
						c0.228-0.391,0.73-0.523,1.121-0.296c0.39,0.227,0.523,0.727,0.298,1.117c-0.039,0.068-0.819,1.49-0.004,2.88
						c0.229,0.39,0.098,0.893-0.292,1.121C311.982,178.702,311.839,178.739,311.698,178.739z"/>
				</g>
				<g>
					<path style="fill:#074066;" d="M354.72,192.4c-1.399,0-4.215-1.161-4.701-3.958c-0.291-1.707-0.05-3.069,0.716-4.051
						c0.936-1.2,2.271-1.335,2.42-1.347c0.456-0.03,0.845,0.303,0.88,0.755c0.034,0.449-0.299,0.841-0.747,0.879
						c-0.047,0.005-0.783,0.092-1.274,0.738c-0.46,0.604-0.587,1.528-0.379,2.747c0.343,1.975,2.505,2.597,3.085,2.597
						c0.453,0,0.82,0.367,0.82,0.82C355.54,192.033,355.173,192.4,354.72,192.4z"/>
				</g>
				<g>
					<path style="fill:#074066;" d="M352.72,200.598c-0.225,0-0.45-0.092-0.612-0.273c-0.302-0.338-0.273-0.856,0.065-1.158
						c0.18-0.161,4.434-3.956,6.32-5.109c2.236-1.366,4.533-0.065,4.629-0.01c0.392,0.227,0.525,0.728,0.299,1.12
						c-0.226,0.391-0.725,0.525-1.117,0.301c-0.077-0.043-1.57-0.859-2.956-0.012c-1.76,1.076-6.04,4.894-6.083,4.932
						C353.11,200.529,352.915,200.598,352.72,200.598z"/>
				</g>
				<g>
					<path style="fill:#074066;" d="M389.284,173.616c-0.187,0-0.376-0.064-0.53-0.195c-0.345-0.293-0.387-0.811-0.094-1.155
						c2.513-2.958,7.848-3.411,8.074-3.429c0.461-0.033,0.846,0.301,0.881,0.752c0.036,0.451-0.3,0.846-0.752,0.883
						c-0.048,0.004-4.884,0.42-6.955,2.856C389.747,173.518,389.516,173.616,389.284,173.616z"/>
				</g>
				<g>
					<path style="fill:#074066;" d="M394.066,174.777c-0.069,0-0.138-0.009-0.207-0.027c-0.439-0.115-0.701-0.562-0.587-1
						c0.447-1.712-0.585-2.522-0.704-2.608c-0.363-0.264-0.451-0.774-0.191-1.14c0.259-0.365,0.757-0.462,1.129-0.205
						c0.086,0.059,2.104,1.487,1.354,4.367C394.763,174.533,394.43,174.777,394.066,174.777z"/>
				</g>
			</g>
		</g>
		<g>
			<g>
				<rect x="298.571" y="301.898" style="fill:#FFFFFF;" width="13.115" height="8.061"/>
			</g>
			<g>
				<path style="fill:#FFFFFF;" d="M298.571,294.795V281.68c0,0,6.455-1.879,7.582-2.596c1.127-0.717,3.996-1.844,3.484-6.967
					c-0.615-4.611-11.373-3.996-12.193,3.279l-8.607-9.119c0,0,7.685-12.398,21.312-12.091
					c13.628,0.307,16.189,12.091,15.882,16.701c-0.307,4.611-0.41,10.144-8.094,14.55c-3.279,1.742-6.66,2.562-6.763,4.099
					c-0.102,1.537,0,5.26,0,5.26H298.571z"/>
			</g>
		</g>
		<g>
			<g>
				<polygon style="fill:#074066;" points="268.242,199.778 257.463,215.967 243.856,207.961 264.758,194.256 				"/>
			</g>
			<g>
				<path style="fill:#074066;" d="M265.988,187.722v-3.86l-25.411-2.323c0,0-1.23,11.476,5.123,13.73L265.988,187.722z"/>
			</g>
		</g>
		<g>
			<g>
				<path style="fill:#F7CF4C;" d="M276.263,107.236c-0.185,0-0.367-0.032-0.543-0.096c-0.685-0.251-1.163-0.957-1.315-1.942
					c-0.178-0.692-0.303-1.38-0.381-2.062c-0.534-0.182-1.071-0.392-1.607-0.631c-1.446-0.643-2.445-1.394-2.99-2.246
					c-3.459,0.153-6.037,0.039-6.279,0.027c-0.452-0.022-0.801-0.405-0.78-0.858c0.022-0.452,0.397-0.795,0.858-0.78
					c0.057,0.003,2.441,0.109,5.712-0.022c0-0.112,0.006-0.224,0.018-0.339c0.061-0.577,0.291-1.153,0.658-1.72
					c-1.725-0.622-2.674-1.667-3.13-2.331c-1.291-1.88-1.328-4.419-0.086-6.036c1.015-1.322,2.674-1.739,4.44-1.116
					c0.445,0.162,0.881,0.325,1.309,0.492c-0.337-2.54-0.193-4.651,0.209-5.859c0.515-1.547,1.387-1.749,1.87-1.723
					c0.553,0.024,2.237,0.097,3.91,7.09c0.182,0.764,0.347,1.504,0.496,2.221c1.489-1.865,3.187-3.475,4.872-4.745
					c1.259-0.949,4.348-3.063,5.827-2.19c0.232,0.137,0.757,0.554,0.626,1.469c-0.077,0.54-0.092,1.092-0.108,1.677
					c-0.013,0.503-0.027,1.016-0.08,1.536c1.107-0.084,1.709,0.126,2,0.636c0.568,0.995,0.69,2.096,0.351,3.185
					c-0.646,2.076-2.966,4.132-6.9,6.116c0.201,0.472,0.339,0.944,0.411,1.414c0.255,1.667-0.356,3.16-1.722,4.203
					c-0.269,0.206-0.562,0.389-0.874,0.55c0.178,0.129,0.359,0.257,0.544,0.383c0.373,0.255,0.469,0.766,0.214,1.14
					c-0.256,0.373-0.765,0.469-1.139,0.214c-0.513-0.351-1.003-0.715-1.472-1.09c-0.66,0.141-1.369,0.214-2.112,0.218
					c-0.381,1.268-0.9,2.146-1.473,2.656C277.182,107.044,276.717,107.236,276.263,107.236z M275.748,103.629
					c0.066,0.396,0.15,0.796,0.255,1.199l0.018,0.09c0.07,0.486,0.228,0.663,0.266,0.683c0.024-0.007,0.211-0.088,0.462-0.421
					c0.235-0.312,0.453-0.732,0.641-1.261C276.853,103.854,276.304,103.757,275.748,103.629z M279.459,102.282
					c-0.004,0.028-0.009,0.057-0.014,0.085c0.032-0.002,0.065-0.004,0.097-0.005C279.515,102.335,279.487,102.308,279.459,102.282z
					 M275.575,101.899c0.782,0.212,1.527,0.348,2.227,0.42c0.086-0.478,0.156-1.004,0.204-1.581
					c-0.35-0.407-0.683-0.821-0.997-1.239c-0.444,0.074-0.889,0.142-1.334,0.204C275.587,100.417,275.549,101.15,275.575,101.899z
					 M279.681,100.151c0.578,0.634,1.206,1.25,1.888,1.839c0.533-0.179,0.985-0.414,1.345-0.689c0.88-0.672,1.259-1.589,1.096-2.651
					c-0.034-0.225-0.113-0.552-0.288-0.963c-1.232,0.514-2.59,0.93-4.004,1.267C279.715,99.37,279.702,99.769,279.681,100.151z
					 M271.551,100.135c0.367,0.281,0.864,0.574,1.533,0.872c0.284,0.126,0.565,0.243,0.843,0.35
					c0.002-0.485,0.027-0.967,0.073-1.444C273.166,100.004,272.345,100.077,271.551,100.135z M271.312,96.981
					c-0.268,0.333-0.472,0.665-0.601,0.992c-0.048,0.123-0.126,0.319-0.134,0.57c1.171-0.071,2.414-0.174,3.677-0.321
					c0.086-0.423,0.188-0.841,0.306-1.255C273.312,97.128,272.236,97.112,271.312,96.981z M276.968,96.487
					c0.242,0.405,0.5,0.809,0.773,1.21c0.109-0.021,0.217-0.042,0.325-0.063c-0.016-0.46-0.043-0.94-0.081-1.439
					c-0.137,0.042-0.275,0.083-0.415,0.124C277.366,96.378,277.165,96.434,276.968,96.487z M279.588,95.683
					c0.047,0.551,0.08,1.079,0.102,1.589c1.127-0.28,2.206-0.614,3.193-1.011c-0.308-0.414-0.698-0.864-1.192-1.342
					C281.043,95.174,280.344,95.429,279.588,95.683z M283.316,94.226c0.42,0.441,0.787,0.886,1.099,1.332
					c4.419-2.215,5.783-4.026,6.139-5.173c0.186-0.598,0.149-1.159-0.116-1.708c-0.222-0.038-0.568-0.022-1.013,0.039
					C288.818,90.525,287.289,92.392,283.316,94.226z M274.15,94.62c-0.423,0.271-0.821,0.545-1.185,0.821
					c0.481-0.007,0.985-0.046,1.51-0.118C274.363,95.088,274.254,94.854,274.15,94.62z M269.25,88.431
					c-0.635,0-1.162,0.257-1.553,0.765c-0.687,0.895-0.872,2.64,0.137,4.11c0.651,0.949,1.647,1.586,2.919,1.902
					c0.753-0.733,1.702-1.444,2.773-2.121c-0.46-1.24-0.804-2.459-1.052-3.62c-0.688-0.28-1.417-0.561-2.19-0.841
					C269.915,88.496,269.569,88.431,269.25,88.431z M277.716,93.65c-0.19,0.348-0.375,0.708-0.55,1.078
					c0.225-0.066,0.444-0.133,0.66-0.199C277.792,94.241,277.756,93.949,277.716,93.65z M279.279,92.984
					c0.05,0.351,0.096,0.694,0.136,1.031c0.299-0.102,0.589-0.204,0.868-0.305C279.974,93.472,279.64,93.23,279.279,92.984z
					 M275.576,93.773c0.033,0.076,0.067,0.153,0.101,0.229c0.061-0.13,0.123-0.258,0.187-0.386
					C275.767,93.667,275.671,93.72,275.576,93.773z M280.133,91.601c0.694,0.467,1.327,0.942,1.897,1.422
					c3.112-1.324,4.64-2.612,5.398-3.897C285.427,89.632,282.757,90.512,280.133,91.601z M274.354,90.276
					c0.171,0.638,0.374,1.294,0.613,1.96c0.529-0.294,1.077-0.579,1.635-0.855C275.918,91.017,275.17,90.648,274.354,90.276z
					 M273.91,88.295c1.121,0.481,2.171,0.978,3.145,1.487c-0.152-0.745-0.323-1.519-0.515-2.318c-1.11-4.64-2.104-5.621-2.353-5.801
					c-0.178,0.213-0.575,1.031-0.605,2.995C273.568,85.667,273.662,86.911,273.91,88.295z M288.308,83.798
					c-0.965,0.122-3.705,1.581-6.582,4.503c-0.363,0.369-0.794,0.831-1.257,1.376c2.868-1.132,5.632-1.961,7.427-2.337
					c0.061-0.013,0.121-0.025,0.179-0.037c0.101-0.607,0.118-1.216,0.134-1.833C288.224,84.926,288.239,84.366,288.308,83.798z"/>
			</g>
			<g>
				<path style="fill:#F7CF4C;" d="M307.725,82.041c-0.486,0-0.947-0.291-1.14-0.769c-0.254-0.63,0.049-1.346,0.679-1.601
					l9.017-3.647c0.631-0.255,1.346,0.05,1.601,0.679c0.255,0.63-0.049,1.346-0.679,1.601l-9.017,3.647
					C308.034,82.012,307.878,82.041,307.725,82.041z"/>
			</g>
			<g>
				<path style="fill:#F7CF4C;" d="M289.417,68.285c-0.21,0-0.422-0.054-0.616-0.166c-0.587-0.341-0.787-1.094-0.446-1.681
					l4.918-8.47c0.341-0.587,1.094-0.786,1.681-0.446c0.587,0.341,0.787,1.093,0.446,1.681l-4.918,8.47
					C290.254,68.065,289.841,68.285,289.417,68.285z"/>
			</g>
			<g>
				<path style="fill:#F7CF4C;" d="M260.729,74.569c-0.491,0-0.955-0.297-1.146-0.782l-2.459-6.284
					c-0.247-0.632,0.065-1.346,0.697-1.593c0.632-0.247,1.346,0.065,1.593,0.697l2.459,6.284c0.247,0.632-0.065,1.346-0.697,1.593
					C261.03,74.542,260.878,74.569,260.729,74.569z"/>
			</g>
			<g>
				<path style="fill:#F7CF4C;" d="M241.602,100.696c-0.561,0-1.068-0.386-1.198-0.956c-0.151-0.662,0.263-1.321,0.925-1.472
					l7.923-1.809c0.659-0.151,1.321,0.263,1.473,0.925c0.151,0.662-0.263,1.321-0.925,1.472l-7.923,1.809
					C241.784,100.686,241.692,100.696,241.602,100.696z"/>
			</g>
			<g>
				<path style="fill:#F7CF4C;" d="M265.988,126.757c-0.132,0-0.267-0.022-0.4-0.067c-0.642-0.221-0.984-0.92-0.763-1.563
					l2.254-6.558c0.22-0.642,0.919-0.984,1.563-0.763c0.642,0.221,0.984,0.92,0.763,1.563l-2.254,6.558
					C266.975,126.436,266.499,126.757,265.988,126.757z"/>
			</g>
			<g>
				<path style="fill:#F7CF4C;" d="M298.709,118.286c-0.35,0-0.698-0.149-0.941-0.437l-4.371-5.192
					c-0.438-0.52-0.371-1.295,0.148-1.733c0.52-0.437,1.296-0.37,1.733,0.148l4.371,5.192c0.438,0.52,0.371,1.295-0.148,1.733
					C299.27,118.191,298.988,118.286,298.709,118.286z"/>
			</g>
		</g>
	</g>
	<g>
		<path style="fill:#F7CF4C;" d="M660.468,442.068H47.333c-0.679,0-1.229-0.551-1.229-1.229c0-0.679,0.55-1.23,1.229-1.23h613.135
			c0.679,0,1.23,0.551,1.23,1.23C661.698,441.517,661.147,442.068,660.468,442.068z"/>
	</g>
</g>
</svg>
