<?xml version="1.0" encoding="utf-8"?>
<!-- Generator: Adobe Illustrator 27.5.0, SVG Export Plug-In . SVG Version: 6.00 Build 0)  -->
<svg version="1.1" xmlns="http://www.w3.org/2000/svg" xmlns:xlink="http://www.w3.org/1999/xlink" x="0px" y="0px"
	 viewBox="0 0 500 500" style="enable-background:new 0 0 500 500;" xml:space="preserve">
<g id="Floor">
	<ellipse id="Floor_9_" style="fill:#F5F5F5;" cx="251.12" cy="349.336" rx="230.408" ry="133.003"/>
</g>
<g id="Clouds">
	<g id="Clouds_3_">
		<path id="Cloud_3_" style="fill:#EBEBEB;" d="M436.842,69.488l-6.181-3.568c0.031-0.241,0.052-0.49,0.052-0.758v-1.791
			c0-3.187-2.237-7.061-4.997-8.654c-1.118-0.645-2.146-0.81-2.978-0.575c-0.452-4.529-3.596-9.651-7.414-11.856
			c-4.129-2.384-7.475-0.451-7.475,4.316v2.679c0,1.235,0.228,2.539,0.633,3.834l-5.134-2.964c-1.531-0.884-2.772-0.167-2.772,1.6
			c0,1.768,1.241,3.917,2.772,4.801l33.494,19.338c1.531,0.884,2.772,0.167,2.772-1.6C439.614,72.521,438.373,70.372,436.842,69.488
			z"/>
		<path id="Cloud_2_" style="fill:#EBEBEB;" d="M354.234,49.828l3.409,1.311v-7.511c0-5.954,4.749-7.382,9.906-4.405l0,0
			c5.156,2.977,9.337,10.217,9.337,16.172v1.091c1.17-0.467,2.681-0.286,4.333,0.668l0,0c3.711,2.142,6.719,7.353,6.719,11.637
			v0.496l4.754,2.745c2.444,1.411,4.425,4.842,4.425,7.663s-1.981,3.965-4.425,2.554l-38.457-22.203
			c-2.444-1.411-4.425-4.842-4.425-7.664C349.809,49.561,351.79,48.417,354.234,49.828z"/>
	</g>
</g>
<g id="Shadows">
	<ellipse id="Shadow_8_" style="fill:#E0E0E0;" cx="366.17" cy="399.564" rx="69.377" ry="40.055"/>
	<path id="Shadow_4_" style="fill:#E0E0E0;" d="M101.097,403.864l112.894-65.18c1.234-0.712,1.234-1.867,0-2.58l-8.108-4.681
		c-1.234-0.712-3.234-0.712-4.468,0l-45.83,26.46c-1.234,0.712-3.234,0.712-4.468,0l-83.552-48.239
		c-1.234-0.712-3.234-0.713-4.468,0l-3.917,2.261c-1.234,0.712-1.234,1.867,0,2.579l83.642,48.289
		c1.234,0.712,1.233,1.866-0.002,2.577l-54.298,31.256c-1.235,0.711-1.236,1.864-0.002,2.577l8.109,4.681
		C97.863,404.576,99.864,404.576,101.097,403.864z"/>
</g>
<g id="Plants">
	<g id="Plants_5_">
		<g id="XMLID_9258_">
			<g id="XMLID_9261_">
				<path id="XMLID_9262_" style="fill:#27DEBF;" d="M109.647,391.042l7.965-4.551c0,0,3.82-21.052,0.963-39.148
					c-4.017-25.443-21.34-34.219-27.632-31.69c-6.292,2.529-7.771,10.066,3.592,24.767
					C101.239,349.094,109.862,367.43,109.647,391.042z"/>
			</g>
			<g id="XMLID_9263_" style="opacity:0.15;">
				<path id="XMLID_9264_" d="M109.647,391.042l7.965-4.551c0,0,3.82-21.052,0.963-39.148c-4.017-25.443-21.34-34.219-27.632-31.69
					c-6.292,2.529-7.771,10.066,3.592,24.767C101.239,349.094,109.862,367.43,109.647,391.042z"/>
			</g>
			<g id="XMLID_9259_">
				<path id="XMLID_9260_" style="fill:#FFFFFF;" d="M112.534,380.938c-0.027,0-0.052-0.002-0.079-0.006
					c-0.31-0.043-0.528-0.329-0.485-0.64c3.292-23.82-6.287-49.917-17.05-60.435c-0.224-0.218-0.228-0.579-0.009-0.803
					c0.22-0.222,0.579-0.228,0.803-0.009c10.959,10.709,20.721,37.231,17.381,61.402
					C113.057,380.731,112.813,380.938,112.534,380.938z"/>
			</g>
		</g>
		<g id="XMLID_9219_">
			<g id="XMLID_9228_">
				<path id="XMLID_9257_" style="fill:#27DEBF;" d="M87.549,403.808c-1.258,0.723-3.852-0.857-4.846-1.524
					c-1.701-1.141-3.079-2.757-3.994-4.585c-1.065-2.127-1.334-4.406-1-6.76c0.173-1.22,0.515-2.41,0.855-3.594
					c0.334-1.163,0.669-2.326,1.003-3.489c0.33-1.148,0.663-2.335,0.512-3.519c-0.305-2.386-2.423-4.058-4.349-5.5
					c-2.129-1.595-4.347-3.699-4.335-6.572c0.009-2.216,1.157-4.275,2.531-6.015c1.374-1.74,3.004-3.277,4.245-5.113
					c0.894-1.322,1.591-2.875,1.446-4.464c-0.09-0.987-0.5-1.917-0.972-2.789c-1.014-1.87-2.353-3.584-3.052-5.593
					s-0.6-4.509,0.968-5.947c1.288-1.18,3.2-1.345,4.943-1.23c1.612,0.107,3.187,0.834,4.598,1.618
					c4.561,2.536,7.163,7.937,12.003,9.889c1.867,0.753,3.912,0.917,5.858,1.432c1.946,0.514,3.93,1.508,4.831,3.308
					c1.776,3.548-1.52,7.921-0.271,11.688c1.105,3.333,4.344,4.609,6.163,7.613c0.796,1.314,0.979,2.833,0.851,4.364
					c-0.217,2.591-0.597,4.492-1.84,7.373c-1.027,2.381-4.047,6.642-4.047,6.642C109.572,391.117,87.742,403.697,87.549,403.808z"/>
			</g>
			<g id="XMLID_9226_">
				<path id="XMLID_9227_" style="fill:#FFFFFF;" d="M100.478,396.92c-0.008,0-0.015,0-0.015,0
					c-0.322-0.013-0.565-0.278-0.552-0.591c0.938-22.546-9.685-47.436-17.41-54.667c-0.228-0.214-0.241-0.573-0.027-0.803
					c0.215-0.228,0.573-0.24,0.803-0.027c7.88,7.377,18.719,32.681,17.769,55.544C101.033,396.681,100.781,396.92,100.478,396.92z"
					/>
			</g>
			<g id="XMLID_9224_">
				<path id="XMLID_9225_" style="fill:#FFFFFF;" d="M97.1,370.283c-0.055,0-0.112-0.008-0.167-0.025
					c-7.243-2.239-16.272-2.634-16.361-2.637c-0.314-0.013-0.557-0.278-0.545-0.591c0.013-0.313,0.251-0.56,0.591-0.545
					c0.092,0.004,9.263,0.405,16.65,2.688c0.299,0.092,0.468,0.411,0.375,0.71C97.567,370.127,97.343,370.283,97.1,370.283z"/>
			</g>
		</g>
	</g>
</g>
<g id="Target_1_">
	<g id="Target">
		<g id="Canvas">
			<g id="XMLID_9628_">
				<polygon id="XMLID_9639_" style="fill:#37474F;" points="176.186,317.711 176.186,314.766 123.837,345.048 126.335,346.521 				
					"/>
				<g id="XMLID_9636_">
					<path id="XMLID_9638_" style="fill:#37474F;" d="M110.914,118.376c0.265,0.153,0.4,0.46,0.332,0.759L67.875,311.679
						l-1.24,5.462c-0.626,0.037-1.252-0.086-1.73-0.344c-0.012-0.012-0.024-0.012-0.037-0.025l-2.906-1.682
						c-0.264-0.153-0.399-0.461-0.332-0.759l44.525-197.657c0.104-0.46,0.623-0.688,1.031-0.452L110.914,118.376z"/>
					<path id="XMLID_9637_" style="fill:#455A64;" d="M116.354,115.749L71.607,314.336c-0.072,0.317-0.272,0.59-0.553,0.752
						l-2.91,1.684c-0.417,0.246-0.957,0.368-1.509,0.368l1.24-5.462l43.484-193.046L116.354,115.749z"/>
				</g>
				<g id="XMLID_9633_">
					<path id="XMLID_9635_" style="fill:#37474F;" d="M121.349,383.379v5.744c-0.589,0-1.166-0.123-1.608-0.368
						c-0.012-0.012-0.024-0.012-0.037-0.025l-2.7-1.559c-0.442-0.258-0.65-0.602-0.65-0.933L116.342,213.8l4.995,2.884
						L121.349,383.379z"/>
					<path id="XMLID_9634_" style="fill:#455A64;" d="M126.345,213.812l-0.012,172.366v0.123c-0.012,0.319-0.246,0.626-0.663,0.871
						l-2.688,1.559c-0.442,0.27-1.043,0.393-1.632,0.393v-5.744l-0.012-166.695L126.345,213.812z"/>
				</g>
				<g id="XMLID_9630_">
					<path id="XMLID_9632_" style="fill:#37474F;" d="M186.066,351.763c-0.344,0-0.96-0.113-1.554-0.452l-2.779-1.607
						c-0.357-0.206-0.606-0.557-0.684-0.962L151.308,193.61l4.995,2.884l28.695,149.685L186.066,351.763z"/>
					<path id="XMLID_9631_" style="fill:#455A64;" d="M191.049,348.855c0,0.012,0,0.012,0,0.024c0,0.344-0.233,0.675-0.688,0.945
						l-2.541,1.473l-0.122,0.074c-0.454,0.258-1.043,0.393-1.633,0.393l-1.068-5.584l-28.695-149.685l5.008-2.872L191,348.634
						c0,0.012,0.012,0.025,0.012,0.037L191.049,348.855z"/>
				</g>
				<polygon id="XMLID_9629_" style="fill:#455A64;" points="124.618,353.247 181.172,320.595 181.172,314.839 124.618,347.49 				
					"/>
			</g>
		</g>
		<g>
			<g>
				<path style="fill:#27DEBF;" d="M183.618,45.469c0,0,0.001-0.004,0.001-0.004s-0.038-0.021-0.098-0.055
					c-0.09-0.052-0.182-0.102-0.272-0.153c-1.451-0.814-7.451-4.196-20.395-11.631c-10.331-5.934-23.156-5.576-37.051,2.447
					C91.61,55.818,63.895,114.501,63.899,167.146c0.003,31.258,9.776,53.36,24.872,62.026c9.079,5.212,18.397,10.492,20.519,11.694
					c0.076,0.044,0.154,0.087,0.231,0.131c0.141,0.079,0.22,0.125,0.22,0.125c0.001-0.001,0.003-0.002,0.004-0.002
					c10.265,5.711,22.943,5.271,36.667-2.654c34.188-19.742,61.903-78.426,61.903-131.073
					C208.316,76.253,198.617,54.204,183.618,45.469z"/>
				<path style="opacity:0.1;" d="M183.618,45.469c0,0,0.001-0.004,0.001-0.004s-0.038-0.021-0.098-0.055
					c-0.09-0.052-0.182-0.102-0.272-0.153c-1.451-0.814-7.451-4.196-20.395-11.631c-10.331-5.934-23.156-5.576-37.051,2.447
					C91.61,55.818,63.895,114.501,63.899,167.146c0.003,31.258,9.776,53.36,24.872,62.026c9.079,5.212,18.397,10.492,20.519,11.694
					c0.076,0.044,0.154,0.087,0.231,0.131c0.141,0.079,0.22,0.125,0.22,0.125c0.001-0.001,0.003-0.002,0.004-0.002
					c10.265,5.711,22.943,5.271,36.667-2.654c34.188-19.742,61.903-78.426,61.903-131.073
					C208.316,76.253,198.617,54.204,183.618,45.469z"/>
				<path style="opacity:0.1;" d="M195.101,173.902L75.508,104.855c-7.306,19.867-11.611,41.547-11.609,62.291
					c0.003,31.258,9.776,53.36,24.872,62.026c9.079,5.212,18.397,10.492,20.519,11.694c0.076,0.044,0.154,0.087,0.231,0.131
					c0.141,0.079,0.22,0.125,0.22,0.125c0.001-0.001,0.003-0.002,0.004-0.002c10.265,5.711,22.943,5.271,36.667-2.654
					C166.171,227.057,183.766,202.641,195.101,173.902z"/>
				<path style="opacity:0.1;" d="M64.022,173.072c1.163,28.123,10.626,47.993,24.75,56.101
					c9.079,5.212,18.397,10.492,20.519,11.694c0.076,0.044,0.154,0.087,0.231,0.131c0.141,0.079,0.22,0.125,0.22,0.125
					c0.001-0.001,0.003-0.002,0.004-0.002c10.265,5.711,22.943,5.271,36.667-2.654c4.626-2.672,9.132-6.064,13.468-10.05
					L64.022,173.072z"/>
			</g>
			<g id="XMLID_265_">
				<path id="XMLID_380_" style="fill:#27DEBF;" d="M146.404,47.817c-34.193,19.744-61.908,78.427-61.904,131.073
					c0.005,52.645,27.724,79.318,61.912,59.576c34.188-19.742,61.903-78.426,61.903-131.073
					C208.316,54.746,180.597,28.073,146.404,47.817z"/>
				<path id="XMLID_379_" style="fill:#FAFAFA;" d="M146.405,66.747C119.002,82.57,96.791,129.6,96.794,171.791
					c0.004,42.191,22.218,63.567,49.617,47.745c27.399-15.822,49.611-62.852,49.611-105.044S173.808,50.924,146.405,66.747z"/>
				<path id="XMLID_362_" style="fill:#27DEBF;" d="M146.406,85.676c-20.613,11.902-37.321,47.279-37.318,79.015
					c0.003,31.737,16.713,47.816,37.323,35.915c20.61-11.901,37.318-47.278,37.318-79.016
					C183.729,89.853,167.019,73.773,146.406,85.676z"/>
				<path id="XMLID_361_" style="fill:#FAFAFA;" d="M146.407,104.605c-13.823,7.982-25.027,31.705-25.025,52.987
					c0.002,21.282,11.208,32.065,25.029,24.084c13.821-7.981,25.025-31.704,25.025-52.987
					C171.435,107.407,160.23,96.624,146.407,104.605z"/>
				<path id="XMLID_348_" style="fill:#455A64;" d="M146.408,123.535c-7.033,4.061-12.733,16.131-12.732,26.959
					c0.001,10.828,5.702,16.314,12.734,12.254c7.032-4.061,12.732-16.13,12.732-26.959S153.441,119.474,146.408,123.535z"/>
			</g>
		</g>
	</g>
</g>
<g id="Character">
	<g id="Character_9_">
		<g id="Character_11_">
			<g id="Character_2_">
				<g>
					<path id="XMLID_642_" style="fill:#37474F;" d="M379.391,378.885c-0.262,1.887-1.122,3.429,1.338,7.794
						c1.908,3.384,4.672,4.787,6.447,6.016c1.775,1.23,3.819,3.122,5.358,5.028c1.368,1.694,2.923,3.641,5.615,5.431
						c1.68,1.117,5.952,0.689,7.894-0.436c1.942-1.125,2.495-2.929,1.949-6.192c-0.533-3.187-10.627-3.107-10.627-3.107
						L379.391,378.885z"/>
					<g id="XMLID_640_">
						<path id="XMLID_641_" style="fill:#FFA8A7;" d="M406.309,359.008l-0.503,30.585c0.005,1.802-9.867,4.045-12.021-0.061
							c-0.055-0.119-0.319-4.77-1.478-9.385c-0.768-3.061-2.074-8.408-2.074-8.408c-1.129-6.365-1.626-11.069-1.626-11.069
							L406.309,359.008z"/>
					</g>
					<g id="XMLID_638_">
						<path id="XMLID_639_" style="fill:#FFA8A7;" d="M360.857,373.083c0,0-4.651,28.3-4.787,29.855
							c-0.135,1.555-4.528,2.575-7.776,2.467c-3.352-0.111-5.176-1.602-5.141-2.303l-0.801-30.207L360.857,373.083z"/>
					</g>
					<path id="XMLID_637_" style="fill:#37474F;" d="M365.009,335.389c0,0,0.405-5.453,3.624-21.896
						c2.232-11.404,4.1-23.641,4.1-23.641s4.034,14.754,6.349,26.392c1.683,8.46,3.363,16.428,6.631,32.548
						c2.787,13.748,5.198,21.005,5.198,21.005c6.268,3.331,15.44-0.49,15.44-0.49s0.382-9.831,0.253-21.974
						c-0.168-15.766-3.612-21.933-3.612-21.933s-1.329-21.254-1.969-36.935c-0.907-22.257-0.208-42.991-5.451-60.329
						c-0.808-0.217-50.034-21.71-51.286,7.723c-0.309,7.267-0.846,26.625-1.367,42.151c-0.884,26.323-0.637,45.898-0.67,54.865
						c-0.177,8.624-0.258,16.713-0.094,32.816c0.071,7.032,0.488,12.994,0.488,12.994c5.893,3.955,18.509-0.888,18.509-0.888
						s0.558-6.916,2.304-16.694C366.511,343.983,365.009,335.389,365.009,335.389z"/>
					<g style="opacity:0.2;">
						<path d="M364.868,270.107c-2.773-0.797-8.338-4.069-9.368-6.145c-1.188-2.395-1.452-14.944-1.463-15.477l-0.009-0.449
							l20.252-1.441l0.058,0.441c1.021,7.816,1.136,11.869,1.192,13.818l0.02,0.649c0.079,2.029-7.892,8.143-8.695,8.636
							c-0.176,0.108-0.394,0.167-0.661,0.178C365.841,270.332,365.405,270.262,364.868,270.107z M354.991,248.915
							c0.092,3.872,0.482,12.868,1.355,14.628c0.84,1.693,6.031,4.865,8.783,5.656c0.978,0.282,1.223,0.143,1.231,0.136
							c1.737-1.066,8.29-6.652,8.246-7.795l-0.021-0.659c-0.054-1.896-0.165-5.801-1.127-13.281L354.991,248.915z"/>
					</g>
					<g style="opacity:0.2;">
						<path d="M400.3,264.689l0.185-0.987c-3.425-1.654-8.418-4.402-8.797-5.332c-0.467-1.144-1.346-9.153-1.697-12.637
							c1.04-0.266,4.126-1.035,8.822-2.028l-0.195-0.923c-5.854,1.237-9.224,2.13-9.258,2.139l-0.388,0.103l0.039,0.399
							c0.118,1.2,1.176,11.769,1.802,13.303C391.467,260.329,398.869,263.997,400.3,264.689z"/>
					</g>
					<path style="fill:#27DEBF;" d="M342.26,370.647l0.093,2.25c0,0,1.812,2.365,9.567,2.528c7.755,0.163,9.781-1.868,9.781-1.868
						l0.253-1.88c1.235,0.288,0.968,1.76,0.171,5.433c-0.797,3.672-1.497,6.841-2.29,7.604c-0.794,0.763-4.972,2.052-9.551,1.848
						c-4.579-0.203-7.544-2.106-8.342-3.205c-0.798-1.1-1.072-5.499-1.292-7.867C340.429,373.121,340.914,370.741,342.26,370.647z"
						/>
					<path style="fill:#27DEBF;" d="M387.884,358.645l0.549,2.242c0,0,1.772,1.982,9.503,1.348c7.731-0.633,8.648-2.834,8.648-2.834
						l0.021-1.821c1.648,0.248,2.072,1.549,1.656,5.284c-0.416,3.735-0.787,6.959-1.499,7.799c-0.711,0.84-4.736,2.551-9.311,2.818
						c-4.576,0.267-6.738-1.149-7.645-2.161c-0.907-1.012-1.713-5.823-2.175-8.156C387.168,360.83,386.556,358.877,387.884,358.645z
						"/>
					<path style="opacity:0.2;" d="M372.733,289.852l3.53-17.459c0,0,6.8-2.668,9.109-11.268c0,0,0.588,7.977-6.378,12.038
						l-4.342,16.635l1.732,14.339L372.733,289.852z"/>
					<g>
						<path style="fill:#37474F;" d="M315.244,413.436c-0.708-0.065-0.627,2.039-0.381,2.942c0.246,0.903,3.132,3.931,8.269,5.002
							c5.137,1.071,12.233,0.112,15.277-0.01c3.044-0.123,8.298,1.359,11.334,1.803c3.037,0.444,8.502-0.582,10.303-2.295
							c0.706-0.671,0.772-1.659,0.746-2.51c-0.06-2.018-0.245-2.425-0.479-2.408L315.244,413.436z"/>
						<path style="fill:#455A64;" d="M359.332,399.658c0.271-1.097,0.563-2.197,0.638-3.324c0.063-0.934-0.029-1.899-0.395-2.768
							c-0.312-0.742-1.107-1.102-1.832-1.372l-0.445,2.77c-0.59,0.563-2.246,0.823-2.929,1.269c-1.534,1-1.831,3.066-2.225,4.854
							c-0.091,0.413-0.202,0.839-0.467,1.169c-1.374,1.712-1.774-1.279-1.843-2.082c-0.101-1.161-0.204-2.453-1.066-3.237
							c-0.725-0.659-2.01-0.933-2.964-1.021c-1.043-0.096-2.293-0.059-2.869-0.981l-0.069-1.776
							c-0.891-0.101-2.155,0.073-2.527,1.049c-0.172,0.452-0.132,0.953-0.082,1.434c0.138,1.332,0.327,2.66,0.594,3.973
							c0.199,0.98,0.443,1.962,0.449,2.962c0.001,0.194-0.017,0.381-0.037,0.567c-0.281,0.45-0.615,0.857-1.005,1.065
							c-1.599,0.849-3.459,1.11-5.243,1.226c-2.634,0.17-4.873-0.236-7.841-0.275c-2.639-0.034-5.611,0.3-7.904,1.607
							c-2.171,1.237-4.174,3.114-4.021,7.044c1.292,2.105,2.611,3.335,4.697,4.257c2.47,1.091,5.102,1.401,7.78,1.678
							c3.136,0.324,7.462-0.228,10.604-0.405c2.86-0.161,5.457,0.354,7.841,0.834c3.978,0.801,6.72,1.015,10.329-0.086
							c1.367-0.417,3.071-1.229,3.704-2.734c0.287-2.014-0.017-4.219-0.372-6.21c-0.072-0.403-0.154-0.804-0.244-1.202
							c-0.112-0.497-0.236-0.992-0.367-1.486c-0.197-0.744-0.213-1.565-0.346-2.334c-0.048-0.281-0.198-1.029-0.391-1.912
							c0.08-0.876,0.222-1.745,0.4-2.608C359.019,400.952,359.173,400.303,359.332,399.658z"/>
						<path style="fill:#FAFAFA;" d="M339.434,404.584c-2.869,2.146-3.177,5.979-3.177,5.979c0.059,1.518-2.618,1.622-2.677,0.104
							c0,0,0.56-3.107,2.416-5.315C335.997,405.351,337.75,404.154,339.434,404.584z"/>
						<path style="fill:#FAFAFA;" d="M333.602,405.474c0,0-2.064,1.569-2.928,5.107c-0.049,1.122-2.382,0.997-2.333-0.125
							c0,0,0.362-3.588,2.936-5.078C332.019,404.87,333.363,405.027,333.602,405.474z"/>
						<path style="fill:#FAFAFA;" d="M329.017,405.226c-1.223-0.024-3.81,1.64-5.079,5.4c-1.269,3.76-0.577,8.504-0.577,8.504
							s-3.622-0.245-6.804-3.239c-0.885-0.833-1.414-1.533-1.702-2.158c-0.314-2.467,0.271-4.528,1.295-5.741
							c1.793-2.126,4.545-3.515,8.888-3.733c4.872-0.245,5.289,1.053,5.289,1.053L329.017,405.226z"/>
					</g>
					<path style="fill:#455A64;" d="M382.059,374.888c2.41-1.41,9.372,1.769,9.372,1.769l0.41,1.635c0,0,0.293,1.161,0.436,1.727
						c0.368,1.289,2.048,1.709,3.203,1.883c1.796,0.27,6.381-0.059,9.148-1.591c1.271-0.704,1.357-1.469,1.357-1.469
						c-0.016-0.466,0.027-1.708,0.027-1.708c0.776-0.028,1.666,0.357,1.536,2.038c-0.227,2.934-0.484,8.069-0.031,10.74
						c0.223,1.314,0.591,2.864,0.789,4.182c0.133,0.888,0.097,3.504-1.073,4.555c-0.006,0.005-0.013,0.008-0.02,0.013
						c-0.292,0.381-0.669,0.737-1.177,1.052c-2.539,1.58-6.964,1.312-9.08-0.745c-2.638-2.563-4.498-4.89-8.195-7.962
						c-2.186-1.816-4.304-2.687-6.077-4.928c0,0,0,0-0.001-0.009c-0.822-1.045-1.573-2.392-2.215-4.262
						C379.16,378.03,379.584,376.34,382.059,374.888z"/>
					<g>
						<path style="fill:#FAFAFA;" d="M389.056,384.425c0.703-1.988,1.95-3.351,3.252-4.279c-0.152-0.607-0.313-1.221-0.467-1.853
							c-3.32,1.56-4.48,4.368-4.802,5.319C386.692,384.731,388.283,385.364,389.056,384.425z"/>
						<path style="fill:#FAFAFA;" d="M392.664,385.949c0.199-0.558,0.439-1.068,0.718-1.531c-0.21-0.826-0.436-1.718-0.676-2.662
							c-1.284,1.341-1.85,2.752-2.059,3.38C390.3,386.255,391.891,386.889,392.664,385.949z"/>
						<path style="fill:#FAFAFA;" d="M382.684,386.08c0,0,0,0-0.001-0.009c-0.023-0.292-0.425-7.163,8.748-9.413
							c-0.014-0.05-0.165-0.649-0.226-0.893l-0.001-0.009c-0.88-0.779-2.315-1.733-4.213-1.996
							c-3.347-0.462-5.792,0.701-7.211,3.113C378.36,379.276,380.824,384.886,382.684,386.08z"/>
					</g>
				</g>
			</g>
			<g>
				<g>
					<path id="XMLID_404_" style="fill:#FFA8A7;" d="M329.21,186.701c-3.874-0.915-10.814-2.975-18.529-5.666
						c-8.495-2.962-17.334-5.61-18.82-5.875c-2.836-0.506-6.908-0.239-9.431-0.92c-3.034-0.819-6.048-1.061-8.682-2.982
						c-0.749-0.546-1.471-1.286-1.531-2.211c-0.031-0.471,0.117-0.939,0.093-1.411c-0.038-0.732-0.486-1.417-0.412-2.146
						c0.102-1.007,1.163-1.74,1.2-2.752c0.017-0.444-0.171-0.868-0.238-1.307c-0.124-0.805,0.673-1.876,1.111-2.518
						c0.237-0.347,0.904-0.943,0.53-1.39c-0.454-0.542-1.452-1.625-4.232-3.953c-2.779-2.329-4.299-4.46-3.141-5.792
						c1.606-1.848,4.543,0.54,8.26,3.142c2.074,1.451,4.106,2.96,6.202,4.379c0.818,0.553,4.137,3.256,5.009,1.905
						c0.271-0.42,0.256-0.959,0.211-1.457c-0.092-1.036-0.268-2.066-0.293-3.105c-0.025-1.04,0.11-2.11,0.602-3.026
						c0.185-0.345,0.428-0.673,0.765-0.874c0.337-0.201,0.78-0.253,1.119-0.056c0.348,0.203,0.515,0.608,0.658,0.985
						c0.475,1.251,0.949,2.502,1.424,3.753c0.785,2.068,1.374,4.191,2.633,6.05c0.827,1.22,2.217,2.849,3.562,3.48
						c1,0.47,7.665,2.077,9.842,2.602c3.762,0.907,25.126,5.316,25.547,5.411l57.523-6.261l-0.797,18.749
						C389.395,183.455,336.786,188.49,329.21,186.701z"/>
					<path style="fill:#27DEBF;" d="M387.403,162.833c3.907-0.525,9.805-0.485,13.153,3.903s3.314,7.869,3.275,13.475
						c-0.04,5.634-2.777,15.583-2.777,15.583L387.403,162.833z"/>
					<path id="XMLID_406_" style="fill:#F28F8F;" d="M282.772,163.476c0.02,0.294-0.045,0.592-0.245,0.802
						c-0.199,0.208-0.499,0.293-0.787,0.297c-0.288,0.004-0.571-0.062-0.854-0.113c-0.228-0.041-0.537-0.023-0.595,0.201
						c-0.035,0.134,0.051,0.268,0.14,0.374c0.359,0.424,0.845,0.717,1.267,1.078c0.553,0.473,1.216,1.382,0.601,2.046
						c-0.379,0.409-0.852,0.59-1.408,0.534c-0.395-0.04-0.781-0.158-1.177-0.17c-0.07-0.002-0.168,0.029-0.154,0.098
						c0.006,0.027,0.028,0.046,0.049,0.063c0.499,0.411,1.126,0.793,1.461,1.352c0.206,0.343,0.421,0.811,0.253,1.213
						c-0.199,0.477-0.972,0.72-1.439,0.747c-0.078,0.005-0.156,0.009-0.234,0.014c-0.027,0.028-0.021,0.04-0.013,0.049
						c0.019,0.018,0.043,0.028,0.068,0.037c0.144,0.053,0.293,0.093,0.444,0.121c0.757,0.138,1.477-0.432,1.682-1.146
						c0.23-0.8-0.081-1.331-0.535-1.788c0.618,0.071,1.176-0.03,1.821-0.72c1.046-1.118,0.353-2.057-0.527-2.897
						c0.348-0.063,0.619-0.204,0.831-0.392c0.169,1.841,0.696,3.858,1.948,5.639c0,0-1.251-3.202-1.107-6.654
						c-0.034-0.532,0.079-1.119,0.157-1.645c0.071-0.487,0.164-0.972,0.276-1.451c0.183-0.78,0.387-1.574,0.738-2.291
						c-0.517,0.302-0.964,0.724-1.305,1.216c-0.298,0.43-0.283,1.076-0.934,1.148c-0.373,0.042-0.736-0.128-1.061-0.315
						c-0.325-0.188-0.647-0.403-1.017-0.468c-0.08-0.014-0.175-0.016-0.227,0.047c-0.074,0.089,0,0.222,0.076,0.31
						c0.646,0.749,1.501,1.397,1.754,2.354C282.747,163.266,282.765,163.371,282.772,163.476z"/>
				</g>
				<g>
					<polygon id="XMLID_685_" style="fill:#FFA8A7;" points="362.381,156.002 364.293,174.336 382.601,175.339 381.142,154.072 
											"/>
					<path id="XMLID_661_" style="fill:#F28F8F;" d="M351.68,134.054c0,0-4.644,6.29-4.188,6.957
						c0.455,0.666,3.586,1.412,3.586,1.412L351.68,134.054z"/>
					<path id="XMLID_651_" style="fill:#FFA8A7;" d="M364.571,116.655c-8.792,1.371-11.506,5.059-13.061,18.826
						c-1.625,14.386-0.393,19,1.398,21.045c1.21,1.379,8.31,1.995,11.95,1.197c4.557-0.999,14.896-4.054,20.036-11.06
						c6.045-8.243,8.131-19.739,2.399-24.806C379.226,114.726,368.149,116.098,364.571,116.655z"/>
					<path id="XMLID_648_" style="fill:#37474F;" d="M350.507,121.256c0.611,0.72,1.359,1.319,2.126,1.875
						c1.123,0.815,2.302,1.553,3.525,2.21c1.148,0.616,2.418,1.024,3.442,1.84c1.517,1.209,1.641,2.711,1.585,4.526
						c-0.036,1.188-0.119,2.66-0.186,4.257c-0.101,2.397,1.332,4.301,2.249,1.129c0,0,1.659-5.261,6.119-4.351
						c4.49,0.917,4.586,5.998,2.23,9.86c-1.433,2.35-4.893,1.53-4.893,1.53s-1.146,6.607,4.051,12.346c0,0,3.467,2.054,10.617,0.923
						c5.203-6.407,8.422-9.482,11.312-15.097c6.113-11.877,3.883-19.652-0.172-23.094c-0.541-5.652-4.822-8.401-9.794-9.826
						c-7.435-2.13-14.712,1.963-22.067-0.101c-1.196-0.335-2.432-0.692-3.58-1.146c-0.469-0.186-0.997-0.372-1.464-0.179
						c-0.592,0.245-0.8,0.985-0.792,1.626c0.02,1.441,0.794,2.851,2.001,3.641c-0.148-0.097-0.88,0.063-1.083,0.065
						c-0.418,0.005-0.837-0.011-1.255-0.023c-0.808-0.023-1.629-0.188-2.435-0.304c-0.561-0.081-1.138-0.162-1.69-0.033
						c-1.268,0.296-2.06,1.662-2.091,2.963c-0.032,1.301,0.53,2.539,1.149,3.684c0.251,0.463,0.513,0.921,0.828,1.342
						C350.324,121.035,350.414,121.147,350.507,121.256z"/>
					<path style="fill:#F28F8F;" d="M352.908,156.526c0.979,1.116,5.81,1.731,9.548,1.504l0.263-0.017l-0.261-2.055
						C362.458,155.958,356.479,157.409,352.908,156.526z"/>
				</g>
				<path id="XMLID_681_" style="fill:#455A64;" d="M399.538,172.47c-2.247-5.416-7.13-10.554-13.412-9.51
					c-1.459,0.243-2.843,0.363-4.226,0.612c-0.743,3.072-10.531,3.361-18.574,1.499l-9.43,1.126
					c-5.768,1.939-10.402,13.07-11.226,29.968c-0.824,16.898,0.088,43.032,0.417,54.792c14.283,5.965,28.27,5.403,36.576,3.751
					c17.291-3.438,20.108-10.863,20.108-10.863l-1.334-30.252c0.028-6.579,2.408-15.503,2.91-19.732
					C402.888,180.877,400.904,175.763,399.538,172.47z"/>
			</g>
		</g>
		<g id="Dart">
			<g>
				<path style="fill:#455A64;" d="M228.47,184.693c-0.723,0.482-1.264,1.576-1.208,2.443c0.028,0.434,0.2,0.729,0.455,0.855
					c0.255,0.126,32.788,16.273,32.788,16.273l1.715-3.452c0,0-32.539-16.15-32.794-16.277
					C229.17,184.41,228.832,184.452,228.47,184.693z"/>
				<path style="fill:#455A64;" d="M227.717,187.992c-4.021-1.988-12.207-8.201-12.207-8.201s11.918,3.725,13.915,4.746
					L227.717,187.992z"/>
				<polygon style="opacity:0.2;fill:#FFFFFF;" points="261.257,200.966 228.998,185.059 215.51,179.79 228.529,186.348 
					261.139,202.633 				"/>
				<path style="fill:#37474F;" d="M261.257,200.966c-0.723,0.482-1.264,1.576-1.208,2.444c0.056,0.867,0.688,1.18,1.411,0.697
					c0.723-0.482,1.264-1.576,1.208-2.443C262.612,200.796,261.98,200.484,261.257,200.966z"/>
			</g>
			<g>
				<path style="fill:#27DEBF;" d="M260.104,201.842c4.566-8.41,27.064-19.589,45.686-10.383
					c18.622,9.206,53.118,44.894,62.241,63.523c-21.844,3.753-66.48,0.32-84.447-8.562
					C265.618,237.537,256.217,221.422,260.104,201.842z"/>
				<path style="opacity:0.7;fill:#FFFFFF;" d="M260.104,201.842c4.566-8.41,27.064-19.589,45.686-10.383
					c18.622,9.206,53.118,44.894,62.241,63.523c-21.844,3.753-66.48,0.32-84.447-8.562
					C265.618,237.537,256.217,221.422,260.104,201.842z"/>
				<path style="fill:#27DEBF;" d="M276.019,231.294c-0.918-14.218,6.661-31.293,16.927-38.138c4.341-2.895,8.468-3.495,11.854-2.15
					c-18.421-8.346-40.211,2.574-44.696,10.836c-3.887,19.58,5.514,35.695,23.481,44.578c0.011,0.005,0.022,0.011,0.033,0.016
					C279.423,244.311,276.518,239.019,276.019,231.294z"/>
				<path style="opacity:0.15;" d="M283.585,246.419c17.966,8.882,62.6,12.314,84.444,8.562
					c-19.095,0.376-54.065-5.763-73.895-16.223c-16.385-8.643-30.783-23.761-34.03-36.916
					C256.217,221.422,265.618,237.537,283.585,246.419z"/>
				<path style="opacity:0.5;fill:#FFFFFF;" d="M260.104,201.842c17.57-7.081,35.868-3.289,48.26,3.345
					c12.392,6.634,50.147,35.927,59.665,49.795c0,0-27.108-37.554-56.549-54.976C282.039,182.584,260.104,201.842,260.104,201.842z"
					/>
			</g>
			<g>
				<path style="fill:#27DEBF;" d="M406.818,290.772c-2.941,4.133-13.553-1.154-25.089-10.541l0-0.006l-6.08-12.984l2.13,9.645
					c-6.916-6.071-13.885-13.369-19.512-20.785c3.358-0.229,6.625-0.592,9.767-1.119l16.118,7.785
					C384.151,262.766,411.753,283.841,406.818,290.772z"/>
				<path style="opacity:0.15;" d="M406.818,290.772c-2.941,4.133-13.553-1.154-25.089-10.541l0-0.006l-6.08-12.984l2.13,9.645
					c-6.916-6.071-13.885-13.369-19.512-20.785c3.358-0.229,6.625-0.592,9.767-1.119l16.118,7.785
					C384.151,262.766,411.753,283.841,406.818,290.772z"/>
				<g style="opacity:0.15;">
					<path d="M358.266,256.1c2.749,3.623,5.821,7.215,9.047,10.652c-3.516-3.917-5.559-8.813-5.559-8.813l6.395-1.105l16.003,5.932
						l-16.118-7.785C364.891,255.508,361.624,255.871,358.266,256.1z"/>
				</g>
			</g>
			<g>
				<path style="fill:#27DEBF;" d="M384.151,262.766l-16.118-7.785c-4.295-3.685-5.216-5.477-9.486-8.771
					c8.529-0.753,15.748-0.991,21.809-0.793l-3.772,5.404l9.972-5.018c8.848,0.849,14.519,2.848,17.72,5.589
					C413.912,259.634,401.768,266.46,384.151,262.766z"/>
				<path style="opacity:0.5;fill:#FFFFFF;" d="M376.584,250.822l3.772-5.404c-6.061-0.198-13.28,0.039-21.809,0.793
					c0,0,16.716-0.173,19.357,0.284L376.584,250.822z"/>
				<path style="opacity:0.5;fill:#FFFFFF;" d="M393.001,263.786c12.417,0.176,19.183-5.63,11.274-12.393
					c-3.201-2.741-8.871-4.74-17.72-5.589l-4.986,2.509l5.57-1.542c0,0,11.383,1.15,16.47,6.769
					C406.73,256.987,403.185,263.705,393.001,263.786z"/>
			</g>
		</g>
		<g>
			<path style="fill:#FFA8A7;" d="M351.283,191.512c-10.543,19.926-16.56,33.36-19.874,36.717s-28.295,23.001-37.331,23.899
				c-9.036,0.898-17.114-1.863-17.898-6.462c-0.413-2.424-0.048-3.893-0.048-3.893s2.164,1.52,2.273,1.557
				c2.751,0.941,6.921,0.629,8.918-0.896c2.933-2.24-3.705-4.038-5.252-5.876c-1.977-2.348-1.131-4.887,3.854-2.706
				c4.349,1.903,8.209,3.422,11.289,3.322c3.08-0.1,20.849-18.684,20.849-18.684s9.52-20.113,13.95-30.847
				c8.325-20.174,16.473-20.069,20.895-20.174L351.283,191.512z"/>
			<path id="XMLID_680_" style="fill:#27DEBF;" d="M353.897,166.197c-4.326,0.429-7.559,0.623-11.181,2.531
				c-4.388,2.311-5.931,6.444-7.921,10.971c-3.798,8.638-7.397,16.485-7.397,16.485c1.437,3.896,9.479,13.252,16.776,10.533
				c0,0,6.14-10.599,9.34-17.441C356.496,182.901,357.089,171.462,353.897,166.197z"/>
		</g>
	</g>
</g>
</svg>
