<svg xmlns="http://www.w3.org/2000/svg" xmlns:xlink="http://www.w3.org/1999/xlink" width="500" zoomAndPan="magnify" viewBox="0 0 375 374.999991" height="500" preserveAspectRatio="xMidYMid meet" version="1.0"><defs><g/><clipPath id="fef3a07c0f"><path d="M 23.429688 124 L 80 124 L 80 192 L 23.429688 192 Z M 23.429688 124 " clip-rule="nonzero"/></clipPath><clipPath id="e421adea87"><path d="M 23.472656 151.90625 C 23.601562 151.707031 23.785156 151.792969 23.945312 151.835938 C 27.84375 152.9375 31.800781 152.765625 35.757812 152.335938 C 38.816406 152.003906 41.867188 151.605469 44.964844 151.351562 C 43.316406 150.988281 41.667969 150.632812 40.019531 150.257812 C 37.414062 149.65625 34.832031 149 32.417969 147.792969 C 28.613281 145.890625 26.816406 142.546875 25.75 138.617188 C 26.070312 138.613281 26.183594 138.8125 26.328125 138.9375 C 29.152344 141.441406 32.457031 142.9375 36.128906 143.660156 C 39.316406 144.289062 42.546875 144.710938 45.722656 145.675781 C 45.597656 145.265625 45.273438 145.21875 45.039062 145.082031 C 41.777344 143.097656 38.457031 141.207031 35.363281 138.960938 C 34.886719 138.613281 34.433594 138.242188 33.960938 137.890625 C 30.300781 135.125 28.789062 131.394531 29.039062 126.875 C 29.089844 125.964844 29.148438 125.054688 29.203125 124.097656 C 29.285156 124.160156 29.382812 124.199219 29.394531 124.253906 C 30.238281 127.828125 32.539062 130.367188 35.3125 132.554688 C 37.925781 134.621094 40.796875 136.296875 43.769531 137.78125 C 51.324219 141.542969 58.277344 146.34375 65.699219 150.339844 C 68.625 151.917969 71.367188 153.804688 73.894531 155.972656 C 75.550781 157.398438 77.0625 158.957031 78.179688 160.855469 C 79.464844 163.050781 79.890625 165.355469 79.339844 167.890625 C 78.4375 172.023438 78.054688 176.253906 77.132812 180.390625 C 76.316406 184.050781 74.964844 187.464844 72.441406 190.320312 C 72.214844 190.578125 72.03125 190.886719 71.609375 191.074219 C 71.96875 189.765625 72.347656 188.539062 72.550781 187.265625 C 73.007812 184.402344 72.402344 181.71875 71.230469 179.121094 C 70.421875 177.332031 69.566406 175.550781 69.296875 173.570312 C 69.125 172.289062 69.183594 171.015625 69.449219 169.492188 C 68.433594 170.441406 67.59375 171.210938 66.769531 171.992188 C 64.335938 174.300781 61.878906 176.585938 58.859375 178.136719 C 56.289062 179.453125 53.625 180.042969 50.789062 179.035156 C 50.605469 178.96875 50.429688 178.890625 50.242188 178.75 C 52.984375 178.765625 54.828125 177.203125 56.488281 175.316406 C 57.75 173.875 58.769531 172.253906 59.824219 170.664062 C 60.503906 169.636719 61.199219 168.621094 61.929688 167.542969 C 60.097656 167.984375 58.371094 168.613281 56.636719 169.226562 C 53.953125 170.179688 51.3125 171.269531 48.472656 171.691406 C 45.996094 172.0625 43.578125 171.863281 41.277344 170.699219 C 43.855469 170.554688 45.8125 169.113281 47.753906 167.664062 C 49.253906 166.546875 50.75 165.417969 52.71875 164.601562 C 50.691406 164.421875 48.949219 164.804688 47.203125 165.003906 C 43.808594 165.386719 40.425781 165.804688 37.015625 165.253906 C 34.433594 164.835938 32.074219 163.867188 29.902344 162.316406 C 33.113281 162.636719 35.640625 160.933594 38.285156 159.597656 C 39.59375 158.933594 40.949219 158.390625 42.363281 157.867188 C 40.199219 157.746094 38.03125 157.628906 35.867188 157.5 C 33.988281 157.386719 32.125 157.152344 30.304688 156.632812 C 27.488281 155.828125 25.25 154.207031 23.484375 151.890625 C 23.488281 151.886719 23.472656 151.90625 23.472656 151.90625 Z M 23.472656 151.90625 " clip-rule="nonzero"/></clipPath><linearGradient x1="39.599002" gradientTransform="matrix(0.311161, 0, 0, 0.311426, 7.889847, 93.592288)" y1="108.440916" x2="237.788625" gradientUnits="userSpaceOnUse" y2="306.631347" id="85b6e2874f"><stop stop-opacity="1" stop-color="rgb(100%, 100%, 100%)" offset="0"/><stop stop-opacity="1" stop-color="rgb(99.967957%, 99.996948%, 100%)" offset="0.125"/><stop stop-opacity="1" stop-color="rgb(99.742126%, 99.984741%, 100%)" offset="0.1875"/><stop stop-opacity="1" stop-color="rgb(99.357605%, 99.964905%, 100%)" offset="0.25"/><stop stop-opacity="1" stop-color="rgb(98.971558%, 99.943542%, 100%)" offset="0.3125"/><stop stop-opacity="1" stop-color="rgb(98.587036%, 99.923706%, 100%)" offset="0.375"/><stop stop-opacity="1" stop-color="rgb(98.200989%, 99.902344%, 100%)" offset="0.4375"/><stop stop-opacity="1" stop-color="rgb(97.814941%, 99.882507%, 100%)" offset="0.457439"/><stop stop-opacity="1" stop-color="rgb(97.622681%, 99.871826%, 100%)" offset="0.5"/><stop stop-opacity="1" stop-color="rgb(97.43042%, 99.861145%, 100%)" offset="0.542561"/><stop stop-opacity="1" stop-color="rgb(97.238159%, 99.85199%, 100%)" offset="0.5625"/><stop stop-opacity="1" stop-color="rgb(97.044373%, 99.841309%, 100%)" offset="0.625"/><stop stop-opacity="1" stop-color="rgb(96.659851%, 99.821472%, 100%)" offset="0.6875"/><stop stop-opacity="1" stop-color="rgb(96.273804%, 99.80011%, 100%)" offset="0.75"/><stop stop-opacity="1" stop-color="rgb(95.887756%, 99.780273%, 100%)" offset="0.8125"/><stop stop-opacity="1" stop-color="rgb(95.503235%, 99.758911%, 100%)" offset="0.875"/><stop stop-opacity="1" stop-color="rgb(95.117188%, 99.739075%, 100%)" offset="0.9375"/><stop stop-opacity="1" stop-color="rgb(94.732666%, 99.717712%, 100%)" offset="1"/></linearGradient><clipPath id="638cd3add5"><path d="M 94 124 L 147.929688 124 L 147.929688 192 L 94 192 Z M 94 124 " clip-rule="nonzero"/></clipPath><clipPath id="7cc29e4f2d"><path d="M 147.871094 151.832031 C 146.125 154.457031 143.617188 155.964844 140.632812 156.761719 C 138.203125 157.414062 135.703125 157.492188 133.210938 157.636719 C 131.859375 157.714844 130.511719 157.78125 129.109375 157.855469 C 129.171875 157.949219 129.199219 158.046875 129.25 158.058594 C 131.375 158.601562 133.277344 159.65625 135.203125 160.660156 C 137.148438 161.679688 139.144531 162.515625 141.421875 162.234375 C 141.503906 162.605469 141.183594 162.621094 141.015625 162.726562 C 137.628906 164.886719 133.890625 165.65625 129.917969 165.5 C 126.359375 165.359375 122.851562 164.734375 119.308594 164.449219 C 119.015625 164.421875 118.726562 164.398438 118.40625 164.425781 C 120.988281 165.390625 122.988281 167.246094 125.207031 168.761719 C 126.691406 169.78125 128.269531 170.570312 130.136719 170.683594 C 128.96875 171.339844 127.71875 171.65625 126.414062 171.785156 C 123.78125 172.050781 121.277344 171.457031 118.804688 170.640625 C 116.078125 169.734375 113.414062 168.632812 110.648438 167.835938 C 110.335938 167.746094 110.039062 167.613281 109.632812 167.753906 C 111.667969 170.488281 113.207031 173.542969 115.582031 176.003906 C 117.140625 177.613281 118.90625 178.800781 121.535156 178.648438 C 118.558594 179.984375 115.882812 179.644531 113.246094 178.453125 C 110.972656 177.425781 109.007812 175.933594 107.164062 174.28125 C 105.785156 173.042969 104.453125 171.753906 103.089844 170.5 C 102.773438 170.210938 102.507812 169.84375 102 169.6875 C 102.605469 172.796875 101.496094 175.449219 99.984375 178 C 98.996094 179.664062 97.910156 181.277344 97.128906 183.058594 C 96.082031 185.433594 95.871094 187.875 96.613281 190.375 C 96.6875 190.625 96.800781 190.867188 96.683594 191.132812 C 94.195312 187.089844 93.710938 182.835938 95.226562 178.3125 C 96.042969 175.886719 96.695312 173.40625 96.539062 170.800781 C 96.496094 170.042969 96.445312 169.269531 96.277344 168.527344 C 95.585938 165.433594 96.179688 162.574219 97.757812 159.882812 C 99.734375 156.523438 102.515625 153.898438 105.605469 151.625 C 112.582031 146.476562 119.792969 141.6875 127.582031 137.816406 C 130.550781 136.339844 133.421875 134.660156 136.042969 132.597656 C 138.429688 130.722656 140.5 128.585938 141.589844 125.667969 C 141.769531 125.1875 141.910156 124.6875 142.101562 124.105469 C 143.351562 129.664062 141.746094 134.375 137.464844 137.878906 C 135.613281 139.386719 133.613281 140.671875 131.589844 141.917969 C 129.59375 143.148438 127.578125 144.34375 125.527344 145.582031 C 125.617188 145.605469 125.6875 145.65625 125.742188 145.640625 C 128.902344 144.699219 132.167969 144.265625 135.390625 143.628906 C 139.164062 142.886719 142.511719 141.289062 145.367188 138.691406 C 145.449219 138.617188 145.554688 138.5625 145.667969 138.480469 C 144.457031 143.871094 141.335938 147.425781 136.011719 149.019531 C 132.832031 149.972656 129.589844 150.628906 126.359375 151.40625 C 128.355469 151.5625 130.347656 151.71875 132.328125 151.949219 C 135.015625 152.261719 137.699219 152.605469 140.402344 152.652344 C 142.734375 152.699219 145.039062 152.492188 147.296875 151.871094 C 147.484375 151.820312 147.683594 151.703125 147.882812 151.839844 Z M 147.871094 151.832031 " clip-rule="nonzero"/></clipPath><linearGradient x1="263.252" gradientTransform="matrix(0.311161, 0, 0, 0.311426, 7.889847, 93.592288)" y1="110.538003" x2="457.916992" gradientUnits="userSpaceOnUse" y2="305.203004" id="8177775121"><stop stop-opacity="1" stop-color="rgb(97.193909%, 99.848938%, 100%)" offset="0"/><stop stop-opacity="1" stop-color="rgb(97.0047%, 99.838257%, 100%)" offset="0.0625"/><stop stop-opacity="1" stop-color="rgb(96.626282%, 99.81842%, 100%)" offset="0.125"/><stop stop-opacity="1" stop-color="rgb(96.247864%, 99.798584%, 100%)" offset="0.1875"/><stop stop-opacity="1" stop-color="rgb(95.869446%, 99.778748%, 100%)" offset="0.25"/><stop stop-opacity="1" stop-color="rgb(95.491028%, 99.758911%, 100%)" offset="0.3125"/><stop stop-opacity="1" stop-color="rgb(95.11261%, 99.737549%, 100%)" offset="0.375"/><stop stop-opacity="1" stop-color="rgb(94.734192%, 99.717712%, 100%)" offset="0.4375"/><stop stop-opacity="1" stop-color="rgb(94.355774%, 99.697876%, 100%)" offset="0.447179"/><stop stop-opacity="1" stop-color="rgb(94.166565%, 99.688721%, 100%)" offset="0.5"/><stop stop-opacity="1" stop-color="rgb(93.97583%, 99.67804%, 100%)" offset="0.552821"/><stop stop-opacity="1" stop-color="rgb(93.786621%, 99.667358%, 100%)" offset="0.5625"/><stop stop-opacity="1" stop-color="rgb(93.597412%, 99.656677%, 100%)" offset="0.625"/><stop stop-opacity="1" stop-color="rgb(93.218994%, 99.636841%, 100%)" offset="0.6875"/><stop stop-opacity="1" stop-color="rgb(92.840576%, 99.617004%, 100%)" offset="0.75"/><stop stop-opacity="1" stop-color="rgb(92.575073%, 99.603271%, 100%)" offset="1"/></linearGradient><clipPath id="0e21f829d1"><path d="M 69 136 L 101 136 L 101 224.421875 L 69 224.421875 Z M 69 136 " clip-rule="nonzero"/></clipPath><clipPath id="03e3a60e01"><path d="M 86.46875 224.410156 C 80.601562 217.664062 77.3125 209.917969 76.589844 201.074219 C 76.011719 193.960938 77.035156 187 78.472656 180.070312 C 79.714844 174.089844 81.359375 168.199219 82.328125 162.15625 C 82.945312 158.308594 83.304688 154.449219 82.441406 150.585938 C 82.0625 148.878906 81.386719 147.296875 80.472656 145.804688 C 80.097656 145.1875 79.695312 145.027344 78.976562 145.15625 C 75.90625 145.699219 73.082031 145.097656 70.59375 143.152344 C 70.375 142.980469 70.085938 142.847656 69.988281 142.46875 C 74 143.253906 77.457031 141.855469 80.777344 139.878906 C 82.035156 139.128906 83.304688 138.386719 84.589844 137.679688 C 86.148438 136.816406 87.761719 136.4375 89.585938 136.78125 C 91.554688 137.152344 93.503906 136.652344 95.417969 136.195312 C 96.960938 135.824219 98.390625 135.960938 99.683594 136.929688 C 99.941406 137.121094 100.226562 137.292969 100.363281 137.667969 C 99.730469 137.457031 99.128906 137.5 98.566406 137.78125 C 96.21875 138.960938 94.007812 140.335938 92.179688 142.257812 C 89.695312 144.871094 89.359375 148.023438 89.933594 151.390625 C 90.488281 154.652344 91.785156 157.691406 92.753906 160.832031 C 93.84375 164.371094 94.554688 167.945312 94.101562 171.683594 C 93.730469 174.804688 92.480469 177.613281 91.167969 180.410156 C 89.191406 184.632812 87.015625 188.769531 85.285156 193.113281 C 81.28125 203.183594 81.964844 213.117188 86.046875 222.972656 C 86.203125 223.351562 86.355469 223.730469 86.5 224.113281 C 86.519531 224.164062 86.488281 224.230469 86.46875 224.410156 Z M 86.46875 224.410156 " clip-rule="nonzero"/></clipPath><linearGradient x1="164.734475" gradientTransform="matrix(0.311161, 0, 0, 0.311426, 7.889847, 93.592288)" y1="170.445474" x2="355.769453" gradientUnits="userSpaceOnUse" y2="361.480454" id="b1e6dd4575"><stop stop-opacity="1" stop-color="rgb(97.795105%, 99.880981%, 100%)" offset="0"/><stop stop-opacity="1" stop-color="rgb(97.608948%, 99.8703%, 100%)" offset="0.0625"/><stop stop-opacity="1" stop-color="rgb(97.238159%, 99.850464%, 100%)" offset="0.125"/><stop stop-opacity="1" stop-color="rgb(96.865845%, 99.832153%, 100%)" offset="0.1875"/><stop stop-opacity="1" stop-color="rgb(96.495056%, 99.812317%, 100%)" offset="0.25"/><stop stop-opacity="1" stop-color="rgb(96.122742%, 99.79248%, 100%)" offset="0.255503"/><stop stop-opacity="1" stop-color="rgb(95.93811%, 99.783325%, 100%)" offset="0.3125"/><stop stop-opacity="1" stop-color="rgb(95.751953%, 99.772644%, 100%)" offset="0.375"/><stop stop-opacity="1" stop-color="rgb(95.379639%, 99.752808%, 100%)" offset="0.4375"/><stop stop-opacity="1" stop-color="rgb(95.00885%, 99.732971%, 100%)" offset="0.5"/><stop stop-opacity="1" stop-color="rgb(94.636536%, 99.713135%, 100%)" offset="0.5625"/><stop stop-opacity="1" stop-color="rgb(94.265747%, 99.693298%, 100%)" offset="0.625"/><stop stop-opacity="1" stop-color="rgb(93.893433%, 99.673462%, 100%)" offset="0.6875"/><stop stop-opacity="1" stop-color="rgb(93.522644%, 99.653625%, 100%)" offset="0.744497"/><stop stop-opacity="1" stop-color="rgb(93.336487%, 99.64447%, 100%)" offset="0.75"/><stop stop-opacity="1" stop-color="rgb(93.15033%, 99.633789%, 100%)" offset="0.8125"/><stop stop-opacity="1" stop-color="rgb(92.779541%, 99.613953%, 100%)" offset="0.875"/><stop stop-opacity="1" stop-color="rgb(92.546082%, 99.601746%, 100%)" offset="1"/></linearGradient><clipPath id="ebb16965e3"><path d="M 67 118 L 107 118 L 107 155 L 67 155 Z M 67 118 " clip-rule="nonzero"/></clipPath><clipPath id="a8b4995510"><path d="M 102.769531 134.300781 C 105.464844 141.101562 104.402344 148.460938 100.578125 154.085938 C 105.910156 148.277344 107.777344 139.710938 104.675781 131.890625 C 100.359375 120.996094 88.027344 115.667969 77.140625 119.988281 C 73.050781 121.613281 69.742188 124.375 67.4375 127.761719 C 69.53125 125.480469 72.160156 123.621094 75.230469 122.402344 C 86.121094 118.078125 98.449219 123.40625 102.769531 134.300781 Z M 102.769531 134.300781 " clip-rule="nonzero"/></clipPath><linearGradient x1="200.550497" gradientTransform="matrix(0.311161, 0, 0, 0.311426, 7.889847, 93.592288)" y1="61.719496" x2="327.045479" gradientUnits="userSpaceOnUse" y2="188.214479" id="ac4a53fb76"><stop stop-opacity="1" stop-color="rgb(98.930359%, 99.942017%, 100%)" offset="0"/><stop stop-opacity="1" stop-color="rgb(98.806763%, 99.935913%, 100%)" offset="0.0625"/><stop stop-opacity="1" stop-color="rgb(98.55957%, 99.92218%, 100%)" offset="0.125"/><stop stop-opacity="1" stop-color="rgb(98.313904%, 99.908447%, 100%)" offset="0.1875"/><stop stop-opacity="1" stop-color="rgb(98.068237%, 99.89624%, 100%)" offset="0.25"/><stop stop-opacity="1" stop-color="rgb(97.822571%, 99.882507%, 100%)" offset="0.3125"/><stop stop-opacity="1" stop-color="rgb(97.575378%, 99.8703%, 100%)" offset="0.375"/><stop stop-opacity="1" stop-color="rgb(97.329712%, 99.856567%, 100%)" offset="0.4375"/><stop stop-opacity="1" stop-color="rgb(97.084045%, 99.842834%, 100%)" offset="0.487569"/><stop stop-opacity="1" stop-color="rgb(96.961975%, 99.836731%, 100%)" offset="0.5"/><stop stop-opacity="1" stop-color="rgb(96.838379%, 99.830627%, 100%)" offset="0.512431"/><stop stop-opacity="1" stop-color="rgb(96.716309%, 99.824524%, 100%)" offset="0.5625"/><stop stop-opacity="1" stop-color="rgb(96.592712%, 99.816895%, 100%)" offset="0.625"/><stop stop-opacity="1" stop-color="rgb(96.34552%, 99.804688%, 100%)" offset="0.6875"/><stop stop-opacity="1" stop-color="rgb(96.099854%, 99.790955%, 100%)" offset="0.75"/><stop stop-opacity="1" stop-color="rgb(95.854187%, 99.777222%, 100%)" offset="0.8125"/><stop stop-opacity="1" stop-color="rgb(95.608521%, 99.765015%, 100%)" offset="0.875"/><stop stop-opacity="1" stop-color="rgb(95.361328%, 99.751282%, 100%)" offset="0.9375"/><stop stop-opacity="1" stop-color="rgb(95.115662%, 99.739075%, 100%)" offset="1"/></linearGradient><clipPath id="f16cd4bad2"><path d="M 66 123 L 99 123 L 99 153 L 66 153 Z M 66 123 " clip-rule="nonzero"/></clipPath><clipPath id="92e3183ae2"><path d="M 83.28125 125.492188 C 89.402344 124.730469 95.183594 127.15625 98.960938 131.472656 C 95.347656 125.882812 88.757812 122.542969 81.71875 123.421875 C 71.914062 124.640625 64.953125 133.589844 66.175781 143.402344 C 66.632812 147.09375 68.1875 150.378906 70.460938 152.976562 C 69.042969 150.78125 68.082031 148.242188 67.738281 145.472656 C 66.515625 135.660156 73.476562 126.710938 83.28125 125.492188 Z M 83.28125 125.492188 " clip-rule="nonzero"/></clipPath><linearGradient x1="183.985058" gradientTransform="matrix(0.311161, 0, 0, 0.311426, 7.889847, 93.592288)" y1="92.364887" x2="287.495281" gradientUnits="userSpaceOnUse" y2="195.87468" id="1f7afd145a"><stop stop-opacity="1" stop-color="rgb(98.710632%, 99.92981%, 100%)" offset="0"/><stop stop-opacity="1" stop-color="rgb(98.609924%, 99.923706%, 100%)" offset="0.0625"/><stop stop-opacity="1" stop-color="rgb(98.408508%, 99.913025%, 100%)" offset="0.125"/><stop stop-opacity="1" stop-color="rgb(98.207092%, 99.902344%, 100%)" offset="0.1875"/><stop stop-opacity="1" stop-color="rgb(98.005676%, 99.891663%, 100%)" offset="0.25"/><stop stop-opacity="1" stop-color="rgb(97.80426%, 99.880981%, 100%)" offset="0.3125"/><stop stop-opacity="1" stop-color="rgb(97.602844%, 99.8703%, 100%)" offset="0.375"/><stop stop-opacity="1" stop-color="rgb(97.401428%, 99.859619%, 100%)" offset="0.4375"/><stop stop-opacity="1" stop-color="rgb(97.200012%, 99.848938%, 100%)" offset="0.472079"/><stop stop-opacity="1" stop-color="rgb(97.10083%, 99.84436%, 100%)" offset="0.5"/><stop stop-opacity="1" stop-color="rgb(97.000122%, 99.838257%, 100%)" offset="0.527921"/><stop stop-opacity="1" stop-color="rgb(96.899414%, 99.833679%, 100%)" offset="0.5625"/><stop stop-opacity="1" stop-color="rgb(96.798706%, 99.827576%, 100%)" offset="0.625"/><stop stop-opacity="1" stop-color="rgb(96.59729%, 99.816895%, 100%)" offset="0.6875"/><stop stop-opacity="1" stop-color="rgb(96.395874%, 99.806213%, 100%)" offset="0.75"/><stop stop-opacity="1" stop-color="rgb(96.194458%, 99.795532%, 100%)" offset="0.8125"/><stop stop-opacity="1" stop-color="rgb(95.993042%, 99.784851%, 100%)" offset="0.875"/><stop stop-opacity="1" stop-color="rgb(95.791626%, 99.77417%, 100%)" offset="0.9375"/><stop stop-opacity="1" stop-color="rgb(95.59021%, 99.763489%, 100%)" offset="1"/></linearGradient></defs><g fill="#ecfeff" fill-opacity="1"><g transform="translate(151.755749, 203.065021)"><g><path d="M 20.734375 -38.5 L 0.605469 -38.5 L 0.605469 -32.503906 L 6.65625 -32.503906 L 6.65625 0 L 14.738281 0 L 14.738281 -32.503906 L 20.734375 -32.503906 Z M 20.734375 -38.5 "/></g></g></g><g fill="#ecfeff" fill-opacity="1"><g transform="translate(173.094207, 203.065021)"><g><path d="M 15.34375 -28.378906 C 12.871094 -28.378906 10.835938 -26.949219 10.230469 -24.804688 L 9.84375 -24.804688 L 9.84375 -27.71875 L 2.144531 -27.71875 L 2.144531 0 L 9.84375 0 L 9.84375 -22.492188 C 9.84375 -22.492188 10.339844 -22.988281 11.054688 -22.988281 C 11.714844 -22.988281 12.097656 -22.328125 12.097656 -21.285156 L 12.097656 -16.554688 L 19.800781 -16.554688 L 19.800781 -23.152344 C 19.800781 -26.289062 17.984375 -28.378906 15.34375 -28.378906 Z M 15.34375 -28.378906 "/></g></g></g><g fill="#ecfeff" fill-opacity="1"><g transform="translate(193.827708, 203.065021)"><g><path d="M 5.941406 -30.742188 C 8.140625 -30.742188 9.898438 -32.503906 9.898438 -34.648438 C 9.898438 -36.792969 8.140625 -38.554688 5.941406 -38.554688 C 3.792969 -38.554688 2.035156 -36.792969 2.035156 -34.648438 C 2.035156 -32.503906 3.792969 -30.742188 5.941406 -30.742188 Z M 9.84375 0 L 9.84375 -27.5 L 2.144531 -27.5 L 2.144531 0 Z M 9.84375 0 "/></g></g></g><g fill="#ecfeff" fill-opacity="1"><g transform="translate(205.816835, 203.065021)"><g><path d="M 4.289062 0 L 15.125 0 L 19.25 -27.71875 L 11.550781 -27.71875 L 9.898438 -6.214844 L 9.515625 -6.214844 L 7.808594 -27.71875 L 0.164062 -27.71875 Z M 4.289062 0 "/></g></g></g><g fill="#ecfeff" fill-opacity="1"><g transform="translate(225.230431, 203.065021)"><g><path d="M 5.941406 -30.742188 C 8.140625 -30.742188 9.898438 -32.503906 9.898438 -34.648438 C 9.898438 -36.792969 8.140625 -38.554688 5.941406 -38.554688 C 3.792969 -38.554688 2.035156 -36.792969 2.035156 -34.648438 C 2.035156 -32.503906 3.792969 -30.742188 5.941406 -30.742188 Z M 9.84375 0 L 9.84375 -27.5 L 2.144531 -27.5 L 2.144531 0 Z M 9.84375 0 "/></g></g></g><g fill="#ecfeff" fill-opacity="1"><g transform="translate(237.219558, 203.065021)"><g><path d="M 21.394531 -5.609375 L 20.679688 -5.609375 C 20.128906 -5.609375 19.800781 -6.050781 19.800781 -6.65625 L 19.800781 -19.800781 C 19.800781 -24.96875 16.277344 -28.378906 10.667969 -28.378906 C 4.398438 -28.378906 1.539062 -24.96875 1.539062 -18.3125 L 9.238281 -18.3125 C 9.238281 -21.339844 9.515625 -22.988281 10.667969 -22.988281 C 11.878906 -22.988281 12.097656 -21.558594 12.097656 -18.863281 C 12.097656 -17.765625 11.605469 -17.269531 10.890625 -16.996094 C 8.691406 -16.277344 6.105469 -15.894531 4.289062 -14.519531 C 2.695312 -13.308594 1.539062 -11.21875 1.539062 -8.195312 C 1.539062 -3.683594 3.574219 0.496094 7.203125 0.496094 C 9.898438 0.496094 11.109375 -0.933594 11.714844 -3.136719 L 12.097656 -3.136719 L 12.265625 -2.53125 C 12.757812 -0.988281 14.410156 0 16.5 0 L 21.394531 0 Z M 10.613281 -5.335938 C 9.570312 -5.335938 9.183594 -7.257812 9.183594 -9.238281 C 9.183594 -11.550781 9.898438 -12.648438 11.988281 -13.253906 L 12.097656 -13.089844 L 12.042969 -7.09375 C 12.042969 -6.050781 11.441406 -5.335938 10.613281 -5.335938 Z M 10.613281 -5.335938 "/></g></g></g><g fill="#ecfeff" fill-opacity="1"><g transform="translate(259.437952, 203.065021)"><g><path d="M 2.695312 0 L 10.285156 0 L 10.230469 -23.484375 L 10.558594 -23.484375 L 15.070312 0 L 22.492188 0 L 22.492188 -38.441406 L 14.683594 -38.441406 L 14.738281 -15.125 L 14.410156 -15.125 L 10.121094 -38.5 L 2.695312 -38.5 Z M 2.695312 0 "/></g></g></g><g fill="#ecfeff" fill-opacity="1"><g transform="translate(284.626122, 203.065021)"><g><path d="M 12.429688 -5.5 C 12.429688 -5.5 11.878906 -4.949219 11 -4.949219 C 10.121094 -4.949219 9.570312 -5.71875 9.570312 -6.875 L 9.570312 -27.5 L 1.871094 -27.5 L 1.871094 -4.894531 C 1.871094 -1.703125 4.34375 0.496094 7.148438 0.496094 C 9.84375 0.496094 11.496094 -0.933594 12.097656 -3.136719 L 12.429688 -3.136719 L 12.429688 -3.078125 C 12.429688 -1.375 13.804688 0 15.507812 0 L 21.722656 0 L 21.722656 -4.839844 L 21.285156 -4.839844 C 20.625 -4.839844 20.128906 -5.390625 20.128906 -6.050781 L 20.128906 -27.5 L 12.429688 -27.5 Z M 12.429688 -5.5 "/></g></g></g><g fill="#ecfeff" fill-opacity="1"><g transform="translate(308.494387, 203.065021)"><g><path d="M 10.890625 -22.328125 L 14.628906 -22.328125 L 14.628906 -27.9375 L 10.890625 -27.9375 L 10.890625 -34.921875 L 3.191406 -34.921875 L 3.191406 -27.9375 L 0.605469 -27.9375 L 0.605469 -22.328125 L 3.191406 -22.328125 L 3.191406 -8.855469 C 3.191406 -3.792969 5.664062 0 9.789062 0 L 14.738281 0 L 14.738281 -5.609375 L 13.253906 -5.609375 C 11.714844 -5.609375 10.890625 -7.148438 10.890625 -8.855469 Z M 10.890625 -22.328125 "/></g></g></g><g fill="#ecfeff" fill-opacity="1"><g transform="translate(324.278238, 203.065021)"><g><path d="M 14.464844 -15.125 C 11.769531 -16.828125 9.074219 -18.09375 9.128906 -20.019531 C 9.238281 -22.878906 9.734375 -23.375 10.558594 -23.375 C 11.769531 -23.375 12.097656 -21.558594 12.097656 -18.535156 L 19.742188 -18.371094 C 19.742188 -24.308594 17.324219 -28.378906 10.558594 -28.378906 C 4.949219 -28.378906 1.429688 -26.070312 1.429688 -20.019531 C 1.429688 -16.445312 4.34375 -13.253906 8.414062 -11.878906 C 10.503906 -11.054688 12.042969 -10.230469 12.042969 -8.578125 C 12.042969 -5.445312 11.714844 -4.511719 10.558594 -4.511719 C 9.347656 -4.511719 9.128906 -6.765625 9.128906 -10.121094 L 1.429688 -10.121094 C 1.429688 -3.355469 5.5 0.496094 10.945312 0.496094 C 16.609375 0.496094 19.742188 -3.191406 19.742188 -7.863281 C 19.742188 -11.382812 17.105469 -13.472656 14.464844 -15.125 Z M 14.464844 -15.125 "/></g></g></g><g clip-path="url(#fef3a07c0f)"><g clip-path="url(#e421adea87)"><path fill="url(#85b6e2874f)" d="M 23.472656 124.097656 L 23.472656 191.074219 L 79.890625 191.074219 L 79.890625 124.097656 Z M 23.472656 124.097656 " fill-rule="nonzero"/></g></g><g clip-path="url(#638cd3add5)"><g clip-path="url(#7cc29e4f2d)"><path fill="url(#8177775121)" d="M 93.710938 124.105469 L 93.710938 191.132812 L 147.882812 191.132812 L 147.882812 124.105469 Z M 93.710938 124.105469 " fill-rule="nonzero"/></g></g><g clip-path="url(#0e21f829d1)"><g clip-path="url(#03e3a60e01)"><path fill="url(#b1e6dd4575)" d="M 69.988281 135.824219 L 69.988281 224.410156 L 100.363281 224.410156 L 100.363281 135.824219 Z M 69.988281 135.824219 " fill-rule="nonzero"/></g></g><g clip-path="url(#ebb16965e3)"><g clip-path="url(#a8b4995510)"><path fill="url(#ac4a53fb76)" d="M 67.4375 115.671875 L 67.4375 154.085938 L 107.777344 154.085938 L 107.777344 115.671875 Z M 67.4375 115.671875 " fill-rule="nonzero"/></g></g><g clip-path="url(#f16cd4bad2)"><g clip-path="url(#92e3183ae2)"><path fill="url(#1f7afd145a)" d="M 64.953125 122.542969 L 64.953125 152.976562 L 98.960938 152.976562 L 98.960938 122.542969 Z M 64.953125 122.542969 " fill-rule="nonzero"/></g></g></svg>