<?xml version="1.0" encoding="utf-8"?>
<!-- Generator: Adobe Illustrator 27.5.0, SVG Export Plug-In . SVG Version: 6.00 Build 0)  -->
<svg version="1.1" xmlns="http://www.w3.org/2000/svg" xmlns:xlink="http://www.w3.org/1999/xlink" x="0px" y="0px"
	 viewBox="0 0 500 500" style="enable-background:new 0 0 500 500;" xml:space="preserve">
<g id="BACKGROUND">
	<rect style="fill:#FFFFFF;" width="500" height="500"/>
</g>
<g id="OBJECTS">
	<g>
		<g>
			
				<linearGradient id="SVGID_1_" gradientUnits="userSpaceOnUse" x1="249.5451" y1="-16115.6563" x2="249.5451" y2="-15941.0283" gradientTransform="matrix(1 0 0 -1 0 -15882)">
				<stop  offset="0" style="stop-color:#827BE0"/>
				<stop  offset="1" style="stop-color:#BDD7FF"/>
			</linearGradient>
			<ellipse style="fill:url(#SVGID_1_);" cx="249.545" cy="160.392" rx="81.782" ry="104.147"/>
			<rect x="234.553" y="130.371" style="fill:#992929;" width="29.882" height="11.711"/>
			
				<linearGradient id="SVGID_00000178900788355833855530000007155168510270230423_" gradientUnits="userSpaceOnUse" x1="249.7816" y1="-16000.6826" x2="249.7816" y2="-16016.582" gradientTransform="matrix(1 0 0 -1 0 -15882)">
				<stop  offset="0" style="stop-color:#ED815A"/>
				<stop  offset="0.0972" style="stop-color:#F19064"/>
				<stop  offset="0.306" style="stop-color:#F7A974"/>
				<stop  offset="0.5222" style="stop-color:#FBBC80"/>
				<stop  offset="0.7482" style="stop-color:#FEC688"/>
				<stop  offset="1" style="stop-color:#FFCA8A"/>
			</linearGradient>
			<polygon style="fill:url(#SVGID_00000178900788355833855530000007155168510270230423_);" points="259.553,140.719 
				240.01,140.719 238.81,117.348 260.753,117.348 			"/>
			<g>
				<defs>
					
						<ellipse id="SVGID_00000039103796246416895790000005168699324161911710_" cx="249.545" cy="160.392" rx="81.782" ry="104.147"/>
				</defs>
				<clipPath id="SVGID_00000005233037531951904270000001862772241596810162_">
					<use xlink:href="#SVGID_00000039103796246416895790000005168699324161911710_"  style="overflow:visible;"/>
				</clipPath>
				<g style="clip-path:url(#SVGID_00000005233037531951904270000001862772241596810162_);">
					<path style="fill:#B53131;" d="M249.718,136.921v129.802h-39.983l-0.392-71.008c0,0,10.699-27.074-8.342-42.382l30.713-16.412
						H249.718z"/>
					<path style="fill:#A32C2C;" d="M249.718,136.921v129.802h39.983l0.392-71.008c0,0-10.698-27.074,8.342-42.382l-30.713-16.412
						H249.718z"/>
				</g>
			</g>
			<path style="fill:#4F4136;" d="M271.233,101.987c0,0,8.515-5.519,12.118-13.567c3.603-8.048,8.079-10.013,7.86-11.979
				c-0.218-1.965-3.493-4.109-3.493-4.109s4.913-0.258,4.039-5.498c-0.873-5.24-12.664-3.821-12.664-3.821
				s-0.655-11.572-2.293-11.681c-1.638-0.109-0.218,8.406-0.218,8.406s-13.428-25.655-20.96-23.799
				c-7.533,1.856-3.603,9.17-3.603,9.17s-6.004-6.769-12.991-5.022c-8.624-4.476-11.572-3.384-12.882-1.638s3.493,7.533,3.493,7.533
				s-9.607-7.969-18.231-4.476c-8.624,3.493,10.589,6.113,10.589,6.113s-21.615-0.873-22.816,10.589
				c-1.201,11.463,10.371,13.646,10.371,13.646s-0.255,6.659,8.515,10.917c0.109,8.624,9.235,18.044,9.235,18.044L271.233,101.987z"
				/>
			<g>
				
					<linearGradient id="SVGID_00000121248902819543520540000003186757769269658003_" gradientUnits="userSpaceOnUse" x1="220.3199" y1="-15975.4727" x2="236.0565" y2="-15978.2568" gradientTransform="matrix(1 0 0 -1 0 -15882)">
					<stop  offset="0" style="stop-color:#FFCA8A"/>
					<stop  offset="1" style="stop-color:#ED815A"/>
				</linearGradient>
				<path style="fill:url(#SVGID_00000121248902819543520540000003186757769269658003_);" d="M232.199,91.928
					c1.955,5.319,0.544,10.732-3.154,12.091c-3.697,1.359-8.279-1.85-10.235-7.169c-1.955-5.319-0.544-10.732,3.154-12.091
					C225.661,83.4,230.243,86.61,232.199,91.928z"/>
				
					<linearGradient id="SVGID_00000123419495606468975790000018350092856587683257_" gradientUnits="userSpaceOnUse" x1="346.5855" y1="95.2167" x2="360.7774" y2="92.7058" gradientTransform="matrix(-1 0 0 1 625.26 0)">
					<stop  offset="0" style="stop-color:#FFCA8A"/>
					<stop  offset="1" style="stop-color:#ED815A"/>
				</linearGradient>
				<path style="fill:url(#SVGID_00000123419495606468975790000018350092856587683257_);" d="M267.305,91.928
					c-1.956,5.319-0.543,10.732,3.154,12.091c3.697,1.359,8.28-1.85,10.235-7.169c1.955-5.319,0.544-10.732-3.154-12.091
					C273.842,83.4,269.26,86.61,267.305,91.928z"/>
			</g>
			<g>
				<path style="fill:none;stroke:#C29256;stroke-miterlimit:10;" d="M220.707,90.403c1.601-2.911,6.041-2.474,6.696,1.237
					c0.582,3.3-2.256,5.604-2.547,6.768c-0.291,1.165,0.801,2.62,3.348,2.62"/>
				<path style="fill:none;stroke:#C29256;stroke-miterlimit:10;" d="M278.796,90.403c-1.601-2.911-6.041-2.474-6.696,1.237
					c-0.582,3.3,2.256,5.604,2.547,6.768c0.291,1.165-0.801,2.62-3.348,2.62"/>
			</g>
			<ellipse style="fill:#FFCA8A;" cx="249.782" cy="90.742" rx="23.635" ry="32.532"/>
			<path style="fill:#FFAD7D;" d="M252.805,102.604c0,1.622-1.64,2.937-3.663,2.937c-2.023,0-3.664-1.315-3.664-2.937
				c0-1.622,1.64-2.937,3.664-2.937C251.164,99.667,252.805,100.982,252.805,102.604z"/>
			<path style="fill:#4F4136;" d="M223.49,78.952c0,0,16.521,8.661,29.184-6.55c0,0,5.167,8.078,11.645,6.477
				c0,0,1.027,9.85,17.475,8.375c0,0-6.267-31.009-31.012-31.009C229.967,56.245,223.49,78.952,223.49,78.952z"/>
			<path style="fill:#992929;" d="M254.983,110.03c0,4.561-2.805,8.257-6.266,8.257c-3.46,0-6.266-3.697-6.266-8.257
				c0-4.56,2.805-3.296,6.266-3.296C252.178,106.734,254.983,105.47,254.983,110.03z"/>
			<path style="fill:none;stroke:#C29256;stroke-miterlimit:10;" d="M246.984,84.847c1.237,1.82,1.572,8.285,0,12.809
				c-1.033,2.972-1.943,4.792-0.792,5.822c0.899,0.805,5.45,0,5.45,0"/>
			<g>
				<path style="fill:#4F4136;" d="M262.8,90.742c0,1.926-0.868,3.488-1.938,3.488c-1.07,0-1.938-1.562-1.938-3.488
					c0-1.927,0.868-3.488,1.938-3.488C261.932,87.254,262.8,88.816,262.8,90.742z"/>
				<path style="fill:#4F4136;" d="M240.639,90.742c0,1.926-0.868,3.488-1.938,3.488c-1.07,0-1.938-1.562-1.938-3.488
					c0-1.927,0.868-3.488,1.938-3.488C239.771,87.254,240.639,88.816,240.639,90.742z"/>
			</g>
			<g>
				<path style="fill:none;stroke:#4F4136;stroke-width:1.5;stroke-miterlimit:10;" d="M233.625,83.701c0,0,4.039-3.33,9.279,0.71"
					/>
				<path style="fill:none;stroke:#4F4136;stroke-width:1.5;stroke-miterlimit:10;" d="M265.939,83.701c0,0-4.039-3.33-9.279,0.71"
					/>
			</g>
			<polygon style="fill:#E33E3E;" points="234.553,130.371 249.545,136.921 244.596,147.619 229.385,138.995 			"/>
			<polygon style="fill:#E33E3E;" points="264.71,130.371 249.718,136.921 254.667,147.619 269.878,138.995 			"/>
			<path style="fill:#FFFFFF;" d="M252.028,169.078c0,1.276-1.034,2.31-2.31,2.31c-1.276,0-2.31-1.034-2.31-2.31
				c0-1.276,1.034-2.31,2.31-2.31C250.994,166.768,252.028,167.802,252.028,169.078z"/>
			<path style="fill:#FFFFFF;" d="M252.028,187.564c0,1.276-1.034,2.31-2.31,2.31c-1.276,0-2.31-1.034-2.31-2.31
				c0-1.276,1.034-2.31,2.31-2.31C250.994,185.253,252.028,186.288,252.028,187.564z"/>
			<path style="fill:#FFFFFF;" d="M252.028,206.049c0,1.276-1.034,2.31-2.31,2.31c-1.276,0-2.31-1.034-2.31-2.31
				c0-1.276,1.034-2.31,2.31-2.31C250.994,203.74,252.028,204.774,252.028,206.049z"/>
			<path style="fill:#FFFFFF;" d="M252.028,224.535c0,1.276-1.034,2.31-2.31,2.31c-1.276,0-2.31-1.034-2.31-2.31
				c0-1.276,1.034-2.31,2.31-2.31C250.994,222.225,252.028,223.26,252.028,224.535z"/>
			<g>
				<polygon style="fill:#F9B079;" points="325.945,218.006 304.87,203.138 318.586,179.23 335.289,193.641 				"/>
				
					<linearGradient id="SVGID_00000031171986415760916750000016404824034802213773_" gradientUnits="userSpaceOnUse" x1="369.5171" y1="-16100.9961" x2="349.2649" y2="-16041.1514" gradientTransform="matrix(1 0 0 -1 0 -15882)">
					<stop  offset="0" style="stop-color:#ED815A"/>
					<stop  offset="0.0972" style="stop-color:#F19064"/>
					<stop  offset="0.306" style="stop-color:#F7A974"/>
					<stop  offset="0.5222" style="stop-color:#FBBC80"/>
					<stop  offset="0.7482" style="stop-color:#FEC688"/>
					<stop  offset="1" style="stop-color:#FFCA8A"/>
				</linearGradient>
				<path style="fill:url(#SVGID_00000031171986415760916750000016404824034802213773_);" d="M361.835,107.328
					c-3.997-2.392-9.786,21.631-13.862,21.48c-4.076-0.152-3.14-11.157-9.774-10.519l4.046,14.119c0,0-2.365,8.871,0.92,13.429
					c0,0-25.438,48.286-23.38,62.942c1.612,11.481,15.494,14.928,21.867,2.604c3.954-7.646,14.06-60.331,14.06-60.331
					s9.246-2.656,10.605-12.206c0,0,14.401-3.388,15.113-5.147s-15.855,0.445-15.855,0.445s18.712-10.964,17.445-12.743
					c-1.267-1.778-21.487,7.521-21.487,7.521s16.337-16.778,14.468-19.063c-1.87-2.285-19.398,15.355-19.398,15.355
					S364.016,108.633,361.835,107.328z"/>
				<path style="fill:#E33E3E;" d="M298.435,153.333l26.265,26.516l-15.138,30.276l-19.468-14.41
					C290.093,195.715,274.353,164.516,298.435,153.333z"/>
				
					<linearGradient id="SVGID_00000161621888921271756410000013622537820752643475_" gradientUnits="userSpaceOnUse" x1="345.6206" y1="-15993.8936" x2="366.437" y2="-16013.8906" gradientTransform="matrix(1 0 0 -1 0 -15882)">
					<stop  offset="0" style="stop-color:#EDAB5A"/>
					<stop  offset="1" style="stop-color:#FFCA8A"/>
				</linearGradient>
				<path style="fill:url(#SVGID_00000161621888921271756410000013622537820752643475_);" d="M366.316,138.846
					c0,0,14.401-3.388,15.113-5.147c0.713-1.759-15.855,0.445-15.855,0.445s18.712-10.964,17.445-12.743
					c-1.267-1.778-21.487,7.521-21.487,7.521s16.337-16.778,14.468-19.063c-1.87-2.285-19.398,15.355-19.398,15.355
					s7.415-16.581,5.234-17.886c-3.786-2.265-9.178,19.152-13.201,21.295c1.449,2.325,5.182,9.337,3.248,16.947
					c-0.691,2.72,0.266,4.091,1.396,4.781c1.146,0.701,2.589,0.716,3.818,0.173C359.728,149.36,365.286,146.082,366.316,138.846z"/>
				<line style="fill:none;stroke:#FFFFFF;stroke-miterlimit:10;" x1="321.15" y1="176.266" x2="305.891" y2="207.408"/>
				<line style="fill:none;stroke:#FFFFFF;stroke-miterlimit:10;" x1="318.705" y1="173.797" x2="303.05" y2="205.305"/>
			</g>
			<g>
				<polygon style="fill:#F9B079;" points="174.055,218.006 195.13,203.138 181.414,179.23 164.711,193.641 				"/>
				
					<linearGradient id="SVGID_00000135691366011206573700000009444503066341694375_" gradientUnits="userSpaceOnUse" x1="743.3729" y1="-16100.9961" x2="723.1207" y2="-16041.1514" gradientTransform="matrix(-1 0 0 -1 873.8558 -15882)">
					<stop  offset="0" style="stop-color:#ED815A"/>
					<stop  offset="0.0972" style="stop-color:#F19064"/>
					<stop  offset="0.306" style="stop-color:#F7A974"/>
					<stop  offset="0.5222" style="stop-color:#FBBC80"/>
					<stop  offset="0.7482" style="stop-color:#FEC688"/>
					<stop  offset="1" style="stop-color:#FFCA8A"/>
				</linearGradient>
				<path style="fill:url(#SVGID_00000135691366011206573700000009444503066341694375_);" d="M138.165,107.328
					c3.997-2.392,9.786,21.631,13.862,21.48c4.076-0.152,3.14-11.157,9.774-10.519l-4.046,14.119c0,0,2.365,8.871-0.92,13.429
					c0,0,25.438,48.286,23.381,62.942c-1.612,11.481-15.494,14.928-21.867,2.604c-3.954-7.646-14.06-60.331-14.06-60.331
					s-9.246-2.656-10.605-12.206c0,0-14.401-3.388-15.113-5.147c-0.713-1.759,15.855,0.445,15.855,0.445
					s-18.712-10.964-17.445-12.743c1.267-1.778,21.487,7.521,21.487,7.521s-16.338-16.778-14.468-19.063
					c1.87-2.285,19.398,15.355,19.398,15.355S135.984,108.633,138.165,107.328z"/>
				<path style="fill:#E33E3E;" d="M201.565,153.333L175.3,179.849l15.138,30.276l19.468-14.41
					C209.907,195.715,225.647,164.516,201.565,153.333z"/>
				
					<linearGradient id="SVGID_00000076573689676801642620000015557861420703094954_" gradientUnits="userSpaceOnUse" x1="719.4764" y1="-15993.8936" x2="740.2928" y2="-16013.8906" gradientTransform="matrix(-1 0 0 -1 873.8558 -15882)">
					<stop  offset="0" style="stop-color:#EDAB5A"/>
					<stop  offset="1" style="stop-color:#FFCA8A"/>
				</linearGradient>
				<path style="fill:url(#SVGID_00000076573689676801642620000015557861420703094954_);" d="M133.684,138.846
					c0,0-14.401-3.388-15.113-5.147c-0.713-1.759,15.855,0.445,15.855,0.445s-18.712-10.964-17.445-12.743
					c1.267-1.778,21.487,7.521,21.487,7.521s-16.338-16.778-14.468-19.063c1.87-2.285,19.398,15.355,19.398,15.355
					s-7.415-16.581-5.234-17.886c3.786-2.265,9.178,19.152,13.201,21.295c-1.449,2.325-5.182,9.337-3.248,16.947
					c0.691,2.72-0.266,4.091-1.396,4.781c-1.146,0.701-2.589,0.716-3.818,0.173C140.272,149.36,134.714,146.082,133.684,138.846z"/>
				<line style="fill:none;stroke:#FFFFFF;stroke-miterlimit:10;" x1="178.85" y1="176.266" x2="194.109" y2="207.408"/>
				<line style="fill:none;stroke:#FFFFFF;stroke-miterlimit:10;" x1="181.295" y1="173.797" x2="196.95" y2="205.305"/>
			</g>
			<path style="fill:#E33E3E;" d="M248.717,110.126c-2.403,0-4.555,0.813-6.035,2.096c0.73,3.494,3.152,6.065,6.035,6.065
				c2.883,0,5.306-2.57,6.035-6.065C253.273,110.939,251.121,110.126,248.717,110.126z"/>
		</g>
		<g>
			<g>
				
					<linearGradient id="SVGID_00000150094498595540148130000016285599957637752999_" gradientUnits="userSpaceOnUse" x1="142.39" y1="503.3689" x2="118.1364" y2="345.1815" gradientTransform="matrix(1.0964 -0.034 -0.034 0.9914 3.2842 7.1018)">
					<stop  offset="0" style="stop-color:#D13232"/>
					<stop  offset="1" style="stop-color:#FF5151"/>
				</linearGradient>
				<path style="fill:url(#SVGID_00000150094498595540148130000016285599957637752999_);" d="M205.998,324.095
					c16.364,55.378-8.166,111.439-54.788,125.216c-46.622,13.776-97.682-19.949-114.046-75.327
					c-16.363-55.378,8.166-111.439,54.788-125.215C138.575,234.992,189.635,268.717,205.998,324.095z"/>
				
					<linearGradient id="SVGID_00000005967398657442528220000009761221772962280612_" gradientUnits="userSpaceOnUse" x1="117.5713" y1="-16218.3486" x2="117.5713" y2="-16196.5313" gradientTransform="matrix(1 0 0 -1 0 -15882)">
					<stop  offset="0" style="stop-color:#FFBCAB"/>
					<stop  offset="1" style="stop-color:#F09E89"/>
				</linearGradient>
				<polygon style="fill:url(#SVGID_00000005967398657442528220000009761221772962280612_);" points="105.809,306.102 
					108.267,341.565 129.334,337.352 129.334,307.155 				"/>
				<path style="fill:#FF9900;" d="M94.938,289.774c0,0-21.067-7.257-18.492-27.036c0,0-6.437,0.585-8.544,5.267
					c3.277-8.193,5.969-8.778,10.183-8.661c-2.575-7.257-6.32-15.683,5.969-20.599c-4.096,5.618-3.979,12.172-3.336,13.577
					c13.986-22.238,42.427-26.1,60.92-24.344c18.492,1.756,33.59,29.611,2.107,38.857c-0.819,5.735-7.022,22.121-7.022,22.121
					L94.938,289.774z"/>
				
					<linearGradient id="SVGID_00000045614355515313281570000015021804382354817421_" gradientUnits="userSpaceOnUse" x1="136.1362" y1="-16164.9004" x2="148.4981" y2="-16164.9004" gradientTransform="matrix(1 0 0 -1 0 -15882)">
					<stop  offset="0" style="stop-color:#F09E89"/>
					<stop  offset="1" style="stop-color:#FFBCAB"/>
				</linearGradient>
				<path style="fill:url(#SVGID_00000045614355515313281570000015021804382354817421_);" d="M136.136,280.469
					c0,0,3.101-8.602,8.895-6.613c5.794,1.99,3.519,12.026-0.936,15.918c-4.074,3.558-6.73,2.224-6.73,2.224L136.136,280.469z"/>
				<path style="fill:none;stroke:#D98F7C;stroke-miterlimit:10;" d="M144.446,276.422c-2.165-0.527-5.501,2.399-5.676,4.916
					c-0.176,2.516,1.697,3.156,1.639,5.177c-0.059,2.021-3.628,2.782-3.628,2.782"/>
				
					<linearGradient id="SVGID_00000124129630506124721990000012712102994858038659_" gradientUnits="userSpaceOnUse" x1="98.5721" y1="-16171.6777" x2="77.6793" y2="-16167.2549" gradientTransform="matrix(1 0 0 -1 0 -15882)">
					<stop  offset="0" style="stop-color:#F09E89"/>
					<stop  offset="1" style="stop-color:#FFBCAB"/>
				</linearGradient>
				<path style="fill:url(#SVGID_00000124129630506124721990000012712102994858038659_);" d="M80.386,277.329
					c4.84-2.715,12.25,4.916,12.25,4.916l2.107,12.094c0,0-2.029,4.838-8.526,2.263C80.961,294.519,73.988,280.918,80.386,277.329z"
					/>
				<path style="fill:none;stroke:#D98F7C;stroke-miterlimit:10;" d="M82.142,281.669c2.497-2.419,6.817,0.234,7.413,4.448
					c0.421,2.982-1.014,3.511,0,5.228c1.014,1.717,4.682,0.546,4.682,0.546"/>
				<path style="fill:#FFBCAB;" d="M138.243,254.311c-0.892,8.9-2.309,20.908-0.452,31.755c1.857,10.847,6.07,29.574-15.114,32.5
					c-21.184,2.926-26.451-13.928-28.207-19.546c-1.756-5.618-5.735-28.696-5.501-40.331c0.234-11.635,18.609-18.306,29.611-18.189
					C129.582,240.617,139.017,246.593,138.243,254.311z"/>
				<path style="fill:#FF9A80;" d="M127.946,288.507c-1.275,1.238-2.942,1.59-3.723,0.785c-0.781-0.804-0.38-2.46,0.895-3.698
					c1.275-1.238,2.942-1.59,3.723-0.785C129.621,285.613,129.221,287.269,127.946,288.507z"/>
				<path style="fill:#FF9900;" d="M90.972,281.101c0,0,4.969-5.875,3.849-18.832c9.207,3.277,26.217,6.242,33.395,2.185
					c-2.731-0.078-8.973-2.653-12.718-5.15c8.115,1.795,17.79,2.809,25.983-2.185c0,0,1.873-19.273-14.513-19.819
					c-16.386-0.546-33.239,2.575-37.141,11.08c-3.901,8.505-4.214,15.605-3.667,19.429
					C86.706,271.633,90.972,281.101,90.972,281.101z"/>
				<path style="fill:none;stroke:#D98F7C;stroke-miterlimit:10;" d="M119.868,276.08c0.156,3.121,1.248,8.583,4.369,8.037
					c3.121-0.546,4.447-1.795,5.384,0.39c0.936,2.185-4.877,5.852-4.877,5.852l0.051,3.248"/>
				<path style="fill:#992929;" d="M104.73,296.836c0,0,13.187,2.887,27.934-1.405c0,0,0.87,13.235-11.704,14.201
					C109.446,310.516,105.433,302.297,104.73,296.836z"/>
				<path style="fill:#FFFFFF;" d="M104.73,296.836c0.129,1,0.369,2.092,0.745,3.203c4.703,1.031,16.879,3.003,26.984-1.372
					c0.291-1.876,0.204-3.236,0.204-3.236C117.917,299.723,104.73,296.836,104.73,296.836z"/>
				<path style="fill:#E33E3E;" d="M129.781,305.27c-10.077-3.554-15.491,0.37-17.704,2.801c2.285,1.193,5.199,1.844,8.883,1.561
					C125.316,309.297,128.057,307.489,129.781,305.27z"/>
				<path style="fill:#395D6E;" d="M113.551,276.901c0.097,2.126-0.972,3.902-2.387,3.967c-1.415,0.064-2.641-1.607-2.738-3.733
					c-0.097-2.126,0.972-3.902,2.387-3.966C112.229,273.103,113.455,274.775,113.551,276.901z"/>
				<path style="fill:#395D6E;" d="M129.096,276.08c0,2.128-1.148,3.854-2.565,3.854c-1.417,0-2.565-1.725-2.565-3.854
					c0-2.129,1.148-3.854,2.565-3.854C127.948,272.227,129.096,273.952,129.096,276.08z"/>
				<path style="fill:none;stroke:#B8944C;stroke-miterlimit:10;" d="M105.511,271.409c1.6-2.692,7.099-3.121,9.421,0.273"/>
				<path style="fill:none;stroke:#B8944C;stroke-miterlimit:10;" d="M122.637,271.838c0.819-1.756,4.643-2.965,7.686-0.156"/>
				<path style="fill:#FFBCAB;" d="M180.118,375.289l9.529-14.54c0,0,0.032-25.241,1.632-26.216
					c1.601-0.976,4.103,12.133,4.103,12.133s12.805-24.576,15.283-23.949c1.489,0.377-5.661,19.191-5.661,19.191
					s13.979-14.748,15.643-13.859c1.664,0.889-12.69,19.199-12.69,19.199s14.707-9.647,15.628-8.696s-12.941,13.985-12.941,13.985
					s10.1-4.4,11.044-3.17c0.944,1.229-14.379,14.667-20.343,16.009c-4.776,7.692-13.994,23.71-13.994,23.71L180.118,375.289z"/>
				<path style="fill:#6AA1C4;" d="M150.372,346.832l17.585,39.131l19.326-24.043l8.608,19.049c0,0-15.279,35.374-28.388,36.545
					c-9.698,0.866-20.489-17.974-20.489-17.974L150.372,346.832z"/>
				<path style="fill:#433DB9;" d="M193.202,386.709c1.694-3.44,2.689-5.74,2.689-5.74l-8.608-19.049l-2.465,3.067L193.202,386.709z
					"/>
				
					<linearGradient id="SVGID_00000181055386750815985710000008198502888002540962_" gradientUnits="userSpaceOnUse" x1="193.6428" y1="-16217.4316" x2="211.9547" y2="-16229.335" gradientTransform="matrix(1 0 0 -1 0 -15882)">
					<stop  offset="0" style="stop-color:#F09E89"/>
					<stop  offset="1" style="stop-color:#FFBCAB"/>
				</linearGradient>
				<path style="fill:url(#SVGID_00000181055386750815985710000008198502888002540962_);" d="M201.346,365.376
					c5.963-1.342,21.287-14.779,20.343-16.009s-11.044,3.17-11.044,3.17s13.862-13.034,12.941-13.985
					c-0.921-0.951-15.628,8.696-15.628,8.696s14.354-18.31,12.69-19.199c-1.664-0.889-15.643,13.859-15.643,13.859
					s7.15-18.814,5.661-19.191c-2.478-0.627-13.616,20.811-13.616,20.811S207.721,348.637,201.346,365.376z"/>
				<path style="fill:#6AA1C4;" d="M118.697,335.562c5.887,0,11.165-1.405,14.837-3.63c-2.645-1.48-4.201-1.919-4.201-1.919
					c-14.201,4.99-21.868,0-21.868,0c-1.162,0.622-2.314,1.299-3.446,2.016C107.685,334.198,112.896,335.562,118.697,335.562z"/>
				<g>
					<defs>
						
							<ellipse id="SVGID_00000153700191352530086540000012428700003694664364_" transform="matrix(0.959 -0.2834 0.2834 0.959 -93.9247 48.7602)" cx="121.582" cy="349.039" rx="88.025" ry="104.557"/>
					</defs>
					<clipPath id="SVGID_00000108309344426335308990000007541902539092213165_">
						<use xlink:href="#SVGID_00000153700191352530086540000012428700003694664364_"  style="overflow:visible;"/>
					</clipPath>
					<g style="clip-path:url(#SVGID_00000108309344426335308990000007541902539092213165_);">
						<defs>
							<path id="SVGID_00000115478676071720692580000008864709871023791781_" d="M107.466,330.013c0,0,7.667,4.99,21.868,0
								c0,0,9.016,2.529,20.609,16.11c5.147,6.03,21.509,124.42,21.509,124.42H87.892c0,0-4.846-92.816-3.604-121.381
								C84.287,349.162,95.275,336.533,107.466,330.013z"/>
						</defs>
						<clipPath id="SVGID_00000019649708627694003700000009927034583376231609_">
							<use xlink:href="#SVGID_00000115478676071720692580000008864709871023791781_"  style="overflow:visible;"/>
						</clipPath>
						<path style="clip-path:url(#SVGID_00000019649708627694003700000009927034583376231609_);fill:#433DB9;" d="M107.466,330.013
							c0,0,7.667,4.99,21.868,0c0,0,9.016,2.529,20.609,16.11c5.147,6.03,21.509,124.42,21.509,124.42H87.892
							c0,0-4.846-92.816-3.604-121.381C84.287,349.162,95.275,336.533,107.466,330.013z"/>
						<g style="clip-path:url(#SVGID_00000019649708627694003700000009927034583376231609_);">
							<line style="fill:none;stroke:#FFFFFF;stroke-miterlimit:10;" x1="70.96" y1="389.651" x2="179.822" y2="383.228"/>
							
								<line style="fill:none;stroke:#6E67EB;stroke-width:3;stroke-miterlimit:10;" x1="71.454" y1="398.025" x2="180.316" y2="391.601"/>
							<line style="fill:none;stroke:#FFFFFF;stroke-miterlimit:10;" x1="71.836" y1="404.49" x2="180.698" y2="398.066"/>
							
								<line style="fill:none;stroke:#6E67EB;stroke-width:3;stroke-miterlimit:10;" x1="72.33" y1="412.863" x2="181.192" y2="406.439"/>
							<line style="fill:none;stroke:#FFFFFF;stroke-miterlimit:10;" x1="72.711" y1="419.328" x2="181.573" y2="412.904"/>
							
								<line style="fill:none;stroke:#6E67EB;stroke-width:3;stroke-miterlimit:10;" x1="73.205" y1="427.701" x2="182.067" y2="421.278"/>
						</g>
					</g>
					<path style="clip-path:url(#SVGID_00000108309344426335308990000007541902539092213165_);fill:#6AA1C4;" d="M84.287,349.162
						c0,0,8.547,18.027,3.082,42.993c-4.418,20.185-8.786,39.939-10.768,79.896H52.725
						C52.725,472.051,53.648,396.212,84.287,349.162z"/>
				</g>
			</g>
			<g>
				
					<linearGradient id="SVGID_00000050629980406874157510000005704229643180858000_" gradientUnits="userSpaceOnUse" x1="363.6549" y1="-16176.6201" x2="416.0255" y2="-16378.4141" gradientTransform="matrix(1 0 0 -1 0 -15882)">
					<stop  offset="0" style="stop-color:#7EB0AA"/>
					<stop  offset="1" style="stop-color:#668F8A"/>
				</linearGradient>
				<path style="fill:url(#SVGID_00000050629980406874157510000005704229643180858000_);" d="M294.001,326.563
					c-16.364,55.378,8.166,111.439,54.788,125.216c46.622,13.776,97.682-19.949,114.046-75.327
					c16.364-55.378-8.166-111.439-54.788-125.215C361.425,237.459,310.365,271.184,294.001,326.563z"/>
				<path style="fill:#E33E3E;" d="M383.916,243.328c0,0,29.786,0.957,33.66,23.88c2.868,16.972,7.991,28.015,14.783,41.847
					c6.361,12.953-2.274,27.064,0,36.617s16.148,30.021,10.234,36.389c-5.913,6.368-38.891,6.595-54.583,7.96
					c-15.693,1.365-43.894,1.819-47.533-11.144c-3.639-12.964,2.274-25.472-4.321-34.342c-6.596-8.87-1.365-14.783-2.047-20.924
					c-0.682-6.141-4.321-5.458-3.866-14.101c0.455-8.642,8.642-10.234,3.639-24.563c-5.003-14.328-7.05-26.609,3.639-36.616
					c10.689-10.007,26.851-7.515,33.887-4.549c0,0-22.061-14.783-45.714,7.96C325.693,251.743,352.278,213.979,383.916,243.328z"/>
				<path style="fill:none;stroke:#AD2F2F;stroke-miterlimit:10;" d="M355.29,326.33c-0.038,3.98,4.929,8.703,7.368,15.352
					c2.879,7.846,2.879,22.516,2.879,22.516"/>
				<path style="fill:none;stroke:#AD2F2F;stroke-miterlimit:10;" d="M348.182,313.982c1.061,3.949-1.971,14.322,0.758,19.37
					c2.729,5.048,7.505,7.474,7.922,20.362c0.417,12.888-0.341,15.92,2.236,20.924"/>
				<path style="fill:none;stroke:#AD2F2F;stroke-miterlimit:10;" d="M350.071,380.914c-5.281-10.917-0.747-25.387-1.57-30.44
					c-1.437-8.83-6.744-10.801-7.35-16.759c-0.606-5.957,2.123-12.389-1.971-19.37c-4.094-6.981,0.327-13.516,2.199-17.884
					c1.592-3.715,0.295-5.452,0.295-5.452"/>
				<path style="fill:#FFC2C2;" d="M366.858,357.802c0,0-30.931,35.479-41.165,43.06c0,0-23.729-72.778-24.638-80.511
					c0,0-5.003,1.061-1.668,17.285c0,0-35.404-5.534-37.079-1.213c-1.093,2.819,19.036,4.397,19.036,4.397
					s-0.606,25.472,17.891,21.985c0,0,3.791,57.464,17.255,63.806c14.515,6.836,47.108-34.543,47.108-34.543L366.858,357.802z"/>
				<path style="fill:#FFA1A1;" d="M280.197,341.992c0.736-2.411,15.714-1.548,16.976,0.587c1.261,2.135-2.735,4.249-2.735,4.249
					s3.69,0.79,3.327,3.153c-0.364,2.364-4.475,3.398-4.475,3.398s2.672,0.682,2.591,2.542c-0.082,1.86-10.14,5.069-11.441,4.398
					c-1.301-0.671-0.263-5.099-0.263-5.099s-4.597-1.953-2.484-6.801C281.692,348.419,278.974,346.002,280.197,341.992z"/>
				<path style="fill:none;stroke:#AD2F2F;stroke-miterlimit:10;" d="M417.72,296.916c3.336,5.307,10.159,13.667,9.097,23.436
					c-1.061,9.769-3.791,17.899-1.516,28.541c2.274,10.642,11.166,28.373,12.254,35.883"/>
				<path style="fill:none;stroke:#AD2F2F;stroke-miterlimit:10;" d="M415.976,310.316c3.411,9.647-1.365,24.06,0,35.275
					c1.365,11.215,8.321,29.637,8.141,35.323"/>
				<g>
					<defs>
						
							<ellipse id="SVGID_00000146490353874691810210000010031537319138980513_" transform="matrix(0.2834 -0.959 0.959 0.2834 -65.9137 614.8058)" cx="378.418" cy="351.507" rx="104.557" ry="88.025"/>
					</defs>
					<clipPath id="SVGID_00000119815939831394107630000003585809823747731078_">
						<use xlink:href="#SVGID_00000146490353874691810210000010031537319138980513_"  style="overflow:visible;"/>
					</clipPath>
					<path style="clip-path:url(#SVGID_00000119815939831394107630000003585809823747731078_);fill:#FF9900;" d="M386.249,348.25
						l19.359-3.94c0,0,28.497,24.618,26.428,116.618h-71.262c0,0,0.322-41.416-0.587-52.333c-0.91-10.917-7.515-14.728-7.884-21.379
						c-0.758-13.646,16.527-35.328,16.527-35.328L386.249,348.25z"/>
					
						<linearGradient id="SVGID_00000117642271077752143520000013967617853551478195_" gradientUnits="userSpaceOnUse" x1="420.6363" y1="-16293.7871" x2="411.5187" y2="-16342.1973" gradientTransform="matrix(1 0 0 -1 0 -15882)">
						<stop  offset="0" style="stop-color:#FAB7B7"/>
						<stop  offset="1" style="stop-color:#E38686"/>
					</linearGradient>
					
						<path style="clip-path:url(#SVGID_00000119815939831394107630000003585809823747731078_);fill:url(#SVGID_00000117642271077752143520000013967617853551478195_);" d="
						M415.731,358.915c0,0-9.451-1.265-9.451,11.319c0,12.585,10.765,62.165,10.462,79.753h19.256
						C435.997,449.988,434.035,371.856,415.731,358.915z"/>
				</g>
				
					<linearGradient id="SVGID_00000132080493870938386050000003949101400244226485_" gradientUnits="userSpaceOnUse" x1="384.6213" y1="-16185.3037" x2="384.1111" y2="-16218.2129" gradientTransform="matrix(1 0 0 -1 0 -15882)">
					<stop  offset="0" style="stop-color:#E38686"/>
					<stop  offset="1" style="stop-color:#FAB7B7"/>
				</linearGradient>
				<polygon style="fill:url(#SVGID_00000132080493870938386050000003949101400244226485_);" points="371.407,324.445 
					373.739,345.976 396.879,343.853 396.121,311.655 				"/>
				
					<linearGradient id="SVGID_00000066513859749118228190000016856936326395180716_" gradientUnits="userSpaceOnUse" x1="407.5412" y1="-16178.9668" x2="393.4483" y2="-16174.9072" gradientTransform="matrix(1 0 0 -1 0 -15882)">
					<stop  offset="0.0215" style="stop-color:#FFC2C2"/>
					<stop  offset="0.6573" style="stop-color:#E38686"/>
				</linearGradient>
				<path style="fill:url(#SVGID_00000066513859749118228190000016856936326395180716_);" d="M402.507,290.064
					c3.235-4.217,6.57-3.611,8.238,1.09c1.668,4.7-3.487,16.206-10.917,13.182L402.507,290.064z"/>
				<path style="fill:none;stroke:#E38A8A;stroke-miterlimit:10;" d="M408.168,293.06c-0.379-1.982-2.123-2.74-3.336-1.906
					c-1.213,0.834-3.487,5.762-3.487,5.762"/>
				<path style="fill:#FFC2C2;" d="M402.386,287.457c1.524,21.934-9.481,40.565-24.58,41.614
					c-15.099,1.049-24.023-11.752-22.857-31.728c0.672-11.514-19.408-34.542,17.338-47.701
					C386.537,244.539,400.862,265.523,402.386,287.457z"/>
				<path style="fill:#FFB0B0;" d="M366.972,303.188c0,0.91-1.51,1.648-3.374,1.648s-3.374-0.738-3.374-1.648
					c0-0.91,1.51-1.648,3.374-1.648S366.972,302.278,366.972,303.188z"/>
				<path style="fill:#992929;" d="M366.858,311.842c0,0,11.258-0.341,19.389-7.505c0,0,0.329,12.141-6.948,14.301
					C372.021,320.799,366.858,311.842,366.858,311.842z"/>
				<path style="fill:none;stroke:#E38A8A;stroke-miterlimit:10;" d="M365.569,288.435c1.744,2.578,2.881,8.642-0.91,10.917
					c-3.79,2.274-5.307,2.35-4.397,3.942c0.91,1.592,4.776,2.957,4.776,2.957"/>
				<path style="fill:#992929;" d="M378.374,292.633c0.353,1.637-0.249,3.156-1.344,3.392s-2.268-0.9-2.621-2.537
					c-0.353-1.637,0.249-3.156,1.344-3.392C376.848,289.859,378.021,290.996,378.374,292.633z"/>
				<path style="fill:#992929;" d="M362.557,292.633c0.353,1.637-0.249,3.156-1.344,3.392c-1.095,0.236-2.268-0.9-2.621-2.537
					c-0.353-1.637,0.249-3.156,1.344-3.392S362.204,290.996,362.557,292.633z"/>
				<path style="fill:#EB8D00;" d="M405.608,344.31l-14.756,3.003l-2.395,0.964l-20.046,7.977c0,0,12.541,6.238,31.418-2.746
					c3.22-1.533,6.392-3.254,9.442-5.051C407.058,345.552,405.608,344.31,405.608,344.31z"/>
				<path style="fill:#E33E3E;" d="M380.573,272.05c0,0-8.339,13.798-36.003,18.281c0,0-7.02-30.095,17.398-40.065
					c24.79-10.122,36.73,3.221,40.369,18.838c3.639,15.617-1.445,35.732-1.445,35.732l-1.739-10.866
					C399.154,293.97,382.544,287.364,380.573,272.05z"/>
				<path style="fill:none;stroke:#E33E3E;stroke-width:2;stroke-miterlimit:10;" d="M370.566,285.165c0,0,4.549-4.094,10.765,0"/>
				<path style="fill:none;stroke:#E33E3E;stroke-width:2;stroke-miterlimit:10;" d="M355.821,288.747c0,0,0.796-3.98,7.448-1.08"/>
				<path style="fill:#FFFFFF;" d="M381.406,307.707c-5.156,2.825-10.451,3.726-12.995,4.008
					C370.181,312.676,376.369,315.252,381.406,307.707z"/>
				<path style="fill:#E33E3E;" d="M375.655,318.847c1.138,0.202,2.357,0.173,3.643-0.209c3.995-1.186,5.695-5.377,6.419-8.919
					C379.054,311.412,376.299,317.225,375.655,318.847z"/>
				<path style="fill:#433DB9;" d="M405.774,302.178c0,0.897-0.727,1.623-1.623,1.623c-0.896,0-1.623-0.727-1.623-1.623
					c0-0.896,0.727-1.623,1.623-1.623C405.047,300.555,405.774,301.281,405.774,302.178z"/>
				<g>
					<path style="fill:#FFA826;" d="M370.299,356.864c-2.52-0.297-4.457-2.389-4.607-4.922c-0.288-4.869-0.367-9.326,1.499-10.477
						c2.397-1.478,8.082,0.569,16.952-2.502c8.87-3.07,15.465-7.505,18.991-5.345c2.145,1.315,2.522,6.252,2.488,9.915
						c-0.025,2.663-1.445,5.114-3.759,6.431C396.221,353.177,384.389,358.523,370.299,356.864z"/>
					<g>
						<path style="fill:#CC7A00;" d="M375.21,340.731l-3.339,16.273c0.304,0.025,0.611,0.062,0.913,0.081l3.371-16.425
							C375.833,340.686,375.517,340.712,375.21,340.731z"/>
						<path style="fill:#CC7A00;" d="M376.722,340.61l2.482,16.416c0.303-0.023,0.61-0.04,0.91-0.068l-2.489-16.459
							C377.321,340.539,377.015,340.579,376.722,340.61z"/>
						<path style="fill:#CC7A00;" d="M370.221,340.855c-0.321,0.011-0.622,0.029-0.908,0.053l0.819,15.92
							c0.057,0.009,0.11,0.029,0.167,0.035c0.252,0.03,0.498,0.041,0.748,0.066L370.221,340.855z"/>
						<path style="fill:#CC7A00;" d="M391.511,336.037c-0.529,0.226-1.072,0.456-1.626,0.689l-0.318,18.419
							c0.31-0.09,0.612-0.184,0.915-0.277l0.311-18.048l4.767,16.217c0.283-0.118,0.572-0.235,0.844-0.353L391.511,336.037z"/>
						<path style="fill:#CC7A00;" d="M383.678,339.111c-0.318,0.105-0.636,0.209-0.946,0.301l-1.793,17.456
							c0.311-0.035,0.619-0.075,0.927-0.115L383.678,339.111z"/>
						<path style="fill:#CC7A00;" d="M404.25,347.775l-5.266-14.498c-0.286,0.062-0.583,0.141-0.885,0.226l5.483,15.096
							C403.825,348.34,404.046,348.064,404.25,347.775z"/>
						<path style="fill:#CC7A00;" d="M397.399,333.715c-0.296,0.094-0.597,0.194-0.906,0.304l0.243,18.52
							c0.31-0.137,0.608-0.274,0.905-0.411L397.399,333.715z"/>
						<path style="fill:#CC7A00;" d="M385.043,338.639c-0.287,0.104-0.57,0.21-0.862,0.311l3.723,16.643
							c0.295-0.075,0.591-0.151,0.881-0.23L385.043,338.639z"/>
					</g>
				</g>
				<path style="fill:none;stroke:#AD2F2F;stroke-miterlimit:10;" d="M380.573,272.05c0,0-12.66,19.401-50.566,19.711"/>
			</g>
		</g>
		<g>
			<g>
				
					<ellipse transform="matrix(0.9864 -0.1642 0.1642 0.9864 -4.9101 57.0138)" style="fill:#F2DC68;" cx="342.443" cy="58.21" rx="43.971" ry="40.754"/>
				<path style="fill:#F2DC68;" d="M316.622,81.663c0,0-4.495,12.41-19.017,14.587c0,0,19.447,8.459,27.987-7.049L316.622,81.663z"
					/>
			</g>
			
				<text transform="matrix(1 0 0 1 313.0023 66.5542)" style="fill:#FFFFFF; font-family:'KirangHaerang-Regular'; font-size:35.2639px;">Halo!</text>
		</g>
		<g>
			<g>
				<g>
					
						<ellipse transform="matrix(0.8916 -0.4529 0.4529 0.8916 -33.0927 209.5097)" style="fill:#F2DC68;" cx="420.956" cy="173.86" rx="47.07" ry="43.626"/>
					<path style="fill:#F2DC68;" d="M402.132,206.108c0,0-0.6,14.116-14.727,21.009c0,0,22.576,2.383,26.309-16.197L402.132,206.108
						z"/>
				</g>
				
					<text transform="matrix(1 0 0 1 382.8521 181.3202)" style="fill:#FFFFFF; font-family:'KirangHaerang-Regular'; font-size:26.8092px;">Bonjour!</text>
			</g>
			<g>
				<g>
					
						<ellipse transform="matrix(0.4529 -0.8916 0.8916 0.4529 -111.7612 165.5891)" style="fill:#F2DC68;" cx="79.044" cy="173.86" rx="43.626" ry="47.07"/>
					<path style="fill:#F2DC68;" d="M97.868,206.108c0,0,0.6,14.116,14.727,21.009c0,0-22.576,2.383-26.309-16.197L97.868,206.108z"
						/>
				</g>
				
					<text transform="matrix(1 0 0 1 46.8405 182.9598)" style="fill:#FFFFFF; font-family:'KirangHaerang-Regular'; font-size:34.0962px;">Hello!</text>
			</g>
		</g>
	</g>
</g>

</svg>
